<?xml version="1.0" encoding="UTF-8" standalone="no"?>
<!--Generator: Apple Native CoreSVG 149-->

<svg
   version="1.1"
   width="3300"
   height="2200"
   id="svg423"
   sodipodi:docname="custom.text.justify.svg"
   inkscape:version="1.1 (c4e8f9e, 2021-05-24)"
   xmlns:inkscape="http://www.inkscape.org/namespaces/inkscape"
   xmlns:sodipodi="http://sodipodi.sourceforge.net/DTD/sodipodi-0.dtd"
   xmlns="http://www.w3.org/2000/svg"
   xmlns:svg="http://www.w3.org/2000/svg">
  <defs
     id="defs427" />
  <sodipodi:namedview
     id="namedview425"
     pagecolor="#ffffff"
     bordercolor="#666666"
     borderopacity="1.0"
     inkscape:pageshadow="2"
     inkscape:pageopacity="0.0"
     inkscape:pagecheckerboard="0"
     showgrid="false"
     inkscape:zoom="0.94316065"
     inkscape:cx="1330.1021"
     inkscape:cy="1069.8071"
     inkscape:window-width="2560"
     inkscape:window-height="1316"
     inkscape:window-x="0"
     inkscape:window-y="25"
     inkscape:window-maximized="1"
     inkscape:current-layer="svg423" />
  <!--glyph: "", point size: 100.0, font version: "17.0d8e1", template writer version: "58"-->
  <g
     id="Notes">
    <rect
       height="2200"
       id="artboard"
       style="fill:white;opacity:1"
       width="3300"
       x="0"
       y="0" />
    <line
       style="fill:none;stroke:black;opacity:1;stroke-width:0.5;"
       x1="263"
       x2="3036"
       y1="292"
       y2="292"
       id="line236" />
    <text
       style="stroke:none;fill:black;font-family:SF Pro,SF Pro Display,SF Pro Text,sans-serif;font-size:13;font-weight:bold;"
       transform="matrix(1 0 0 1 263 322)"
       id="text238">Weight/Scale Variations</text>
    <text
       style="stroke:none;fill:black;font-family:SF Pro,SF Pro Display,SF Pro Text,sans-serif;font-size:13;text-anchor:middle;"
       transform="matrix(1 0 0 1 559.711 322)"
       id="text240">Ultralight</text>
    <text
       style="stroke:none;fill:black;font-family:SF Pro,SF Pro Display,SF Pro Text,sans-serif;font-size:13;text-anchor:middle;"
       transform="matrix(1 0 0 1 856.422 322)"
       id="text242">Thin</text>
    <text
       style="stroke:none;fill:black;font-family:SF Pro,SF Pro Display,SF Pro Text,sans-serif;font-size:13;text-anchor:middle;"
       transform="matrix(1 0 0 1 1153.13 322)"
       id="text244">Light</text>
    <text
       style="stroke:none;fill:black;font-family:SF Pro,SF Pro Display,SF Pro Text,sans-serif;font-size:13;text-anchor:middle;"
       transform="matrix(1 0 0 1 1449.84 322)"
       id="text246">Regular</text>
    <text
       style="stroke:none;fill:black;font-family:SF Pro,SF Pro Display,SF Pro Text,sans-serif;font-size:13;text-anchor:middle;"
       transform="matrix(1 0 0 1 1746.56 322)"
       id="text248">Medium</text>
    <text
       style="stroke:none;fill:black;font-family:SF Pro,SF Pro Display,SF Pro Text,sans-serif;font-size:13;text-anchor:middle;"
       transform="matrix(1 0 0 1 2043.27 322)"
       id="text250">Semibold</text>
    <text
       style="stroke:none;fill:black;font-family:SF Pro,SF Pro Display,SF Pro Text,sans-serif;font-size:13;text-anchor:middle;"
       transform="matrix(1 0 0 1 2339.98 322)"
       id="text252">Bold</text>
    <text
       style="stroke:none;fill:black;font-family:SF Pro,SF Pro Display,SF Pro Text,sans-serif;font-size:13;text-anchor:middle;"
       transform="matrix(1 0 0 1 2636.69 322)"
       id="text254">Heavy</text>
    <text
       style="stroke:none;fill:black;font-family:SF Pro,SF Pro Display,SF Pro Text,sans-serif;font-size:13;text-anchor:middle;"
       transform="matrix(1 0 0 1 2933.4 322)"
       id="text256">Black</text>
    <line
       style="fill:none;stroke:black;opacity:1;stroke-width:0.5;"
       x1="263"
       x2="3036"
       y1="1903"
       y2="1903"
       id="line258" />
    <g
       transform="matrix(1 0 0 1 263 1933)"
       id="g262">
      <path
         d="M9.24805 0.830078Q10.8691 0.830078 12.2949 0.214844Q13.7207-0.400391 14.8096-1.49414Q15.8984-2.58789 16.5186-4.01367Q17.1387-5.43945 17.1387-7.05078Q17.1387-8.66211 16.5186-10.0879Q15.8984-11.5137 14.8047-12.6074Q13.7109-13.7012 12.2852-14.3164Q10.8594-14.9316 9.23828-14.9316Q7.62695-14.9316 6.20117-14.3164Q4.77539-13.7012 3.69141-12.6074Q2.60742-11.5137 1.9873-10.0879Q1.36719-8.66211 1.36719-7.05078Q1.36719-5.43945 1.9873-4.01367Q2.60742-2.58789 3.69629-1.49414Q4.78516-0.400391 6.21094 0.214844Q7.63672 0.830078 9.24805 0.830078ZM9.24805-0.654297Q7.91992-0.654297 6.7627-1.14746Q5.60547-1.64062 4.73145-2.51953Q3.85742-3.39844 3.36426-4.56055Q2.87109-5.72266 2.87109-7.05078Q2.87109-8.37891 3.35938-9.54102Q3.84766-10.7031 4.72168-11.582Q5.5957-12.4609 6.75293-12.9541Q7.91016-13.4473 9.23828-13.4473Q10.5762-13.4473 11.7334-12.9541Q12.8906-12.4609 13.7695-11.582Q14.6484-10.7031 15.1465-9.54102Q15.6445-8.37891 15.6445-7.05078Q15.6445-5.72266 15.1514-4.56055Q14.6582-3.39844 13.7842-2.51953Q12.9102-1.64062 11.748-1.14746Q10.5859-0.654297 9.24805-0.654297ZM5.83984-7.04102Q5.83984-6.71875 6.04492-6.51855Q6.25-6.31836 6.5918-6.31836L8.50586-6.31836L8.50586-4.39453Q8.50586-4.0625 8.70605-3.85742Q8.90625-3.65234 9.22852-3.65234Q9.56055-3.65234 9.76562-3.85742Q9.9707-4.0625 9.9707-4.39453L9.9707-6.31836L11.8945-6.31836Q12.2266-6.31836 12.4316-6.51855Q12.6367-6.71875 12.6367-7.04102Q12.6367-7.37305 12.4316-7.57812Q12.2266-7.7832 11.8945-7.7832L9.9707-7.7832L9.9707-9.69727Q9.9707-10.0391 9.76562-10.2441Q9.56055-10.4492 9.22852-10.4492Q8.90625-10.4492 8.70605-10.2441Q8.50586-10.0391 8.50586-9.69727L8.50586-7.7832L6.5918-7.7832Q6.25-7.7832 6.04492-7.57812Q5.83984-7.37305 5.83984-7.04102Z"
         id="path260" />
    </g>
    <g
       transform="matrix(1 0 0 1 281.867 1933)"
       id="g266">
      <path
         d="M11.709 2.91016Q13.75 2.91016 15.5518 2.12891Q17.3535 1.34766 18.7305-0.0292969Q20.1074-1.40625 20.8887-3.20801Q21.6699-5.00977 21.6699-7.05078Q21.6699-9.0918 20.8887-10.8936Q20.1074-12.6953 18.7305-14.0723Q17.3535-15.4492 15.5469-16.2305Q13.7402-17.0117 11.6992-17.0117Q9.6582-17.0117 7.85645-16.2305Q6.05469-15.4492 4.68262-14.0723Q3.31055-12.6953 2.5293-10.8936Q1.74805-9.0918 1.74805-7.05078Q1.74805-5.00977 2.5293-3.20801Q3.31055-1.40625 4.6875-0.0292969Q6.06445 1.34766 7.86621 2.12891Q9.66797 2.91016 11.709 2.91016ZM11.709 1.25Q9.98047 1.25 8.47656 0.605469Q6.97266-0.0390625 5.83496-1.17676Q4.69727-2.31445 4.05762-3.81836Q3.41797-5.32227 3.41797-7.05078Q3.41797-8.7793 4.05762-10.2832Q4.69727-11.7871 5.83008-12.9297Q6.96289-14.0723 8.4668-14.7119Q9.9707-15.3516 11.6992-15.3516Q13.4277-15.3516 14.9316-14.7119Q16.4355-14.0723 17.5781-12.9297Q18.7207-11.7871 19.3652-10.2832Q20.0098-8.7793 20.0098-7.05078Q20.0098-5.32227 19.3701-3.81836Q18.7305-2.31445 17.5928-1.17676Q16.4551-0.0390625 14.9463 0.605469Q13.4375 1.25 11.709 1.25ZM7.39258-7.04102Q7.39258-6.68945 7.62695-6.46484Q7.86133-6.24023 8.23242-6.24023L10.8789-6.24023L10.8789-3.57422Q10.8789-3.21289 11.1035-2.9834Q11.3281-2.75391 11.6797-2.75391Q12.0508-2.75391 12.2852-2.9834Q12.5195-3.21289 12.5195-3.57422L12.5195-6.24023L15.1758-6.24023Q15.5371-6.24023 15.7715-6.46484Q16.0059-6.68945 16.0059-7.04102Q16.0059-7.41211 15.7715-7.6416Q15.5371-7.87109 15.1758-7.87109L12.5195-7.87109L12.5195-10.5176Q12.5195-10.8984 12.2852-11.1279Q12.0508-11.3574 11.6797-11.3574Q11.3281-11.3574 11.1035-11.1279Q10.8789-10.8984 10.8789-10.5176L10.8789-7.87109L8.23242-7.87109Q7.85156-7.87109 7.62207-7.6416Q7.39258-7.41211 7.39258-7.04102Z"
         id="path264" />
    </g>
    <g
       transform="matrix(1 0 0 1 305.646 1933)"
       id="g270">
      <path
         d="M14.9707 5.66406Q17.0605 5.66406 18.96 5.01465Q20.8594 4.36523 22.4512 3.19336Q24.043 2.02148 25.2197 0.429688Q26.3965-1.16211 27.0459-3.06641Q27.6953-4.9707 27.6953-7.05078Q27.6953-9.14062 27.0459-11.04Q26.3965-12.9395 25.2197-14.5312Q24.043-16.123 22.4512-17.2998Q20.8594-18.4766 18.9551-19.126Q17.0508-19.7754 14.9609-19.7754Q12.8711-19.7754 10.9717-19.126Q9.07227-18.4766 7.48535-17.2998Q5.89844-16.123 4.72168-14.5312Q3.54492-12.9395 2.90039-11.04Q2.25586-9.14062 2.25586-7.05078Q2.25586-4.9707 2.90527-3.06641Q3.55469-1.16211 4.72656 0.429688Q5.89844 2.02148 7.49023 3.19336Q9.08203 4.36523 10.9814 5.01465Q12.8809 5.66406 14.9707 5.66406ZM14.9707 3.84766Q13.1641 3.84766 11.5283 3.2959Q9.89258 2.74414 8.53516 1.74805Q7.17773 0.751953 6.17676-0.610352Q5.17578-1.97266 4.62891-3.6084Q4.08203-5.24414 4.08203-7.05078Q4.08203-8.86719 4.62891-10.5029Q5.17578-12.1387 6.17188-13.501Q7.16797-14.8633 8.52539-15.8594Q9.88281-16.8555 11.5186-17.4023Q13.1543-17.9492 14.9609-17.9492Q16.7773-17.9492 18.4131-17.4023Q20.0488-16.8555 21.4111-15.8594Q22.7734-14.8633 23.7695-13.501Q24.7656-12.1387 25.3174-10.5029Q25.8691-8.86719 25.8691-7.05078Q25.8789-5.24414 25.332-3.6084Q24.7852-1.97266 23.7842-0.610352Q22.7832 0.751953 21.4209 1.74805Q20.0586 2.74414 18.4229 3.2959Q16.7871 3.84766 14.9707 3.84766ZM9.45312-7.04102Q9.45312-6.66016 9.71191-6.41113Q9.9707-6.16211 10.3711-6.16211L14.0625-6.16211L14.0625-2.46094Q14.0625-2.06055 14.3115-1.80664Q14.5605-1.55273 14.9414-1.55273Q15.3516-1.55273 15.6055-1.80664Q15.8594-2.06055 15.8594-2.46094L15.8594-6.16211L19.5605-6.16211Q19.9609-6.16211 20.2148-6.41113Q20.4688-6.66016 20.4688-7.04102Q20.4688-7.45117 20.2148-7.70508Q19.9609-7.95898 19.5605-7.95898L15.8594-7.95898L15.8594-11.6504Q15.8594-12.0605 15.6055-12.3145Q15.3516-12.5684 14.9414-12.5684Q14.5605-12.5684 14.3115-12.3096Q14.0625-12.0508 14.0625-11.6504L14.0625-7.95898L10.3711-7.95898Q9.96094-7.95898 9.70703-7.70508Q9.45312-7.45117 9.45312-7.04102Z"
         id="path268" />
    </g>
    <text
       style="stroke:none;fill:black;font-family:SF Pro,SF Pro Display,SF Pro Text,sans-serif;font-size:13;font-weight:bold;"
       transform="matrix(1 0 0 1 263 1953)"
       id="text272">Design Variations</text>
    <text
       style="stroke:none;fill:black;font-family:SF Pro,SF Pro Display,SF Pro Text,sans-serif;font-size:13;"
       transform="matrix(1 0 0 1 263 1971)"
       id="text274">Symbols are supported in up to nine weights and three scales.</text>
    <text
       style="stroke:none;fill:black;font-family:SF Pro,SF Pro Display,SF Pro Text,sans-serif;font-size:13;"
       transform="matrix(1 0 0 1 263 1989)"
       id="text276">For optimal layout with text and other symbols, vertically align</text>
    <text
       style="stroke:none;fill:black;font-family:SF Pro,SF Pro Display,SF Pro Text,sans-serif;font-size:13;"
       transform="matrix(1 0 0 1 263 2007)"
       id="text278">symbols with the adjacent text.</text>
    <line
       style="fill:none;stroke:#00AEEF;stroke-width:0.5;opacity:1.0;"
       x1="776"
       x2="776"
       y1="1919"
       y2="1933"
       id="line280" />
    <g
       transform="matrix(1 0 0 1 776 1933)"
       id="g284">
      <path
         d="M3.31055 0.15625Q3.70117 0.15625 3.91602-0.00976562Q4.13086-0.175781 4.26758-0.585938L5.52734-4.0332L11.2891-4.0332L12.5488-0.585938Q12.6855-0.175781 12.9004-0.00976562Q13.1152 0.15625 13.4961 0.15625Q13.8867 0.15625 14.1162-0.0585938Q14.3457-0.273438 14.3457-0.644531Q14.3457-0.869141 14.2383-1.17188L9.6582-13.3691Q9.48242-13.8184 9.17969-14.043Q8.87695-14.2676 8.4082-14.2676Q7.5-14.2676 7.17773-13.3789L2.59766-1.16211Q2.49023-0.859375 2.49023-0.634766Q2.49023-0.263672 2.70996-0.0537109Q2.92969 0.15625 3.31055 0.15625ZM6.00586-5.51758L8.37891-12.0898L8.42773-12.0898L10.8008-5.51758Z"
         id="path282" />
    </g>
    <line
       style="fill:none;stroke:#00AEEF;stroke-width:0.5;opacity:1.0;"
       x1="793.197"
       x2="793.197"
       y1="1919"
       y2="1933"
       id="line286" />
    <text
       style="stroke:none;fill:black;font-family:SF Pro,SF Pro Display,SF Pro Text,sans-serif;font-size:13;font-weight:bold;"
       transform="matrix(1 0 0 1 776 1953)"
       id="text288">Margins</text>
    <text
       style="stroke:none;fill:black;font-family:SF Pro,SF Pro Display,SF Pro Text,sans-serif;font-size:13;"
       transform="matrix(1 0 0 1 776 1971)"
       id="text290">Leading and trailing margins on the left and right side of each symbol</text>
    <text
       style="stroke:none;fill:black;font-family:SF Pro,SF Pro Display,SF Pro Text,sans-serif;font-size:13;"
       transform="matrix(1 0 0 1 776 1989)"
       id="text292">can be adjusted by modifying the x-location of the margin guidelines.</text>
    <text
       style="stroke:none;fill:black;font-family:SF Pro,SF Pro Display,SF Pro Text,sans-serif;font-size:13;"
       transform="matrix(1 0 0 1 776 2007)"
       id="text294">Modifications are automatically applied proportionally to all</text>
    <text
       style="stroke:none;fill:black;font-family:SF Pro,SF Pro Display,SF Pro Text,sans-serif;font-size:13;"
       transform="matrix(1 0 0 1 776 2025)"
       id="text296">scales and weights.</text>
    <g
       transform="matrix(1 0 0 1 1289 1933)"
       id="g300">
      <path
         d="M2.8418 1.86523L4.54102 3.57422Q5.18555 4.22852 5.90332 4.17969Q6.62109 4.13086 7.31445 3.35938L18.0078-8.42773L17.041-9.4043L6.42578 2.27539Q6.16211 2.57812 5.89355 2.61719Q5.625 2.65625 5.27344 2.30469L4.10156 1.14258Q3.75 0.791016 3.79395 0.522461Q3.83789 0.253906 4.14062-0.0195312L15.6152-10.8203L14.6387-11.7871L3.04688-0.898438Q2.30469-0.214844 2.25098 0.498047Q2.19727 1.21094 2.8418 1.86523ZM9.25781-16.3281Q8.94531-16.0254 8.90625-15.6348Q8.86719-15.2441 9.04297-14.9512Q9.21875-14.6777 9.55566-14.541Q9.89258-14.4043 10.3809-14.5215Q11.4746-14.7754 12.5977-14.7314Q13.7207-14.6875 14.7949-13.9844L14.209-12.5293Q13.9551-11.9043 14.0674-11.4404Q14.1797-10.9766 14.5801-10.5664L16.875-8.25195Q17.2363-7.88086 17.5781-7.82227Q17.9199-7.76367 18.3398-7.8418L19.4043-8.03711L20.0684-7.36328L20.0293-6.80664Q20-6.43555 20.1221-6.12305Q20.2441-5.81055 20.6055-5.44922L21.3672-4.70703Q21.7285-4.3457 22.1533-4.33105Q22.5781-4.31641 22.9297-4.66797L25.8398-7.58789Q26.1914-7.93945 26.1816-8.35449Q26.1719-8.76953 25.8105-9.13086L25.0391-9.89258Q24.6875-10.2539 24.3799-10.3857Q24.0723-10.5176 23.7109-10.4883L23.1348-10.4395L22.4902-11.0742L22.7344-12.1973Q22.832-12.6172 22.6953-12.9834Q22.5586-13.3496 22.1191-13.7891L19.9219-15.9766Q18.6719-17.2168 17.2607-17.8369Q15.8496-18.457 14.4189-18.4814Q12.9883-18.5059 11.665-17.959Q10.3418-17.4121 9.25781-16.3281ZM10.752-15.957Q11.6602-16.6211 12.7002-16.9043Q13.7402-17.1875 14.8047-17.085Q15.8691-16.9824 16.8701-16.5137Q17.8711-16.0449 18.7012-15.2051L21.1328-12.793Q21.3086-12.6172 21.3525-12.4512Q21.3965-12.2852 21.3379-12.0312L21.0156-10.5469L22.5195-9.0625L23.5059-9.12109Q23.6914-9.13086 23.7891-9.09668Q23.8867-9.0625 24.0332-8.91602L24.6094-8.33984L22.168-5.89844L21.5918-6.47461Q21.4453-6.62109 21.4062-6.71875Q21.3672-6.81641 21.377-7.01172L21.4453-7.98828L19.9512-9.47266L18.4277-9.21875Q18.1836-9.16992 18.042-9.2041Q17.9004-9.23828 17.7148-9.41406L15.7129-11.416Q15.5176-11.5918 15.4932-11.7529Q15.4688-11.9141 15.5859-12.1875L16.4648-14.2773Q15.293-15.3711 13.8281-15.791Q12.3633-16.2109 10.8398-15.7617Q10.7227-15.7324 10.6885-15.8057Q10.6543-15.8789 10.752-15.957Z"
         id="path298" />
    </g>
    <text
       style="stroke:none;fill:black;font-family:SF Pro,SF Pro Display,SF Pro Text,sans-serif;font-size:13;font-weight:bold;"
       transform="matrix(1 0 0 1 1289 1953)"
       id="text302">Exporting</text>
    <text
       style="stroke:none;fill:black;font-family:SF Pro,SF Pro Display,SF Pro Text,sans-serif;font-size:13;"
       transform="matrix(1 0 0 1 1289 1971)"
       id="text304">Symbols should be outlined when exporting to ensure the</text>
    <text
       style="stroke:none;fill:black;font-family:SF Pro,SF Pro Display,SF Pro Text,sans-serif;font-size:13;"
       transform="matrix(1 0 0 1 1289 1989)"
       id="text306">design is preserved when submitting to Xcode.</text>
    <text
       id="template-version"
       style="stroke:none;fill:black;font-family:SF Pro,SF Pro Display,SF Pro Text,sans-serif;font-size:13;text-anchor:end;"
       transform="matrix(1 0 0 1 3036 1933)">Template v.3.0</text>
    <text
       style="stroke:none;fill:black;font-family:SF Pro,SF Pro Display,SF Pro Text,sans-serif;font-size:13;text-anchor:end;"
       transform="matrix(1 0 0 1 3036 1951)"
       id="text309">Requires Xcode 13 or greater</text>
    <text
       id="descriptive-name"
       style="stroke:none;fill:black;font-family:SF Pro,SF Pro Display,SF Pro Text,sans-serif;font-size:13;text-anchor:end;"
       transform="matrix(1 0 0 1 3036 1969)">Generated from custom.text.justify</text>
    <text
       style="stroke:none;fill:black;font-family:SF Pro,SF Pro Display,SF Pro Text,sans-serif;font-size:13;text-anchor:end;"
       transform="matrix(1 0 0 1 3036 1987)"
       id="text312">Typeset at 100 points</text>
    <text
       style="stroke:none;fill:black;font-family:SF Pro,SF Pro Display,SF Pro Text,sans-serif;font-size:13;"
       transform="matrix(1 0 0 1 263 726)"
       id="text314">Small</text>
    <text
       style="stroke:none;fill:black;font-family:SF Pro,SF Pro Display,SF Pro Text,sans-serif;font-size:13;"
       transform="matrix(1 0 0 1 263 1156)"
       id="text316">Medium</text>
    <text
       style="stroke:none;fill:black;font-family:SF Pro,SF Pro Display,SF Pro Text,sans-serif;font-size:13;"
       transform="matrix(1 0 0 1 263 1586)"
       id="text318">Large</text>
  </g>
  <g
     id="Guides">
    <g
       id="H-reference"
       style="fill:#27AAE1;stroke:none;"
       transform="matrix(1 0 0 1 339 696)">
      <path
         d="M0.976562 0L3.66211 0L29.3457-67.1387L30.0293-67.1387L30.0293-70.459L28.125-70.459ZM11.6699-24.4629L46.9727-24.4629L46.2402-26.709L12.4512-26.709ZM55.127 0L57.7637 0L30.6152-70.459L29.4434-70.459L29.4434-67.1387Z"
         id="path321" />
    </g>
    <line
       id="Baseline-S"
       style="fill:none;stroke:#27AAE1;opacity:1;stroke-width:0.5;"
       x1="263"
       x2="3036"
       y1="696"
       y2="696" />
    <line
       id="Capline-S"
       style="fill:none;stroke:#27AAE1;opacity:1;stroke-width:0.5;"
       x1="263"
       x2="3036"
       y1="625.541"
       y2="625.541" />
    <g
       id="g328"
       style="fill:#27AAE1;stroke:none;"
       transform="matrix(1 0 0 1 339 1126)">
      <path
         d="M0.976562 0L3.66211 0L29.3457-67.1387L30.0293-67.1387L30.0293-70.459L28.125-70.459ZM11.6699-24.4629L46.9727-24.4629L46.2402-26.709L12.4512-26.709ZM55.127 0L57.7637 0L30.6152-70.459L29.4434-70.459L29.4434-67.1387Z"
         id="path326" />
    </g>
    <line
       id="Baseline-M"
       style="fill:none;stroke:#27AAE1;opacity:1;stroke-width:0.5;"
       x1="263"
       x2="3036"
       y1="1126"
       y2="1126" />
    <line
       id="Capline-M"
       style="fill:none;stroke:#27AAE1;opacity:1;stroke-width:0.5;"
       x1="263"
       x2="3036"
       y1="1055.54"
       y2="1055.54" />
    <g
       id="g334"
       style="fill:#27AAE1;stroke:none;"
       transform="matrix(1 0 0 1 339 1556)">
      <path
         d="M0.976562 0L3.66211 0L29.3457-67.1387L30.0293-67.1387L30.0293-70.459L28.125-70.459ZM11.6699-24.4629L46.9727-24.4629L46.2402-26.709L12.4512-26.709ZM55.127 0L57.7637 0L30.6152-70.459L29.4434-70.459L29.4434-67.1387Z"
         id="path332" />
    </g>
    <line
       id="Baseline-L"
       style="fill:none;stroke:#27AAE1;opacity:1;stroke-width:0.5;"
       x1="263"
       x2="3036"
       y1="1556"
       y2="1556" />
    <line
       id="Capline-L"
       style="fill:none;stroke:#27AAE1;opacity:1;stroke-width:0.5;"
       x1="263"
       x2="3036"
       y1="1485.54"
       y2="1485.54" />
    <line
       id="left-margin-Regular-M"
       style="fill:none;stroke:#00AEEF;stroke-width:0.5;opacity:1.0;"
       x1="1387.89"
       x2="1387.89"
       y1="1030.78"
       y2="1150.12" />
    <line
       id="right-margin-Regular-M"
       style="fill:none;stroke:#00AEEF;stroke-width:0.5;opacity:1.0;"
       x1="1511.8"
       x2="1511.8"
       y1="1030.78"
       y2="1150.12" />
  </g>
  <g
     id="Black-L"
     transform="translate(2846.84,1556)">
    <path
       d="M 25.2135,-76.9477 H 147.862 q 3.711,0 6.236,-2.719 2.525,-2.7189 2.525,-6.291 0,-3.6887 -2.525,-6.3492 -2.525,-2.6606 -6.236,-2.6606 H 25.2135 q -3.6303,0 -6.174,2.6898 -2.5438,2.6898 -2.5438,6.32 0,3.4552 2.5438,6.2326 2.5437,2.7774 6.174,2.7774 z m 0,33.0539 H 147.862 q 3.711,0 6.236,-2.7294 2.525,-2.7294 2.525,-6.3013 0,-3.69 -2.525,-6.3506 -2.525,-2.6605 -6.236,-2.6605 H 25.2135 q -3.6303,0 -6.174,2.6897 -2.5438,2.6898 -2.5438,6.3214 0,3.4552 2.5438,6.2429 2.5437,2.7878 6.174,2.7878 z m 0,33.0914 H 147.862 q 3.711,0 6.236,-2.7293 2.525,-2.7293 2.525,-6.3012 0,-3.6888 -2.525,-6.35 -2.525,-2.6612 -6.236,-2.6612 H 25.2135 q -3.6303,0 -6.174,2.6904 -2.5438,2.6904 -2.5438,6.3208 0,3.4552 2.5438,6.2428 2.5437,2.7877 6.174,2.7877 z m 0,33.0332 H 147.862 q 3.711,0 6.236,-2.7189 2.525,-2.719 2.525,-6.3117 0,-3.68873 -2.525,-6.34988 -2.525,-2.66121 -6.236,-2.66121 H 25.2135 q -3.6303,0 -6.174,2.6904 -2.5438,2.69037 -2.5438,6.32069 0,3.4759 2.5438,6.2533 2.5437,2.7773 6.174,2.7773 z"
       id="path341" />
  </g>
  <g
     id="Heavy-L"
     transform="translate(2551.76,1556)">
    <path
       d="M 24.2003,-77.6943 H 145.6 q 3.294,0 5.532,-2.3792 2.238,-2.3791 2.238,-5.5486 0,-3.2587 -2.238,-5.5931 -2.238,-2.3346 -5.532,-2.3346 H 24.2003 q -3.214,0 -5.4592,2.3569 -2.2454,2.3568 -2.2454,5.5708 0,3.0802 2.2454,5.504 2.2452,2.4238 5.4592,2.4238 z m 0,33.0587 H 145.6 q 3.294,0 5.532,-2.3941 2.238,-2.3941 2.238,-5.5635 0,-3.2647 -2.238,-5.5993 -2.238,-2.3345 -5.532,-2.3345 H 24.2003 q -3.214,0 -5.4592,2.3568 -2.2454,2.3569 -2.2454,5.577 0,3.0802 2.2454,5.5189 2.2452,2.4387 5.4592,2.4387 z m 0,33.0734 H 145.6 q 3.294,0 5.532,-2.3941 2.238,-2.394 2.238,-5.5634 0,-3.2587 -2.238,-5.5963 -2.238,-2.3375 -5.532,-2.3375 H 24.2003 q -3.214,0 -5.4592,2.3598 -2.2454,2.3599 -2.2454,5.574 0,3.0803 2.2454,5.5189 2.2452,2.4386 5.4592,2.4386 z m 0,33.0289 H 145.6 q 3.294,0 5.532,-2.3792 2.238,-2.3791 2.238,-5.5783 0,-3.2587 -2.238,-5.59625 Q 148.894,5.57538 145.6,5.57538 H 24.2003 q -3.214,0 -5.4592,2.35987 -2.2454,2.35985 -2.2454,5.57395 0,3.1099 2.2454,5.5337 2.2452,2.4238 5.4592,2.4238 z"
       id="path344" />
  </g>
  <g
     id="Bold-L"
     transform="translate(2257,1556)">
    <path
       d="M 22.9374,-78.656 H 142.942 q 2.777,0 4.653,-1.9602 1.877,-1.9602 1.877,-4.6276 0,-2.7258 -1.877,-4.6567 -1.876,-1.9311 -4.653,-1.9311 H 22.9374 q -2.6965,0 -4.569,1.9457 -1.8727,1.9456 -1.8727,4.6421 0,2.609 1.8727,4.5984 1.8725,1.9894 4.569,1.9894 z m 0,33.0668 H 142.942 q 2.777,0 4.653,-1.9787 1.877,-1.9787 1.877,-4.6461 0,-2.7399 -1.877,-4.671 -1.876,-1.9309 -4.653,-1.9309 H 22.9374 q -2.6965,0 -4.569,1.9455 -1.8727,1.9456 -1.8727,4.6564 0,2.609 1.8727,4.6169 1.8725,2.0079 4.569,2.0079 z m 0,33.059 H 142.942 q 2.777,0 4.653,-1.9787 1.877,-1.9787 1.877,-4.646 0,-2.7258 -1.877,-4.6639 -1.876,-1.9381 -4.653,-1.9381 H 22.9374 q -2.6965,0 -4.569,1.9527 -1.8727,1.9527 -1.8727,4.6493 0,2.609 1.8727,4.6168 1.8725,2.0079 4.569,2.0079 z m 0,33.0298 H 142.942 q 2.777,0 4.653,-1.9602 1.877,-1.9602 1.877,-4.6645 0,-2.7258 -1.877,-4.66388 Q 145.719,7.2729 142.942,7.2729 H 22.9374 q -2.6965,0 -4.569,1.95271 -1.8727,1.95269 -1.8727,4.64929 0,2.6459 1.8727,4.6353 1.8725,1.9894 4.569,1.9894 z"
       id="path347" />
  </g>
  <g
     id="Semibold-L"
     transform="translate(1961.63,1556)">
    <path
       d="M 22.0668,-79.319 H 141.11 q 2.42,0 4.047,-1.6714 1.628,-1.6714 1.628,-3.9927 0,-2.3583 -1.628,-4.0111 -1.627,-1.6528 -4.047,-1.6528 H 22.0668 q -2.3398,0 -3.9554,1.6621 -1.6157,1.6621 -1.6157,4.0018 0,2.2842 1.6157,3.9741 1.6156,1.69 3.9554,1.69 z m 0,33.0725 H 141.11 q 2.42,0 4.047,-1.6924 1.628,-1.6924 1.628,-4.0137 0,-2.3782 -1.628,-4.031 -1.627,-1.6528 -4.047,-1.6528 H 22.0668 q -2.3398,0 -3.9554,1.6621 -1.6157,1.6621 -1.6157,4.0217 0,2.2841 1.6157,3.9951 1.6156,1.711 3.9554,1.711 z m 0,33.049 H 141.11 q 2.42,0 4.047,-1.6924 1.628,-1.6923 1.628,-4.0136 0,-2.3584 -1.628,-4.0211 -1.627,-1.6627 -4.047,-1.6627 H 22.0668 q -2.3398,0 -3.9554,1.672 -1.6157,1.672 -1.6157,4.0118 0,2.2842 1.6157,3.995 1.6156,1.711 3.9554,1.711 z m 0,33.0305 H 141.11 q 2.42,0 4.047,-1.6714 1.628,-1.6714 1.628,-4.0346 0,-2.3584 -1.628,-4.0211 Q 143.53,8.44316 141.11,8.44316 H 22.0668 q -2.3398,0 -3.9554,1.67204 -1.6157,1.672 -1.6157,4.0118 0,2.3261 1.6157,4.016 1.6156,1.69 3.9554,1.69 z"
       id="path350" />
  </g>
  <g
     id="Medium-L"
     transform="translate(1665.94,1556)">
    <path
       d="M 21.4067,-79.8217 H 139.72 q 2.15,0 3.588,-1.4525 1.439,-1.4523 1.439,-3.5111 0,-2.0798 -1.439,-3.5216 -1.438,-1.442 -3.588,-1.442 H 21.4067 q -2.0693,0 -3.4901,1.4472 -1.4209,1.4471 -1.4209,3.5164 0,2.0377 1.4209,3.5006 1.4208,1.463 3.4901,1.463 z m 0,33.0767 H 139.72 q 2.15,0 3.588,-1.4753 1.439,-1.4753 1.439,-3.5341 0,-2.1038 -1.439,-3.5458 -1.438,-1.4418 -3.588,-1.4418 H 21.4067 q -2.0693,0 -3.4901,1.4471 -1.4209,1.4472 -1.4209,3.5405 0,2.0378 1.4209,3.5236 1.4208,1.4858 3.4901,1.4858 z m 0,33.0415 H 139.72 q 2.15,0 3.588,-1.4753 1.439,-1.4752 1.439,-3.534 0,-2.0798 -1.439,-3.5338 -1.438,-1.4539 -3.588,-1.4539 H 21.4067 q -2.0693,0 -3.4901,1.4592 -1.4209,1.4592 -1.4209,3.5285 0,2.0378 1.4209,3.5235 1.4208,1.4858 3.4901,1.4858 z m 0,33.031 H 139.72 q 2.15,0 3.588,-1.4524 1.439,-1.4524 1.439,-3.5569 0,-2.0798 -1.439,-3.5338 Q 141.87,9.3305 139.72,9.3305 H 21.4067 q -2.0693,0 -3.4901,1.4592 -1.4209,1.4592 -1.4209,3.5285 0,2.0835 1.4209,3.5464 1.4208,1.4629 3.4901,1.4629 z"
       id="path353" />
  </g>
  <g
     id="Regular-L"
     transform="translate(1370.55,1556)">
    <path
       d="M 20.5456,-80.4775 H 137.908 q 1.797,0 2.989,-1.1668 1.192,-1.1666 1.192,-2.8831 0,-1.7165 -1.192,-2.8831 -1.192,-1.1668 -2.989,-1.1668 H 20.5456 q -1.7164,0 -2.8831,1.1668 -1.1668,1.1666 -1.1668,2.8831 0,1.7165 1.1668,2.8831 1.1667,1.1668 2.8831,1.1668 z m 0,33.0823 H 137.908 q 1.797,0 2.989,-1.192 1.192,-1.1921 1.192,-2.9086 0,-1.7461 -1.192,-2.9129 -1.192,-1.1666 -2.989,-1.1666 H 20.5456 q -1.7164,0 -2.8831,1.1666 -1.1668,1.1668 -1.1668,2.9129 0,1.7165 1.1668,2.9086 1.1667,1.192 2.8831,1.192 z m 0,33.0317 H 137.908 q 1.797,0 2.989,-1.1921 1.192,-1.192 1.192,-2.9085 0,-1.7165 -1.192,-2.8981 -1.192,-1.1815 -2.989,-1.1815 H 20.5456 q -1.7164,0 -2.8831,1.1815 -1.1668,1.1816 -1.1668,2.8981 0,1.7165 1.1668,2.9085 1.1667,1.1921 2.8831,1.1921 z m 0,33.0316 H 137.908 q 1.797,0 2.989,-1.1667 1.192,-1.1667 1.192,-2.9339 0,-1.7164 -1.192,-2.898 -1.192,-1.1816 -2.989,-1.1816 H 20.5456 q -1.7164,0 -2.8831,1.1816 -1.1668,1.1816 -1.1668,2.898 0,1.7672 1.1668,2.9339 1.1667,1.1667 2.8831,1.1667 z"
       id="path356" />
  </g>
  <g
     id="Light-L"
     transform="translate(1074.76,1556)">
    <path
       d="M 19.6221,-81.3804 H 137.005 q 1.428,0 2.332,-0.8898 0.905,-0.8896 0.905,-2.2367 0,-1.347 -0.905,-2.2367 -0.904,-0.8897 -2.332,-0.8897 H 19.6221 q -1.347,0 -2.2367,0.8897 -0.8897,0.8897 -0.8897,2.2367 0,1.3471 0.8897,2.2367 0.8897,0.8898 2.2367,0.8898 z m 0,33.1028 H 137.005 q 1.428,0 2.332,-0.9047 0.905,-0.9048 0.905,-2.2519 0,-1.3973 -0.905,-2.287 -0.904,-0.8896 -2.332,-0.8896 H 19.6221 q -1.347,0 -2.2367,0.8896 -0.8897,0.8897 -0.8897,2.287 0,1.3471 0.8897,2.2519 0.8897,0.9047 2.2367,0.9047 z m 0,33.0726 H 137.005 q 1.428,0 2.332,-0.9047 0.905,-0.9047 0.905,-2.2518 0,-1.3471 -0.905,-2.2618 -0.904,-0.9148 -2.332,-0.9148 H 19.6221 q -1.347,0 -2.2367,0.9148 -0.8897,0.9147 -0.8897,2.2618 0,1.3471 0.8897,2.2518 0.8897,0.9047 2.2367,0.9047 z m 0,33.0728 H 137.005 q 1.428,0 2.332,-0.8897 0.905,-0.8897 0.905,-2.2669 0,-1.3471 -0.905,-2.2619 -0.904,-0.9148 -2.332,-0.9148 H 19.6221 q -1.347,0 -2.2367,0.9148 -0.8897,0.9148 -0.8897,2.2619 0,1.3772 0.8897,2.2669 0.8897,0.8897 2.2367,0.8897 z"
       id="path359" />
  </g>
  <g
     id="Thin-L"
     transform="translate(779.274,1556)">
    <path
       d="M 18.4007,-82.5746 H 135.811 q 0.939,0 1.464,-0.5234 0.524,-0.5233 0.524,-1.3818 0,-0.8584 -0.524,-1.3817 -0.525,-0.5233 -1.464,-0.5233 H 18.4007 q -0.8584,0 -1.3817,0.5233 -0.5233,0.5233 -0.5233,1.3817 0,0.8585 0.5233,1.3818 0.5233,0.5234 1.3817,0.5234 z m 0,33.1298 H 135.811 q 0.939,0 1.464,-0.5246 0.524,-0.5249 0.524,-1.3834 0,-0.9359 -0.524,-1.4592 -0.525,-0.5232 -1.464,-0.5232 H 18.4007 q -0.8584,0 -1.3817,0.5232 -0.5233,0.5233 -0.5233,1.4592 0,0.8585 0.5233,1.3834 0.5233,0.5246 1.3817,0.5246 z m 0,33.127 H 135.811 q 0.939,0 1.464,-0.5247 0.524,-0.5248 0.524,-1.3833 0,-0.8586 -0.524,-1.4204 -0.525,-0.562 -1.464,-0.562 H 18.4007 q -0.8584,0 -1.3817,0.562 -0.5233,0.5618 -0.5233,1.4204 0,0.8585 0.5233,1.3833 0.5233,0.5247 1.3817,0.5247 z m 0,33.127 H 135.811 q 0.939,0 1.464,-0.5232 0.524,-0.5233 0.524,-1.3848 0,-0.8585 -0.524,-1.4205 -0.525,-0.5619 -1.464,-0.5619 H 18.4007 q -0.8584,0 -1.3817,0.5619 -0.5233,0.562 -0.5233,1.4205 0,0.8615 0.5233,1.3848 0.5233,0.5232 1.3817,0.5232 z"
       id="path362" />
  </g>
  <g
     id="Ultralight-L"
     transform="translate(483.189,1556)">
    <path
       d="M 17.7751,-83.1863 H 135.199 q 0.689,0 1.019,-0.3356 0.33,-0.3357 0.33,-0.944 0,-0.6081 -0.33,-0.9438 -0.33,-0.3356 -1.019,-0.3356 H 17.7751 q -0.6081,0 -0.9438,0.3356 -0.3356,0.3357 -0.3356,0.9438 0,0.6083 0.3356,0.944 0.3357,0.3356 0.9438,0.3356 z m 0,33.1437 H 135.199 q 0.689,0 1.019,-0.33 0.33,-0.3302 0.33,-0.9385 0,-0.6996 -0.33,-1.0352 -0.33,-0.3355 -1.019,-0.3355 H 17.7751 q -0.6081,0 -0.9438,0.3355 -0.3356,0.3356 -0.3356,1.0352 0,0.6083 0.3356,0.9385 0.3357,0.33 0.9438,0.33 z m 0,33.1548 H 135.199 q 0.689,0 1.019,-0.33 0.33,-0.3302 0.33,-0.9385 0,-0.6083 -0.33,-0.9894 -0.33,-0.3813 -1.019,-0.3813 H 17.7751 q -0.6081,0 -0.9438,0.3813 -0.3356,0.3811 -0.3356,0.9894 0,0.6083 0.3356,0.9385 0.3357,0.33 0.9438,0.33 z m 0,33.1548 H 135.199 q 0.689,0 1.019,-0.3355 0.33,-0.3356 0.33,-0.933 0,-0.6083 -0.33,-0.9895 -0.33,-0.3812 -1.019,-0.3812 H 17.7751 q -0.6081,0 -0.9438,0.3812 -0.3356,0.3812 -0.3356,0.9895 0,0.5974 0.3356,0.933 0.3357,0.3355 0.9438,0.3355 z"
       id="path365" />
  </g>
  <g
     id="Black-M"
     transform="translate(2865.07,1126)">
    <path
       d="m 20.2796,-67.0312 h 96.0984 q 3.182,0 5.346,-2.361 2.164,-2.361 2.164,-5.4243 0,-3.1774 -2.164,-5.4812 -2.164,-2.3039 -5.346,-2.3039 H 20.2796 q -3.1203,0 -5.3099,2.3325 -2.1898,2.3324 -2.1898,5.4526 0,2.9491 2.1898,5.3672 2.1896,2.4181 5.3099,2.4181 z m 0,25.6069 h 96.0984 q 3.182,0 5.346,-2.3638 2.164,-2.3637 2.164,-5.4269 0,-3.1771 -2.164,-5.481 -2.164,-2.3039 -5.346,-2.3039 H 20.2796 q -3.1203,0 -5.3099,2.3324 -2.1898,2.3324 -2.1898,5.4525 0,2.9491 2.1898,5.3698 2.1896,2.4209 5.3099,2.4209 z m 0,25.6584 h 96.0984 q 3.182,0 5.346,-2.3637 2.164,-2.3637 2.164,-5.4269 0,-3.1774 -2.164,-5.4812 -2.164,-2.3037 -5.346,-2.3037 H 20.2796 q -3.1203,0 -5.3099,2.3323 -2.1898,2.3323 -2.1898,5.4526 0,2.9491 2.1898,5.3699 2.1896,2.4207 5.3099,2.4207 z m 0,25.6015 h 96.0984 q 3.182,0 5.346,-2.36098 2.164,-2.36097 2.164,-5.42972 0,-3.17742 -2.164,-5.48111 -2.164,-2.30375 -5.346,-2.30375 H 20.2796 q -3.1203,0 -5.3099,2.33229 -2.1898,2.33225 -2.1898,5.45257 0,2.95455 2.1898,5.37263 2.1896,2.41807 5.3099,2.41807 z"
       id="path368" />
  </g>
  <g
     id="Heavy-M"
     transform="translate(2569.86,1126)">
    <path
       d="m 19.3743,-67.6777 h 94.8747 q 2.81,0 4.719,-2.0544 1.91,-2.0543 1.91,-4.7582 0,-2.7911 -1.91,-4.8017 -1.909,-2.0108 -4.719,-2.0108 H 19.3743 q -2.7473,0 -4.6708,2.0326 -1.9236,2.0325 -1.9236,4.7799 0,2.6166 1.9236,4.7146 1.9235,2.098 4.6708,2.098 z m 0,25.6097 h 94.8747 q 2.81,0 4.719,-2.0626 1.91,-2.0625 1.91,-4.7663 0,-2.7934 -1.91,-4.8042 -1.909,-2.0108 -4.719,-2.0108 H 19.3743 q -2.7473,0 -4.6708,2.0326 -1.9236,2.0326 -1.9236,4.7824 0,2.6166 1.9236,4.7227 1.9235,2.1062 4.6708,2.1062 z m 0,25.637 h 94.8747 q 2.81,0 4.719,-2.0625 1.91,-2.0625 1.91,-4.7663 0,-2.791 -1.91,-4.803 -1.909,-2.012 -4.719,-2.012 H 19.3743 q -2.7473,0 -4.6708,2.0338 -1.9236,2.0338 -1.9236,4.7812 0,2.6166 1.9236,4.7227 1.9235,2.1061 4.6708,2.1061 z m 0,25.59344 h 94.8747 q 2.81,0 4.719,-2.05437 1.91,-2.05437 1.91,-4.77443 0,-2.791058 -1.91,-4.803 -1.909,-2.01198 -4.719,-2.01198 H 19.3743 q -2.7473,0 -4.6708,2.03378 -1.9236,2.033765 -1.9236,4.7812 0,2.63282 1.9236,4.73081 1.9235,2.09799 4.6708,2.09799 z"
       id="path371" />
  </g>
  <g
     id="Bold-M"
     transform="translate(2274.83,1126)">
    <path
       d="m 18.3617,-68.4009 h 93.5063 q 2.392,0 4.018,-1.7114 1.625,-1.7114 1.625,-4.0132 0,-2.3588 -1.625,-4.0416 -1.626,-1.6829 -4.018,-1.6829 H 18.3617 q -2.3303,0 -3.956,1.6972 -1.6258,1.697 -1.6258,4.0273 0,2.2447 1.6258,3.9847 1.6257,1.7399 3.956,1.7399 z m 0,25.6128 h 93.5063 q 2.392,0 4.018,-1.7256 1.625,-1.7255 1.625,-4.0273 0,-2.3643 -1.625,-4.0472 -1.626,-1.6828 -4.018,-1.6828 H 18.3617 q -2.3303,0 -3.956,1.6971 -1.6258,1.6971 -1.6258,4.0329 0,2.2447 1.6258,3.9988 1.6257,1.7541 3.956,1.7541 z m 0,25.613 h 93.5063 q 2.392,0 4.018,-1.7255 1.625,-1.7255 1.625,-4.0272 0,-2.3589 -1.625,-4.0445 -1.626,-1.6856 -4.018,-1.6856 H 18.3617 q -2.3303,0 -3.956,1.6998 -1.6258,1.6999 -1.6258,4.0303 0,2.2447 1.6258,3.9986 1.6257,1.7541 3.956,1.7541 z m 0,25.58451 h 93.5063 q 2.392,0 4.018,-1.71138 1.625,-1.71138 1.625,-4.04139 0,-2.358865 -1.625,-4.04444 -1.626,-1.6856 -4.018,-1.6856 H 18.3617 q -2.3303,0 -3.956,1.69987 -1.6258,1.699855 -1.6258,4.03017 0,2.27291 1.6258,4.01284 1.6257,1.73993 3.956,1.73993 z"
       id="path374" />
  </g>
  <g
     id="Semibold-M"
     transform="translate(1979.28,1126)">
    <path
       d="m 17.6636,-68.8995 h 92.5624 q 2.105,0 3.535,-1.4749 1.429,-1.4749 1.429,-3.4995 0,-2.061 -1.429,-3.5177 -1.43,-1.4568 -3.535,-1.4568 H 17.6636 q -2.0428,0 -3.4632,1.4659 -1.4205,1.4658 -1.4205,3.5086 0,1.9883 1.4205,3.4813 1.4204,1.4931 3.4632,1.4931 z m 0,25.6149 h 92.5624 q 2.105,0 3.535,-1.4932 1.429,-1.4932 1.429,-3.5178 0,-2.0685 -1.429,-3.5253 -1.43,-1.4567 -3.535,-1.4567 H 17.6636 q -2.0428,0 -3.4632,1.4658 -1.4205,1.4659 -1.4205,3.5162 0,1.9883 1.4205,3.4997 1.4204,1.5113 3.4632,1.5113 z m 0,25.5965 h 92.5624 q 2.105,0 3.535,-1.4932 1.429,-1.4931 1.429,-3.5177 0,-2.061 -1.429,-3.5216 -1.43,-1.4605 -3.535,-1.4605 H 17.6636 q -2.0428,0 -3.4632,1.4696 -1.4205,1.4697 -1.4205,3.5125 0,1.9883 1.4205,3.4996 1.4204,1.5113 3.4632,1.5113 z m 0,25.57838 h 92.5624 q 2.105,0 3.535,-1.47493 1.429,-1.47493 1.429,-3.53603 0,-2.060919 -1.429,-3.521496 -1.43,-1.460594 -3.535,-1.460594 H 17.6636 q -2.0428,0 -3.4632,1.469667 -1.4205,1.469662 -1.4205,3.512423 0,2.02479 1.4205,3.51787 1.4204,1.49309 3.4632,1.49309 z"
       id="path377" />
  </g>
  <g
     id="Medium-M"
     transform="translate(1683.45,1126)">
    <path
       d="m 17.1342,-69.2775 h 91.8468 q 1.887,0 3.168,-1.2957 1.281,-1.2956 1.281,-3.11 0,-1.835 -1.281,-3.1203 -1.281,-1.2854 -3.168,-1.2854 H 17.1342 q -1.8247,0 -3.0894,1.2905 -1.2649,1.2905 -1.2649,3.1152 0,1.7939 1.2649,3.0998 1.2647,1.3059 3.0894,1.3059 z m 0,25.6165 h 91.8468 q 1.887,0 3.168,-1.317 1.281,-1.3171 1.281,-3.1316 0,-1.8441 -1.281,-3.1295 -1.281,-1.2853 -3.168,-1.2853 H 17.1342 q -1.8247,0 -3.0894,1.2904 -1.2649,1.2905 -1.2649,3.1244 0,1.7939 1.2649,3.1213 1.2647,1.3273 3.0894,1.3273 z m 0,25.5839 h 91.8468 q 1.887,0 3.168,-1.317 1.281,-1.317 1.281,-3.1314 0,-1.835 -1.281,-3.125 -1.281,-1.29 -3.168,-1.29 H 17.1342 q -1.8247,0 -3.0894,1.2951 -1.2649,1.2951 -1.2649,3.1199 0,1.7939 1.2649,3.1211 1.2647,1.3273 3.0894,1.3273 z m 0,25.57375 h 91.8468 q 1.887,0 3.168,-1.29564 1.281,-1.29564 1.281,-3.15285 0,-1.835 -1.281,-3.1249747 Q 110.868,-1.3668 108.981,-1.3668 H 17.1342 q -1.8247,0 -3.0894,1.295121 -1.2649,1.295119 -1.2649,3.119839 0,1.83666 1.2649,3.14257 1.2647,1.30592 3.0894,1.30592 z"
       id="path380" />
  </g>
  <g
     id="Regular-M"
     transform="translate(1387.89,1126)">
    <path
       d="m 16.4438,-69.7706 h 90.9142 c 1.068,0 1.96467,-0.353933 2.69,-1.0618 0.72467,-0.7078 1.087,-1.575167 1.087,-2.6021 0,-1.026867 -0.36233,-1.8942 -1.087,-2.602 -0.72533,-0.707933 -1.622,-1.0619 -2.69,-1.0619 H 16.4438 c -1.026867,0 -1.894233,0.353967 -2.6021,1.0619 -0.707867,0.7078 -1.0618,1.575133 -1.0618,2.602 0,1.026933 0.353933,1.8943 1.0618,2.6021 0.707867,0.707867 1.575233,1.0618 2.6021,1.0618 z m 0,41.1862 h 90.9142 c 1.068,0 1.96467,-0.362433 2.69,-1.0873 0.72467,-0.7248 1.087,-1.600633 1.087,-2.6275 0,-1.026867 -0.36233,-1.896133 -1.087,-2.6078 -0.72533,-0.7116 -1.622,-1.0674 -2.69,-1.0674 H 16.4438 c -1.026867,0 -1.894233,0.3558 -2.6021,1.0674 -0.707867,0.711667 -1.0618,1.580933 -1.0618,2.6078 0,1.026867 0.353933,1.9027 1.0618,2.6275 0.707867,0.724867 1.575233,1.0873 2.6021,1.0873 z m 0,35.56762 h 90.9142 c 1.068,0 1.96467,-0.3539267 2.69,-1.06178 0.72467,-0.70786 1.087,-1.5922133 1.087,-2.65306 0,-1.0268733 -0.36233,-1.896129 -1.087,-2.607767 -0.72533,-0.711636 -1.622,-1.067454 -2.69,-1.067454 H 16.4438 c -1.026867,0 -1.894233,0.355818 -2.6021,1.067454 -0.707867,0.711638 -1.0618,1.5808937 -1.0618,2.607767 0,1.0608467 0.353933,1.9452 1.0618,2.65306 0.707867,0.7078533 1.575233,1.06178 2.6021,1.06178 z"
       id="path383"
       sodipodi:nodetypes="sscscsssssssscscsssssssscscssssss" />
  </g>
  <g
     id="Light-M"
     transform="translate(1092,1126)">
    <path
       d="m 15.6158,-70.5801 h 90.9322 q 1.272,0 2.101,-0.8135 0.83,-0.8133 0.83,-2.0225 0,-1.2091 -0.83,-2.0225 -0.829,-0.8134 -2.101,-0.8134 H 15.6158 q -1.2091,0 -2.0224,0.8134 -0.8135,0.8134 -0.8135,2.0225 0,1.2092 0.8135,2.0225 0.8133,0.8135 2.0224,0.8135 z m 0,25.6369 h 90.9322 q 1.272,0 2.101,-0.8296 0.83,-0.8297 0.83,-2.0389 0,-1.2388 -0.83,-2.0523 -0.829,-0.8133 -2.101,-0.8133 H 15.6158 q -1.2091,0 -2.0224,0.8133 -0.8135,0.8135 -0.8135,2.0523 0,1.2092 0.8135,2.0389 0.8133,0.8296 2.0224,0.8296 z m 0,25.6044 h 90.9322 q 1.272,0 2.101,-0.8296 0.83,-0.8297 0.83,-2.0388 0,-1.2092 -0.83,-2.0374 -0.829,-0.8283 -2.101,-0.8283 H 15.6158 q -1.2091,0 -2.0224,0.8283 -0.8135,0.8282 -0.8135,2.0374 0,1.2091 0.8135,2.0388 0.8133,0.8296 2.0224,0.8296 z m 0,25.60446 h 90.9322 q 1.272,0 2.101,-0.8134 0.83,-0.8134 0.83,-2.05508 0,-1.20914 -0.83,-2.0374 -0.829,-0.82827 -2.101,-0.82827 H 15.6158 q -1.2091,0 -2.0224,0.82827 -0.8135,0.82826 -0.8135,2.0374 0,1.24168 0.8135,2.05508 0.8133,0.8134 2.0224,0.8134 z"
       id="path386" />
  </g>
  <g
     id="Thin-M"
     transform="translate(796.388,1126)">
    <path
       d="m 14.5208,-71.6508 h 90.9562 q 0.834,0 1.323,-0.4849 0.489,-0.4849 0.489,-1.2561 0,-0.771 -0.489,-1.2559 -0.489,-0.4849 -1.323,-0.4849 H 14.5208 q -0.7711,0 -1.256,0.4849 -0.4849,0.4849 -0.4849,1.2559 0,0.7712 0.4849,1.2561 0.4849,0.4849 1.256,0.4849 z m 0,25.6612 h 90.9562 q 0.834,0 1.323,-0.4889 0.489,-0.489 0.489,-1.2602 0,-0.8252 -0.489,-1.3101 -0.489,-0.4848 -1.323,-0.4848 H 14.5208 q -0.7711,0 -1.256,0.4848 -0.4849,0.4849 -0.4849,1.3101 0,0.7712 0.4849,1.2602 0.4849,0.4889 1.256,0.4889 z m 0,25.6531 h 90.9562 q 0.834,0 1.323,-0.4889 0.489,-0.489 0.489,-1.2602 0,-0.7711 -0.489,-1.283 -0.489,-0.5119 -1.323,-0.5119 H 14.5208 q -0.7711,0 -1.256,0.5119 -0.4849,0.5119 -0.4849,1.283 0,0.7712 0.4849,1.2602 0.4849,0.4889 1.256,0.4889 z m 0,25.65312 h 90.9562 q 0.834,0 1.323,-0.48488 0.489,-0.48489 0.489,-1.26423 0,-0.77112 -0.489,-1.28304 -0.489,-0.51191 -1.323,-0.51191 H 14.5208 q -0.7711,0 -1.256,0.51191 -0.4849,0.51192 -0.4849,1.28304 0,0.77934 0.4849,1.26423 0.4849,0.48488 1.256,0.48488 z"
       id="path389" />
  </g>
  <g
     id="Ultralight-M"
     transform="translate(500.237,1126)">
    <path
       d="m 13.9599,-72.1992 h 90.9691 q 0.609,0 0.924,-0.3167 0.314,-0.3166 0.314,-0.8634 0,-0.5467 -0.314,-0.8633 -0.315,-0.3167 -0.924,-0.3167 H 13.9599 q -0.5467,0 -0.8633,0.3167 -0.3167,0.3166 -0.3167,0.8633 0,0.5468 0.3167,0.8634 0.3166,0.3167 0.8633,0.3167 z m 0,25.6737 h 90.9691 q 0.609,0 0.924,-0.3145 0.314,-0.3145 0.314,-0.8613 0,-0.6133 -0.314,-0.93 -0.315,-0.3165 -0.924,-0.3165 H 13.9599 q -0.5467,0 -0.8633,0.3165 -0.3167,0.3167 -0.3167,0.93 0,0.5468 0.3167,0.8613 0.3166,0.3145 0.8633,0.3145 z m 0,25.678 h 90.9691 q 0.609,0 0.924,-0.3144 0.314,-0.3146 0.314,-0.8614 0,-0.5468 -0.314,-0.8965 -0.315,-0.35 -0.924,-0.35 H 13.9599 q -0.5467,0 -0.8633,0.35 -0.3167,0.3497 -0.3167,0.8965 0,0.5468 0.3167,0.8614 0.3166,0.3144 0.8633,0.3144 z m 0,25.67803 h 90.9691 q 0.609,0 0.924,-0.31662 0.314,-0.31662 0.314,-0.85915 0,-0.54677 -0.314,-0.89666 -0.315,-0.34989 -0.924,-0.34989 H 13.9599 q -0.5467,0 -0.8633,0.34989 -0.3167,0.34989 -0.3167,0.89666 0,0.54253 0.3167,0.85915 0.3166,0.31662 0.8633,0.31662 z"
       id="path392" />
  </g>
  <g
     id="Black-S"
     transform="translate(2879.44,696)">
    <path
       d="m 16.1191,-60.0039 h 75.6836 c 1.725267,0 3.173833,-0.6429 4.3457,-1.9287 1.171867,-1.2858 1.7578,-2.7588 1.7578,-4.419 0,-1.725267 -0.585933,-3.2145 -1.7578,-4.4677 -1.171867,-1.253267 -2.620433,-1.8799 -4.3457,-1.8799 H 16.1191 c -1.692667,0 -3.133067,0.634767 -4.3212,1.9043 -1.1882,1.269533 -1.7823,2.750633 -1.7823,4.4433 0,1.595067 0.5941,3.0518 1.7823,4.3702 1.188133,1.318333 2.628533,1.9775 4.3212,1.9775 z m 0,30.1855 h 75.6836 c 1.725267,0 3.173833,-0.6429 4.3457,-1.9287 1.171867,-1.2858 1.7578,-2.758767 1.7578,-4.4189 0,-1.725267 -0.585933,-3.214533 -1.7578,-4.4678 -1.171867,-1.253267 -2.620433,-1.8799 -4.3457,-1.8799 H 16.1191 c -1.692667,0 -3.133067,0.634767 -4.3212,1.9043 -1.1882,1.269533 -1.7823,2.750667 -1.7823,4.4434 0,1.595067 0.5941,3.051767 1.7823,4.3701 1.188133,1.318333 2.628533,1.9775 4.3212,1.9775 z m 0,30.0684 h 75.6836 c 1.725267,0 3.173833,-0.64290333 4.3457,-1.92871 1.171867,-1.2858067 1.7578,-2.75879 1.7578,-4.41895 0,-1.72526 -0.585933,-3.2145067 -1.7578,-4.46774 -1.171867,-1.253267 -2.620433,-1.8799 -4.3457,-1.8799 H 16.1191 c -1.692667,0 -3.133067,0.634767 -4.3212,1.9043 -1.1882,1.26952 -1.7823,2.7506333 -1.7823,4.44334 0,1.5950533 0.5941,3.05176 1.7823,4.37012 1.188133,1.31836 2.628533,1.97754 4.3212,1.97754 z"
       id="path395"
       sodipodi:nodetypes="sssssssssssssssssssssssssssssssss" />
  </g>
  <g
     id="Heavy-S"
     transform="translate(2583.91,696)">
    <path
       d="m 15.4507,-60.4534 h 74.6349 c 1.540867,0 2.835767,-0.566067 3.8847,-1.6982 1.048933,-1.132133 1.5734,-2.439933 1.5734,-3.9234 0,-1.5332 -0.524467,-2.8534 -1.5734,-3.9606 -1.048933,-1.107333 -2.343833,-1.661 -3.8847,-1.661 H 15.4507 c -1.508267,0 -2.791167,0.559867 -3.8487,1.6796 -1.0576,1.119733 -1.5864,2.433733 -1.5864,3.942 0,1.433733 0.5288,2.7291 1.5864,3.8861 1.057533,1.157 2.340433,1.7355 3.8487,1.7355 z m 0,30.1625 h 74.6349 c 1.540867,0 2.835767,-0.568 3.8847,-1.704 1.048933,-1.135933 1.5734,-2.445633 1.5734,-3.9291 0,-1.5332 -0.524467,-2.853433 -1.5734,-3.9607 -1.048933,-1.107267 -2.343833,-1.6609 -3.8847,-1.6609 H 15.4507 c -1.508267,0 -2.791167,0.559833 -3.8487,1.6795 -1.0576,1.119733 -1.5864,2.433767 -1.5864,3.9421 0,1.433733 0.5288,2.731 1.5864,3.8918 1.057533,1.160867 2.340433,1.7413 3.8487,1.7413 z m 0,30.056873 h 74.6349 c 1.540867,0 2.835767,-0.56607433 3.8847,-1.698223 1.048933,-1.1321467 1.5734,-2.4437867 1.5734,-3.93492 0,-1.5331867 -0.524467,-2.85341 -1.5734,-3.96067 -1.048933,-1.107307 -2.343833,-1.66096 -3.8847,-1.66096 H 15.4507 c -1.508267,0 -2.791167,0.559867 -3.8487,1.6796 -1.0576,1.1197067 -1.5864,2.4337167 -1.5864,3.94203 0,1.4413933 0.5288,2.7406 1.5864,3.89762 1.057533,1.15701533 2.340433,1.735523 3.8487,1.735523 z"
       id="path398"
       sodipodi:nodetypes="sssssssssssssssssssssssssssssssss" />
  </g>
  <g
     id="Bold-S"
     transform="translate(2288.52,696)">
    <path
       d="M 14.7031,-60.9561 H 88.165 c 1.334667,0 2.457733,-0.480133 3.3692,-1.4404 0.911467,-0.960267 1.3672,-2.0833 1.3672,-3.3691 0,-1.3184 -0.455733,-2.449567 -1.3672,-3.3935 -0.911467,-0.944067 -2.034533,-1.4161 -3.3692,-1.4161 H 14.7031 c -1.302067,0 -2.4088,0.476067 -3.3202,1.4282 -0.911533,0.952133 -1.3673,2.079267 -1.3673,3.3814 0,1.2532 0.455767,2.3681 1.3673,3.3447 0.9114,0.976533 2.018133,1.4648 3.3202,1.4648 z m 0,30.1367 H 88.165 c 1.334667,0 2.457733,-0.4842 3.3692,-1.4526 0.911467,-0.9684 1.3672,-2.0955 1.3672,-3.3813 0,-1.3184 -0.455733,-2.4496 -1.3672,-3.3936 -0.911467,-0.944 -2.034533,-1.416 -3.3692,-1.416 H 14.7031 c -1.302067,0 -2.4088,0.476067 -3.3202,1.4282 -0.911533,0.952133 -1.3673,2.079267 -1.3673,3.3814 0,1.253267 0.455767,2.372233 1.3673,3.3569 0.9114,0.984667 2.018133,1.477 3.3202,1.477 z m 0,30.04401 H 88.165 c 1.334667,0 2.457733,-0.4801433 3.3692,-1.44043 0.911467,-0.9602867 1.3672,-2.0914733 1.3672,-3.39356 0,-1.3183533 -0.455733,-2.44953 -1.3672,-3.39353 -0.911467,-0.9439933 -2.034533,-1.41599 -3.3692,-1.41599 H 14.7031 c -1.302067,0 -2.4088,0.4760633 -3.3202,1.42819 -0.911533,0.95214 -1.3673,2.07925 -1.3673,3.38133 0,1.2695333 0.455767,2.39258 1.3673,3.36914 0.9114,0.9765667 2.018133,1.46485 3.3202,1.46485 z"
       id="path401"
       sodipodi:nodetypes="sssssssssssssssssssssssssssssssss" />
  </g>
  <g
     id="Semibold-S"
     transform="translate(1992.72,696)">
    <path
       d="m 14.1877,-61.3026 h 72.6532 c 1.192467,0 2.197033,-0.420933 3.0137,-1.2628 0.816667,-0.841733 1.225,-1.8374 1.225,-2.987 0,-1.1702 -0.408333,-2.171033 -1.225,-3.0025 -0.816667,-0.831467 -1.821233,-1.2472 -3.0137,-1.2472 H 14.1877 c -1.159933,0 -2.145233,0.418333 -2.9559,1.255 -0.8108,0.8366 -1.2162,1.834833 -1.2162,2.9947 0,1.128867 0.4054,2.119367 1.2162,2.9715 0.810667,0.8522 1.795967,1.2783 2.9559,1.2783 z m 0,30.1189 h 72.6532 c 1.192467,0 2.197033,-0.426467 3.0137,-1.2794 0.816667,-0.852867 1.225,-1.854067 1.225,-3.0036 0,-1.170267 -0.408333,-2.171133 -1.225,-3.0026 -0.816667,-0.8314 -1.821233,-1.2471 -3.0137,-1.2471 H 14.1877 c -1.159933,0 -2.145233,0.4183 -2.9559,1.2549 -0.8108,0.836667 -1.2162,1.834933 -1.2162,2.9948 0,1.128867 0.4054,2.1249 1.2162,2.9881 0.810667,0.863267 1.795967,1.2949 2.9559,1.2949 z m 0,30.03507 h 72.6532 c 1.192467,0 2.197033,-0.4209 3.0137,-1.2627 0.816667,-0.8417933 1.225,-1.8485633 1.225,-3.02031 0,-1.1702467 -0.408333,-2.17109 -1.225,-3.00253 -0.816667,-0.8314467 -1.821233,-1.24717 -3.0137,-1.24717 H 14.1877 c -1.159933,0 -2.145233,0.41831 -2.9559,1.25493 -0.8108,0.83662 -1.2162,1.8348767 -1.2162,2.99477 0,1.15104 0.4054,2.1526333 1.2162,3.00478 0.810667,0.8521533 1.795967,1.27823 2.9559,1.27823 z"
       id="path404"
       sodipodi:nodetypes="sssssssssssssssssssssssssssssssss" />
  </g>
  <g
     id="Medium-S"
     transform="translate(1696.7,696)">
    <path
       d="m 13.7969,-61.5654 h 72.04 c 1.084667,0 1.999367,-0.376 2.7441,-1.128 0.7448,-0.751933 1.1172,-1.651 1.1172,-2.6972 0,-1.058 -0.3724,-1.960033 -1.1172,-2.7061 -0.744733,-0.746067 -1.659433,-1.1191 -2.7441,-1.1191 h -72.04 c -1.052133,0 -1.945367,0.3745 -2.6797,1.1235 -0.7344,0.749 -1.1016,1.649567 -1.1016,2.7017 0,1.034467 0.3672,1.9306 1.1016,2.6884 0.734333,0.757867 1.627567,1.1368 2.6797,1.1368 z m 0,30.1054 h 72.04 c 1.084667,0 1.999367,-0.382633 2.7441,-1.1479 0.7448,-0.765267 1.1172,-1.671033 1.1172,-2.7173 0,-1.057933 -0.3724,-1.959967 -1.1172,-2.7061 -0.744733,-0.746067 -1.659433,-1.1191 -2.7441,-1.1191 h -72.04 c -1.052133,0 -1.945367,0.3745 -2.6797,1.1235 -0.7344,0.749067 -1.1016,1.649633 -1.1016,2.7017 0,1.034533 0.3672,1.937367 1.1016,2.7085 0.734333,0.771133 1.627567,1.1567 2.6797,1.1567 z m 0,30.02836 h 72.04 c 1.084667,0 1.999367,-0.3759767 2.7441,-1.12793 0.7448,-0.7519533 1.1172,-1.6643867 1.1172,-2.7373 0,-1.0579467 -0.3724,-1.9599633 -1.1172,-2.70605 -0.744733,-0.7461 -1.659433,-1.11915 -2.7441,-1.11915 h -72.04 c -1.052133,0 -1.945367,0.3745133 -2.6797,1.12354 -0.7344,0.74902 -1.1016,1.6495733 -1.1016,2.70166 0,1.0611933 0.3672,1.9706967 1.1016,2.72851 0.734333,0.7578133 1.627567,1.13672 2.6797,1.13672 z"
       id="path407"
       sodipodi:nodetypes="sssssssssssssssssssssssssssssssss" />
  </g>
  <g
     id="Regular-S"
     transform="translate(1400.89,696)">
    <path
       d="m 13.2871,-61.9082 h 71.2402 c 0.944067,0 1.7416,-0.3174 2.3926,-0.9522 0.651067,-0.634733 0.9766,-1.407833 0.9766,-2.3193 0,-0.911467 -0.325533,-1.684567 -0.9766,-2.3193 -0.651,-0.6348 -1.448533,-0.9522 -2.3926,-0.9522 H 13.2871 c -0.911467,0 -1.684567,0.3174 -2.3193,0.9522 -0.6348,0.634733 -0.9522,1.407833 -0.9522,2.3193 0,0.911467 0.3174,1.684567 0.9522,2.3193 0.634733,0.6348 1.407833,0.9522 2.3193,0.9522 z m 0,30.0879 h 71.2402 c 0.944067,0 1.7416,-0.325533 2.3926,-0.9766 0.651067,-0.651 0.9766,-1.432233 0.9766,-2.3437 0,-0.911467 -0.325533,-1.6846 -0.9766,-2.3194 -0.651,-0.634733 -1.448533,-0.9521 -2.3926,-0.9521 H 13.2871 c -0.911467,0 -1.684567,0.317367 -2.3193,0.9521 -0.6348,0.6348 -0.9522,1.407933 -0.9522,2.3194 0,0.911467 0.3174,1.6927 0.9522,2.3437 0.634733,0.651067 1.407833,0.9766 2.3193,0.9766 z m 0,30.01952 h 71.2402 c 0.944067,0 1.7416,-0.3173833 2.3926,-0.95215 0.651067,-0.6347667 0.9766,-1.4241533 0.9766,-2.36816 0,-0.91146 -0.325533,-1.6845733 -0.9766,-2.31934 -0.651,-0.6347667 -1.448533,-0.95215 -2.3926,-0.95215 H 13.2871 c -0.911467,0 -1.684567,0.3173833 -2.3193,0.95215 -0.6348,0.6347667 -0.9522,1.40788 -0.9522,2.31934 0,0.9440067 0.3174,1.7333933 0.9522,2.36816 0.634733,0.6347667 1.407833,0.95215 2.3193,0.95215 z"
       id="path410"
       sodipodi:nodetypes="sssssssssssssssssssssssssssssssss" />
  </g>
  <g
     id="Light-S"
     transform="translate(1104.91,696)">
    <path
       d="m 12.5547,-62.6243 h 71.2565 c 0.748733,0 1.372633,-0.244167 1.8717,-0.7325 0.4992,-0.488267 0.7488,-1.090467 0.7488,-1.8066 0,-0.716133 -0.2496,-1.318333 -0.7488,-1.8066 -0.499067,-0.488333 -1.122967,-0.7325 -1.8717,-0.7325 H 12.5547 c -0.716133,0 -1.318333,0.244167 -1.8066,0.7325 -0.488333,0.488267 -0.7325,1.090467 -0.7325,1.8066 0,0.716133 0.244167,1.318333 0.7325,1.8066 0.488267,0.488333 1.090467,0.7325 1.8066,0.7325 z m 0,30.1367 h 71.2565 c 0.748733,0 1.372633,-0.249567 1.8717,-0.7487 0.4992,-0.499133 0.7488,-1.106767 0.7488,-1.8229 0,-0.7162 -0.2496,-1.321133 -0.7488,-1.8148 -0.499067,-0.493733 -1.122967,-0.7406 -1.8717,-0.7406 H 12.5547 c -0.716133,0 -1.318333,0.246867 -1.8066,0.7406 -0.488333,0.493667 -0.7325,1.0986 -0.7325,1.8148 0,0.716133 0.244167,1.323767 0.7325,1.8229 0.488267,0.499133 1.090467,0.7487 1.8066,0.7487 z m 0,30.05205 h 71.2565 c 0.748733,0 1.372633,-0.24414 1.8717,-0.73242 0.4992,-0.48828 0.7488,-1.1013433 0.7488,-1.83919 0,-0.7161467 -0.2496,-1.3210733 -0.7488,-1.81478 C 85.183833,-7.3156467 84.559933,-7.5625 83.8112,-7.5625 H 12.5547 c -0.716133,0 -1.318333,0.2468533 -1.8066,0.74056 -0.488333,0.4937067 -0.7325,1.0986333 -0.7325,1.81478 0,0.7378467 0.244167,1.35091 0.7325,1.83919 0.488267,0.48828 1.090467,0.73242 1.8066,0.73242 z"
       id="path413"
       sodipodi:nodetypes="sssssssssssssssssssssssssssssssss" />
  </g>
  <g
     id="Thin-S"
     transform="translate(809.167,696)">
    <path
       d="m 11.586,-63.5715 h 71.278 c 0.4904,0 0.8847,-0.147267 1.1829,-0.4418 0.298267,-0.2946 0.4474,-0.6708 0.4474,-1.1286 0,-0.4578 -0.149133,-0.833967 -0.4474,-1.1285 -0.2982,-0.2946 -0.6925,-0.4419 -1.1829,-0.4419 H 11.586 c -0.4578,0 -0.833967,0.1473 -1.1285,0.4419 -0.2946,0.294533 -0.4419,0.6707 -0.4419,1.1285 0,0.4578 0.1473,0.834 0.4419,1.1286 0.294533,0.294533 0.6707,0.4418 1.1285,0.4418 z m 0,30.2013 h 71.278 c 0.4904,0 0.8847,-0.1491 1.1829,-0.4473 0.298267,-0.298267 0.4474,-0.6763 0.4474,-1.1341 0,-0.457867 -0.149133,-0.840333 -0.4474,-1.1474 -0.2982,-0.3072 -0.6925,-0.4608 -1.1829,-0.4608 H 11.586 c -0.4578,0 -0.833967,0.1536 -1.1285,0.4608 -0.2946,0.307067 -0.4419,0.689533 -0.4419,1.1474 0,0.4578 0.1473,0.835833 0.4419,1.1341 0.294533,0.2982 0.6707,0.4473 1.1285,0.4473 z m 0,30.09512 h 71.278 c 0.4904,0 0.8847,-0.14727 1.1829,-0.44181 0.298267,-0.2945467 0.4474,-0.67441 0.4474,-1.13959 0,-0.4578267 -0.149133,-0.8403133 -0.4474,-1.14746 -0.2982,-0.30714 -0.6925,-0.46071 -1.1829,-0.46071 H 11.586 c -0.4578,0 -0.833967,0.15357 -1.1285,0.46071 -0.2946,0.3071467 -0.4419,0.6896333 -0.4419,1.14746 0,0.46518 0.1473,0.8450433 0.4419,1.13959 0.294533,0.29454 0.6707,0.44181 1.1285,0.44181 z"
       id="path416"
       sodipodi:nodetypes="sssssssssssssssssssssssssssssssss" />
  </g>
  <path
     d="m 524.0418,631.9434 h 71.2891 c 0.35807,0 0.63477,-0.0977 0.8301,-0.293 0.19533,-0.19533 0.293,-0.45577 0.293,-0.7813 0,-0.32547 -0.0977,-0.58587 -0.293,-0.7812 -0.19533,-0.19533 -0.47203,-0.293 -0.8301,-0.293 h -71.2891 c -0.32547,0 -0.58587,0.0977 -0.7812,0.293 -0.19533,0.19533 -0.293,0.45573 -0.293,0.7812 0,0.32553 0.0977,0.58597 0.293,0.7813 0.19533,0.19533 0.45573,0.293 0.7812,0.293 z m 0,30.11541 h 71.2891 c 0.35807,0 0.63477,-0.0976 0.8301,-0.2929 0.19533,-0.19533 0.293,-0.45577 0.293,-0.7813 0,-0.32553 -0.0977,-0.59407 -0.293,-0.8056 -0.19533,-0.2116 -0.47203,-0.3174 -0.8301,-0.3174 h -71.2891 c -0.32547,0 -0.58587,0.1058 -0.7812,0.3174 -0.19533,0.21153 -0.293,0.48007 -0.293,0.8056 0,0.32553 0.0977,0.58597 0.293,0.7813 0.19533,0.19527 0.45573,0.2929 0.7812,0.2929 z m 0,30.23611 h 71.2891 c 0.35807,0 0.63477,-0.0977 0.8301,-0.29297 0.19533,-0.19531 0.293,-0.45573 0.293,-0.78125 0,-0.32552 -0.0977,-0.59407 -0.293,-0.80566 -0.19533,-0.21159 -0.47203,-0.31738 -0.8301,-0.31738 h -71.2891 c -0.32547,0 -0.58587,0.10579 -0.7812,0.31738 -0.19533,0.21159 -0.293,0.48014 -0.293,0.80566 0,0.32552 0.0977,0.58594 0.293,0.78125 0.19533,0.19531 0.45573,0.29297 0.7812,0.29297 z"
     id="path419"
     sodipodi:nodetypes="sssssssssssssssssssssssssssssssss" />
</svg>
