<?xml version="1.0" encoding="UTF-8" standalone="no"?>
<!--Generator: Apple Native CoreSVG 175-->

<svg
   version="1.1"
   width="3300"
   height="2200"
   id="svg197"
   sodipodi:docname="custom.line.3.horizontal copy.svg"
   inkscape:version="1.2-beta (1b65182c, 2022-04-05)"
   xmlns:inkscape="http://www.inkscape.org/namespaces/inkscape"
   xmlns:sodipodi="http://sodipodi.sourceforge.net/DTD/sodipodi-0.dtd"
   xmlns="http://www.w3.org/2000/svg"
   xmlns:svg="http://www.w3.org/2000/svg">
  <defs
     id="defs201" />
  <sodipodi:namedview
     id="namedview199"
     pagecolor="#ffffff"
     bordercolor="#666666"
     borderopacity="1.0"
     inkscape:pageshadow="2"
     inkscape:pageopacity="0.0"
     inkscape:pagecheckerboard="0"
     inkscape:deskcolor="#d1d1d1"
     showgrid="false"
     inkscape:zoom="1.4642424"
     inkscape:cx="1080.7637"
     inkscape:cy="974.22397"
     inkscape:window-width="2560"
     inkscape:window-height="1311"
     inkscape:window-x="0"
     inkscape:window-y="25"
     inkscape:window-maximized="0"
     inkscape:current-layer="svg197" />
  <!--glyph: "", point size: 100.0, font version: "17.3d3e1", template writer version: "65.1"-->
  <g
     id="Notes">
    <path
       id="artboard"
       style="fill:white;opacity:1"
       d="M 0 0 L 0 2200 L 3300 2200 L 3300 0 L 0 0 z " />
    <line
       style="fill:none;stroke:black;opacity:1;stroke-width:0.5;"
       x1="263"
       x2="3036"
       y1="292"
       y2="292"
       id="line10" />
    <text
       style="stroke:none;fill:black;font-family:sans-serif;font-size:13;font-weight:bold;"
       transform="matrix(1 0 0 1 263 322)"
       id="text12">Weight/Scale Variations</text>
    <text
       style="stroke:none;fill:black;font-family:sans-serif;font-size:13;text-anchor:middle;"
       transform="matrix(1 0 0 1 559.711 322)"
       id="text14">Ultralight</text>
    <text
       style="stroke:none;fill:black;font-family:sans-serif;font-size:13;text-anchor:middle;"
       transform="matrix(1 0 0 1 856.422 322)"
       id="text16">Thin</text>
    <text
       style="stroke:none;fill:black;font-family:sans-serif;font-size:13;text-anchor:middle;"
       transform="matrix(1 0 0 1 1153.13 322)"
       id="text18">Light</text>
    <text
       style="stroke:none;fill:black;font-family:sans-serif;font-size:13;text-anchor:middle;"
       transform="matrix(1 0 0 1 1449.84 322)"
       id="text20">Regular</text>
    <text
       style="stroke:none;fill:black;font-family:sans-serif;font-size:13;text-anchor:middle;"
       transform="matrix(1 0 0 1 1746.56 322)"
       id="text22">Medium</text>
    <text
       style="stroke:none;fill:black;font-family:sans-serif;font-size:13;text-anchor:middle;"
       transform="matrix(1 0 0 1 2043.27 322)"
       id="text24">Semibold</text>
    <text
       style="stroke:none;fill:black;font-family:sans-serif;font-size:13;text-anchor:middle;"
       transform="matrix(1 0 0 1 2339.98 322)"
       id="text26">Bold</text>
    <text
       style="stroke:none;fill:black;font-family:sans-serif;font-size:13;text-anchor:middle;"
       transform="matrix(1 0 0 1 2636.69 322)"
       id="text28">Heavy</text>
    <text
       style="stroke:none;fill:black;font-family:sans-serif;font-size:13;text-anchor:middle;"
       transform="matrix(1 0 0 1 2933.4 322)"
       id="text30">Black</text>
    <line
       style="fill:none;stroke:black;opacity:1;stroke-width:0.5;"
       x1="263"
       x2="3036"
       y1="1903"
       y2="1903"
       id="line32" />
    <g
       transform="matrix(1 0 0 1 263 1933)"
       id="g36">
      <path
         d="M9.24805 0.830078Q10.8691 0.830078 12.2949 0.214844Q13.7207-0.400391 14.8096-1.49414Q15.8984-2.58789 16.5186-4.01367Q17.1387-5.43945 17.1387-7.05078Q17.1387-8.66211 16.5186-10.0879Q15.8984-11.5137 14.8047-12.6074Q13.7109-13.7012 12.2852-14.3164Q10.8594-14.9316 9.23828-14.9316Q7.62695-14.9316 6.20117-14.3164Q4.77539-13.7012 3.69141-12.6074Q2.60742-11.5137 1.9873-10.0879Q1.36719-8.66211 1.36719-7.05078Q1.36719-5.43945 1.9873-4.01367Q2.60742-2.58789 3.69629-1.49414Q4.78516-0.400391 6.21094 0.214844Q7.63672 0.830078 9.24805 0.830078ZM9.24805-0.654297Q7.91992-0.654297 6.7627-1.14746Q5.60547-1.64062 4.73145-2.51953Q3.85742-3.39844 3.36426-4.56055Q2.87109-5.72266 2.87109-7.05078Q2.87109-8.37891 3.35938-9.54102Q3.84766-10.7031 4.72168-11.582Q5.5957-12.4609 6.75293-12.9541Q7.91016-13.4473 9.23828-13.4473Q10.5762-13.4473 11.7334-12.9541Q12.8906-12.4609 13.7695-11.582Q14.6484-10.7031 15.1465-9.54102Q15.6445-8.37891 15.6445-7.05078Q15.6445-5.72266 15.1514-4.56055Q14.6582-3.39844 13.7842-2.51953Q12.9102-1.64062 11.748-1.14746Q10.5859-0.654297 9.24805-0.654297ZM5.6543-7.05078Q5.6543-6.72852 5.85938-6.52832Q6.06445-6.32812 6.40625-6.32812L8.51562-6.32812L8.51562-4.20898Q8.51562-3.88672 8.71094-3.67676Q8.90625-3.4668 9.23828-3.4668Q9.56055-3.4668 9.77051-3.67676Q9.98047-3.88672 9.98047-4.20898L9.98047-6.32812L12.0898-6.32812Q12.4219-6.32812 12.627-6.52832Q12.832-6.72852 12.832-7.05078Q12.832-7.38281 12.627-7.58789Q12.4219-7.79297 12.0898-7.79297L9.98047-7.79297L9.98047-9.90234Q9.98047-10.2344 9.77051-10.4443Q9.56055-10.6543 9.23828-10.6543Q8.90625-10.6543 8.71094-10.4443Q8.51562-10.2344 8.51562-9.90234L8.51562-7.79297L6.40625-7.79297Q6.06445-7.79297 5.85938-7.58789Q5.6543-7.38281 5.6543-7.05078Z"
         id="path34" />
    </g>
    <g
       transform="matrix(1 0 0 1 281.867 1933)"
       id="g40">
      <path
         d="M11.709 2.91016Q13.75 2.91016 15.5518 2.12891Q17.3535 1.34766 18.7305-0.0292969Q20.1074-1.40625 20.8887-3.20801Q21.6699-5.00977 21.6699-7.05078Q21.6699-9.0918 20.8887-10.8936Q20.1074-12.6953 18.7305-14.0723Q17.3535-15.4492 15.5469-16.2305Q13.7402-17.0117 11.6992-17.0117Q9.6582-17.0117 7.85645-16.2305Q6.05469-15.4492 4.68262-14.0723Q3.31055-12.6953 2.5293-10.8936Q1.74805-9.0918 1.74805-7.05078Q1.74805-5.00977 2.5293-3.20801Q3.31055-1.40625 4.6875-0.0292969Q6.06445 1.34766 7.86621 2.12891Q9.66797 2.91016 11.709 2.91016ZM11.709 1.25Q9.98047 1.25 8.47656 0.605469Q6.97266-0.0390625 5.83496-1.17676Q4.69727-2.31445 4.05762-3.81836Q3.41797-5.32227 3.41797-7.05078Q3.41797-8.7793 4.05762-10.2832Q4.69727-11.7871 5.83008-12.9297Q6.96289-14.0723 8.4668-14.7119Q9.9707-15.3516 11.6992-15.3516Q13.4277-15.3516 14.9316-14.7119Q16.4355-14.0723 17.5781-12.9297Q18.7207-11.7871 19.3652-10.2832Q20.0098-8.7793 20.0098-7.05078Q20.0098-5.32227 19.3701-3.81836Q18.7305-2.31445 17.5928-1.17676Q16.4551-0.0390625 14.9463 0.605469Q13.4375 1.25 11.709 1.25ZM7.17773-7.05078Q7.17773-6.69922 7.41211-6.47461Q7.64648-6.25 8.01758-6.25L10.8887-6.25L10.8887-3.36914Q10.8887-2.99805 11.1133-2.76855Q11.3379-2.53906 11.6895-2.53906Q12.0605-2.53906 12.29-2.76855Q12.5195-2.99805 12.5195-3.36914L12.5195-6.25L15.4004-6.25Q15.7715-6.25 16.001-6.47461Q16.2305-6.69922 16.2305-7.05078Q16.2305-7.42188 16.001-7.65137Q15.7715-7.88086 15.4004-7.88086L12.5195-7.88086L12.5195-10.752Q12.5195-11.1328 12.29-11.3623Q12.0605-11.5918 11.6895-11.5918Q11.3379-11.5918 11.1133-11.3574Q10.8887-11.123 10.8887-10.752L10.8887-7.88086L8.01758-7.88086Q7.63672-7.88086 7.40723-7.65137Q7.17773-7.42188 7.17773-7.05078Z"
         id="path38" />
    </g>
    <g
       transform="matrix(1 0 0 1 305.646 1933)"
       id="g44">
      <path
         d="M14.9707 5.66406Q17.0605 5.66406 18.96 5.01465Q20.8594 4.36523 22.4512 3.19336Q24.043 2.02148 25.2197 0.429688Q26.3965-1.16211 27.0459-3.06641Q27.6953-4.9707 27.6953-7.05078Q27.6953-9.14062 27.0459-11.04Q26.3965-12.9395 25.2197-14.5312Q24.043-16.123 22.4512-17.2998Q20.8594-18.4766 18.9551-19.126Q17.0508-19.7754 14.9609-19.7754Q12.8711-19.7754 10.9717-19.126Q9.07227-18.4766 7.48535-17.2998Q5.89844-16.123 4.72168-14.5312Q3.54492-12.9395 2.90039-11.04Q2.25586-9.14062 2.25586-7.05078Q2.25586-4.9707 2.90527-3.06641Q3.55469-1.16211 4.72656 0.429688Q5.89844 2.02148 7.49023 3.19336Q9.08203 4.36523 10.9814 5.01465Q12.8809 5.66406 14.9707 5.66406ZM14.9707 3.84766Q13.1641 3.84766 11.5283 3.2959Q9.89258 2.74414 8.53516 1.74805Q7.17773 0.751953 6.17676-0.610352Q5.17578-1.97266 4.62891-3.6084Q4.08203-5.24414 4.08203-7.05078Q4.08203-8.86719 4.62891-10.5029Q5.17578-12.1387 6.17188-13.501Q7.16797-14.8633 8.52539-15.8594Q9.88281-16.8555 11.5186-17.4023Q13.1543-17.9492 14.9609-17.9492Q16.7773-17.9492 18.4131-17.4023Q20.0488-16.8555 21.4111-15.8594Q22.7734-14.8633 23.7695-13.501Q24.7656-12.1387 25.3174-10.5029Q25.8691-8.86719 25.8691-7.05078Q25.8789-5.24414 25.332-3.6084Q24.7852-1.97266 23.7842-0.610352Q22.7832 0.751953 21.4209 1.74805Q20.0586 2.74414 18.4229 3.2959Q16.7871 3.84766 14.9707 3.84766ZM9.19922-7.05078Q9.19922-6.66992 9.45801-6.4209Q9.7168-6.17188 10.1172-6.17188L14.0625-6.17188L14.0625-2.2168Q14.0625-1.81641 14.3115-1.55762Q14.5605-1.29883 14.9512-1.29883Q15.3516-1.29883 15.6104-1.55273Q15.8691-1.80664 15.8691-2.2168L15.8691-6.17188L19.8242-6.17188Q20.2246-6.17188 20.4785-6.4209Q20.7324-6.66992 20.7324-7.05078Q20.7324-7.46094 20.4785-7.71484Q20.2246-7.96875 19.8242-7.96875L15.8691-7.96875L15.8691-11.9141Q15.8691-12.3242 15.6104-12.583Q15.3516-12.8418 14.9512-12.8418Q14.5605-12.8418 14.3115-12.583Q14.0625-12.3242 14.0625-11.9141L14.0625-7.96875L10.1172-7.96875Q9.70703-7.96875 9.45312-7.71484Q9.19922-7.46094 9.19922-7.05078Z"
         id="path42" />
    </g>
    <text
       style="stroke:none;fill:black;font-family:sans-serif;font-size:13;font-weight:bold;"
       transform="matrix(1 0 0 1 263 1953)"
       id="text46">Design Variations</text>
    <text
       style="stroke:none;fill:black;font-family:sans-serif;font-size:13;"
       transform="matrix(1 0 0 1 263 1971)"
       id="text48">Symbols are supported in up to nine weights and three scales.</text>
    <text
       style="stroke:none;fill:black;font-family:sans-serif;font-size:13;"
       transform="matrix(1 0 0 1 263 1989)"
       id="text50">For optimal layout with text and other symbols, vertically align</text>
    <text
       style="stroke:none;fill:black;font-family:sans-serif;font-size:13;"
       transform="matrix(1 0 0 1 263 2007)"
       id="text52">symbols with the adjacent text.</text>
    <line
       style="fill:none;stroke:#00AEEF;stroke-width:0.5;opacity:1.0;"
       x1="776"
       x2="776"
       y1="1919"
       y2="1933"
       id="line54" />
    <g
       transform="matrix(1 0 0 1 776 1933)"
       id="g58">
      <path
         d="M3.31055 0.15625Q3.70117 0.15625 3.91602-0.00976562Q4.13086-0.175781 4.26758-0.585938L5.52734-4.0332L11.2891-4.0332L12.5488-0.585938Q12.6855-0.175781 12.9004-0.00976562Q13.1152 0.15625 13.4961 0.15625Q13.8867 0.15625 14.1162-0.0585938Q14.3457-0.273438 14.3457-0.644531Q14.3457-0.869141 14.2383-1.17188L9.6582-13.3691Q9.48242-13.8184 9.17969-14.043Q8.87695-14.2676 8.4082-14.2676Q7.5-14.2676 7.17773-13.3789L2.59766-1.16211Q2.49023-0.859375 2.49023-0.634766Q2.49023-0.263672 2.70996-0.0537109Q2.92969 0.15625 3.31055 0.15625ZM6.00586-5.51758L8.37891-12.0898L8.42773-12.0898L10.8008-5.51758Z"
         id="path56" />
    </g>
    <line
       style="fill:none;stroke:#00AEEF;stroke-width:0.5;opacity:1.0;"
       x1="793.197"
       x2="793.197"
       y1="1919"
       y2="1933"
       id="line60" />
    <text
       style="stroke:none;fill:black;font-family:sans-serif;font-size:13;font-weight:bold;"
       transform="matrix(1 0 0 1 776 1953)"
       id="text62">Margins</text>
    <text
       style="stroke:none;fill:black;font-family:sans-serif;font-size:13;"
       transform="matrix(1 0 0 1 776 1971)"
       id="text64">Leading and trailing margins on the left and right side of each symbol</text>
    <text
       style="stroke:none;fill:black;font-family:sans-serif;font-size:13;"
       transform="matrix(1 0 0 1 776 1989)"
       id="text66">can be adjusted by modifying the x-location of the margin guidelines.</text>
    <text
       style="stroke:none;fill:black;font-family:sans-serif;font-size:13;"
       transform="matrix(1 0 0 1 776 2007)"
       id="text68">Modifications are automatically applied proportionally to all</text>
    <text
       style="stroke:none;fill:black;font-family:sans-serif;font-size:13;"
       transform="matrix(1 0 0 1 776 2025)"
       id="text70">scales and weights.</text>
    <g
       transform="matrix(1 0 0 1 1289 1933)"
       id="g74">
      <path
         d="M2.8418 1.86523L4.54102 3.57422Q5.18555 4.22852 5.90332 4.17969Q6.62109 4.13086 7.31445 3.35938L18.0078-8.42773L17.041-9.4043L6.42578 2.27539Q6.16211 2.57812 5.89355 2.61719Q5.625 2.65625 5.27344 2.30469L4.10156 1.14258Q3.75 0.791016 3.79395 0.522461Q3.83789 0.253906 4.14062-0.0195312L15.6152-10.8203L14.6387-11.7871L3.04688-0.898438Q2.30469-0.214844 2.25098 0.498047Q2.19727 1.21094 2.8418 1.86523ZM9.25781-16.3281Q8.94531-16.0254 8.90625-15.6348Q8.86719-15.2441 9.04297-14.9512Q9.21875-14.6777 9.55566-14.541Q9.89258-14.4043 10.3809-14.5215Q11.4746-14.7754 12.5977-14.7314Q13.7207-14.6875 14.7949-13.9844L14.209-12.5293Q13.9551-11.9043 14.0674-11.4404Q14.1797-10.9766 14.5801-10.5664L16.875-8.25195Q17.2363-7.88086 17.5781-7.82227Q17.9199-7.76367 18.3398-7.8418L19.4043-8.03711L20.0684-7.36328L20.0293-6.80664Q20-6.43555 20.1221-6.12305Q20.2441-5.81055 20.6055-5.44922L21.3672-4.70703Q21.7285-4.3457 22.1533-4.33105Q22.5781-4.31641 22.9297-4.66797L25.8398-7.58789Q26.1914-7.93945 26.1816-8.35449Q26.1719-8.76953 25.8105-9.13086L25.0391-9.89258Q24.6875-10.2539 24.3799-10.3857Q24.0723-10.5176 23.7109-10.4883L23.1348-10.4395L22.4902-11.0742L22.7344-12.1973Q22.832-12.6172 22.6953-12.9834Q22.5586-13.3496 22.1191-13.7891L19.9219-15.9766Q18.6719-17.2168 17.2607-17.8369Q15.8496-18.457 14.4189-18.4814Q12.9883-18.5059 11.665-17.959Q10.3418-17.4121 9.25781-16.3281ZM10.752-15.957Q11.6602-16.6211 12.7002-16.9043Q13.7402-17.1875 14.8047-17.085Q15.8691-16.9824 16.8701-16.5137Q17.8711-16.0449 18.7012-15.2051L21.1328-12.793Q21.3086-12.6172 21.3525-12.4512Q21.3965-12.2852 21.3379-12.0312L21.0156-10.5469L22.5195-9.0625L23.5059-9.12109Q23.6914-9.13086 23.7891-9.09668Q23.8867-9.0625 24.0332-8.91602L24.6094-8.33984L22.168-5.89844L21.5918-6.47461Q21.4453-6.62109 21.4062-6.71875Q21.3672-6.81641 21.377-7.01172L21.4453-7.98828L19.9512-9.47266L18.4277-9.21875Q18.1836-9.16992 18.042-9.2041Q17.9004-9.23828 17.7148-9.41406L15.7129-11.416Q15.5176-11.5918 15.4932-11.7529Q15.4688-11.9141 15.5859-12.1875L16.4648-14.2773Q15.293-15.3711 13.8281-15.791Q12.3633-16.2109 10.8398-15.7617Q10.7227-15.7324 10.6885-15.8057Q10.6543-15.8789 10.752-15.957Z"
         id="path72" />
    </g>
    <text
       style="stroke:none;fill:black;font-family:sans-serif;font-size:13;font-weight:bold;"
       transform="matrix(1 0 0 1 1289 1953)"
       id="text76">Exporting</text>
    <text
       style="stroke:none;fill:black;font-family:sans-serif;font-size:13;"
       transform="matrix(1 0 0 1 1289 1971)"
       id="text78">Symbols should be outlined when exporting to ensure the</text>
    <text
       style="stroke:none;fill:black;font-family:sans-serif;font-size:13;"
       transform="matrix(1 0 0 1 1289 1989)"
       id="text80">design is preserved when submitting to Xcode.</text>
    <text
       id="template-version"
       style="stroke:none;fill:black;font-family:sans-serif;font-size:13;text-anchor:end;"
       transform="matrix(1 0 0 1 3036 1933)">Template v.3.0</text>
    <text
       style="stroke:none;fill:black;font-family:sans-serif;font-size:13;text-anchor:end;"
       transform="matrix(1 0 0 1 3036 1951)"
       id="text83">Requires Xcode 13 or greater</text>
    <text
       id="descriptive-name"
       style="stroke:none;fill:black;font-family:sans-serif;font-size:13;text-anchor:end;"
       transform="matrix(1 0 0 1 3036 1969)">Generated from custom.line.3.horizontal</text>
    <text
       style="stroke:none;fill:black;font-family:sans-serif;font-size:13;text-anchor:end;"
       transform="matrix(1 0 0 1 3036 1987)"
       id="text86">Typeset at 100 points</text>
    <text
       style="stroke:none;fill:black;font-family:sans-serif;font-size:13;"
       transform="matrix(1 0 0 1 263 726)"
       id="text88">Small</text>
    <text
       style="stroke:none;fill:black;font-family:sans-serif;font-size:13;"
       transform="matrix(1 0 0 1 263 1156)"
       id="text90">Medium</text>
    <text
       style="stroke:none;fill:black;font-family:sans-serif;font-size:13;"
       transform="matrix(1 0 0 1 263 1586)"
       id="text92">Large</text>
  </g>
  <g
     id="Guides">
    <g
       id="H-reference"
       style="fill:#27AAE1;stroke:none;"
       transform="matrix(1 0 0 1 339 696)">
      <path
         d="M0.993347 0L3.6377 0L29.3282-67.1326L30.0301-67.1326L30.0301-70.459L28.1227-70.459ZM11.6882-24.4797L46.9818-24.4797L46.2311-26.7288L12.4382-26.7288ZM55.1193 0L57.7637 0L30.6381-70.459L29.4327-70.459L29.4327-67.1326Z"
         id="path95" />
    </g>
    <line
       id="Baseline-S"
       style="fill:none;stroke:#27AAE1;opacity:1;stroke-width:0.5;"
       x1="263"
       x2="3036"
       y1="696"
       y2="696" />
    <line
       id="Capline-S"
       style="fill:none;stroke:#27AAE1;opacity:1;stroke-width:0.5;"
       x1="263"
       x2="3036"
       y1="625.541"
       y2="625.541" />
    <g
       id="g102"
       style="fill:#27AAE1;stroke:none;"
       transform="matrix(1 0 0 1 339 1126)">
      <path
         d="M0.993347 0L3.6377 0L29.3282-67.1326L30.0301-67.1326L30.0301-70.459L28.1227-70.459ZM11.6882-24.4797L46.9818-24.4797L46.2311-26.7288L12.4382-26.7288ZM55.1193 0L57.7637 0L30.6381-70.459L29.4327-70.459L29.4327-67.1326Z"
         id="path100" />
    </g>
    <line
       id="Baseline-M"
       style="fill:none;stroke:#27AAE1;opacity:1;stroke-width:0.5;"
       x1="263"
       x2="3036"
       y1="1126"
       y2="1126" />
    <line
       id="Capline-M"
       style="fill:none;stroke:#27AAE1;opacity:1;stroke-width:0.5;"
       x1="263"
       x2="3036"
       y1="1055.54"
       y2="1055.54" />
    <g
       id="g108"
       style="fill:#27AAE1;stroke:none;"
       transform="matrix(1 0 0 1 339 1556)">
      <path
         d="M0.993347 0L3.6377 0L29.3282-67.1326L30.0301-67.1326L30.0301-70.459L28.1227-70.459ZM11.6882-24.4797L46.9818-24.4797L46.2311-26.7288L12.4382-26.7288ZM55.1193 0L57.7637 0L30.6381-70.459L29.4327-70.459L29.4327-67.1326Z"
         id="path106" />
    </g>
    <line
       id="Baseline-L"
       style="fill:none;stroke:#27AAE1;opacity:1;stroke-width:0.5;"
       x1="263"
       x2="3036"
       y1="1556"
       y2="1556" />
    <line
       id="Capline-L"
       style="fill:none;stroke:#27AAE1;opacity:1;stroke-width:0.5;"
       x1="263"
       x2="3036"
       y1="1485.54"
       y2="1485.54" />
    <line
       id="left-margin-Regular-M"
       style="fill:none;stroke:#00AEEF;stroke-width:0.5;opacity:1.0;"
       x1="1388.01"
       x2="1388.01"
       y1="1030.78"
       y2="1150.12" />
    <line
       id="right-margin-Regular-M"
       style="fill:none;stroke:#00AEEF;stroke-width:0.5;opacity:1.0;"
       x1="1511.68"
       x2="1511.68"
       y1="1030.78"
       y2="1150.12" />
  </g>
  <g
     id="Black-L"
     transform="translate(2849.92,1556)">
    <path
       d="M 24.8022,9.23875 H 142.159 c 2.458,0 4.529,-0.9065267 6.213,-2.71958 1.684,-1.81305 2.526,-3.9168967 2.526,-6.31154 0,-2.4586667 -0.842,-4.5785433 -2.526,-6.35963 -1.684,-1.781067 -3.755,-2.6716 -6.213,-2.6716 H 24.8022 c -2.419667,0 -4.4776,0.900267 -6.1738,2.7008 -1.696267,1.8005333 -2.5444,3.9106767 -2.5444,6.33043 0,2.3168127 0.848133,4.4012027 2.5444,6.25317 1.6962,1.8519667 3.754133,2.77795 6.1738,2.77795 z m 0,-35.45135 H 142.159 c 2.458,0 4.529,-0.91 6.213,-2.73 1.684,-1.82 2.526,-3.9204 2.526,-6.3012 0,-2.472533 -0.842,-4.595867 -2.526,-6.37 -1.684,-1.774133 -3.755,-2.6612 -6.213,-2.6612 H 24.8022 c -2.419667,0 -4.4776,0.8968 -6.1738,2.6904 -1.696267,1.7936 -2.5444,3.9072 -2.5444,6.3408 0,2.302933 0.848133,4.383867 2.5444,6.2428 1.6962,1.858933 3.754133,2.7884 6.1738,2.7884 z m 0,-35.4138 H 142.159 c 2.458,0 4.529,-0.906533 6.213,-2.7196 1.684,-1.813 2.526,-3.909933 2.526,-6.2908 0,-2.472533 -0.842,-4.595833 -2.526,-6.3699 -1.684,-1.774133 -3.755,-2.6612 -6.213,-2.6612 H 24.8022 c -2.419667,0 -4.4776,0.8968 -6.1738,2.6904 -1.696267,1.7936 -2.5444,3.907167 -2.5444,6.3407 0,2.302933 0.848133,4.380433 2.5444,6.2325 1.6962,1.851933 3.754133,2.7779 6.1738,2.7779 z"
       id="path115"
       sodipodi:nodetypes="sssssssssssssssssssssssssssssssss" />
  </g>
  <g
     id="Heavy-L"
     transform="translate(2554.12,1556)">
    <path
       d="M 23.7908,7.31783 H 141.33 c 2.16667,0 3.99767,-0.7940107 5.493,-2.382032 1.496,-1.5880453 2.244,-3.447418 2.244,-5.578118 0,-2.1700133 -0.748,-4.0392067 -2.244,-5.60758 -1.49533,-1.568333 -3.32633,-2.3525 -5.493,-2.3525 H 23.7908 c -2.140333,0 -3.959867,0.7916 -5.4586,2.3748 -1.4988,1.58324 -2.2482,3.445 -2.2482,5.58528 0,2.07124 0.7494,3.915747 2.2482,5.533521 1.498733,1.6177527 3.318267,2.426629 5.4586,2.426629 z m 0,-34.57443 H 141.33 c 2.16667,0 3.99767,-0.799067 5.493,-2.3972 1.496,-1.598133 2.244,-3.452433 2.244,-5.5629 0,-2.1902 -0.748,-4.064433 -2.244,-5.6227 -1.49533,-1.558333 -3.32633,-2.3375 -5.493,-2.3375 H 23.7908 c -2.140333,0 -3.959867,0.7866 -5.4586,2.3598 -1.4988,1.573133 -2.2482,3.439933 -2.2482,5.6004 0,2.051 0.7494,3.890433 2.2482,5.5183 1.498733,1.627867 3.318267,2.4418 5.4586,2.4418 z m 0,-34.56 H 141.33 c 2.16667,0 3.99767,-0.794 5.493,-2.382 1.496,-1.588133 2.244,-3.437433 2.244,-5.5479 0,-2.1902 -0.748,-4.064433 -2.244,-5.6227 -1.49533,-1.558333 -3.32633,-2.3375 -5.493,-2.3375 H 23.7908 c -2.140333,0 -3.959867,0.7866 -5.4586,2.3598 -1.4988,1.5732 -2.2482,3.44 -2.2482,5.6004 0,2.051 0.7494,3.885433 2.2482,5.5033 1.498733,1.617733 3.318267,2.4266 5.4586,2.4266 z"
       id="path118"
       sodipodi:nodetypes="sssssssssssssssssssssssssssssssss" />
  </g>
  <g
     id="Bold-L"
     transform="translate(2258.52,1556)">
    <path
       d="M 22.5308,5.17435 H 140.36 c 1.80267,0 3.33433,-0.65565 4.595,-1.96695 1.26,-1.3113533 1.89,-2.8660267 1.89,-4.66402 0,-1.8114067 -0.63,-3.3694 -1.89,-4.67398 -1.26067,-1.304533 -2.79233,-1.9568 -4.595,-1.9568 H 22.5308 c -1.792067,0 -3.314533,0.657133 -4.5674,1.9714 -1.252933,1.3143067 -1.8794,2.8674333 -1.8794,4.65938 0,1.7590733 0.626467,3.304018 1.8794,4.634834 1.252867,1.3307573 2.775333,1.996136 4.5674,1.996136 z m 0,-33.72195 H 140.36 c 1.80267,0 3.33433,-0.662 4.595,-1.986 1.26,-1.324067 1.89,-2.872333 1.89,-4.6448 0,-1.836933 -0.63,-3.401333 -1.89,-4.6932 -1.26067,-1.291867 -2.79233,-1.9378 -4.595,-1.9378 H 22.5308 c -1.792067,0 -3.314533,0.6508 -4.5674,1.9524 -1.252933,1.3016 -1.8794,2.861133 -1.8794,4.6786 0,1.733533 0.626467,3.272067 1.8794,4.6156 1.252867,1.343467 2.775333,2.0152 4.5674,2.0152 z m 0,-33.7307 H 140.36 c 1.80267,0 3.33433,-0.655667 4.595,-1.967 1.26,-1.3114 1.89,-2.853333 1.89,-4.6258 0,-1.836867 -0.63,-3.401233 -1.89,-4.6931 -1.26067,-1.291933 -2.79233,-1.9379 -4.595,-1.9379 H 22.5308 c -1.792067,0 -3.314533,0.650833 -4.5674,1.9525 -1.252933,1.301667 -1.8794,2.861167 -1.8794,4.6785 0,1.733467 0.626467,3.265667 1.8794,4.5966 1.252867,1.3308 2.775333,1.9962 4.5674,1.9962 z"
       id="path121"
       sodipodi:nodetypes="sssssssssssssssssssssssssssssssss" />
  </g>
  <g
     id="Semibold-L"
     transform="translate(1962.57,1556)">
    <path
       d="M 21.6622,3.696652 H 139.692 c 1.552,0 2.87667,-0.5602673 3.974,-1.680802 1.098,-1.1206067 1.647,-2.46522 1.647,-4.03384 0,-1.5641867 -0.549,-2.9076567 -1.647,-4.03041 -1.09733,-1.1226 -2.422,-1.6839 -3.974,-1.6839 H 21.6622 c -1.552,0 -2.869667,0.5644 -3.953,1.6932 -1.083467,1.1289333 -1.6252,2.4693033 -1.6252,4.02111 0,1.5438733 0.541733,2.8823 1.6252,4.01528 1.083333,1.132908 2.401,1.699362 3.953,1.699362 z m 0,-33.134252 H 139.692 c 1.552,0 2.87667,-0.567533 3.974,-1.7026 1.098,-1.135067 1.647,-2.472333 1.647,-4.0118 0,-1.5934 -0.549,-2.944167 -1.647,-4.0523 -1.09733,-1.1082 -2.422,-1.6623 -3.974,-1.6623 H 21.6622 c -1.552,0 -2.869667,0.5572 -3.953,1.6716 -1.083467,1.114333 -1.6252,2.462 -1.6252,4.043 0,1.514667 0.541733,2.845767 1.6252,3.9933 1.083333,1.1474 2.401,1.7211 3.953,1.7211 z m 0,-33.1589 H 139.692 c 1.552,0 2.87667,-0.560333 3.974,-1.681 1.098,-1.120667 1.647,-2.4507 1.647,-3.9901 0,-1.593267 -0.549,-2.944 -1.647,-4.0522 -1.09733,-1.108333 -2.422,-1.6625 -3.974,-1.6625 H 21.6622 c -1.552,0 -2.869667,0.557233 -3.953,1.6717 -1.083467,1.114467 -1.6252,2.462133 -1.6252,4.043 0,1.5146 0.541733,2.838467 1.6252,3.9716 1.083333,1.133 2.401,1.6995 3.953,1.6995 z"
       id="path124"
       sodipodi:nodetypes="ssssssssssssssscsssssssssscssssss" />
  </g>
  <g
     id="Medium-L"
     transform="translate(1666.44,1556)">
    <path
       d="M 21.0036,2.5762 H 139.185 c 1.36133,0 2.52933,-0.4879433 3.504,-1.46383 0.97467,-0.9759733 1.462,-2.1613133 1.462,-3.55602 0,-1.3767267 -0.48733,-2.55751 -1.462,-3.54235 -0.97467,-0.984733 -2.14267,-1.4771 -3.504,-1.4771 H 21.0036 c -1.369933,0 -2.532333,0.494117 -3.4872,1.48235 -0.954933,0.98834 -1.4324,2.1673733 -1.4324,3.5371 0,1.3807 0.477467,2.56254 1.4324,3.54552 0.954867,0.9828867 2.117267,1.47433 3.4872,1.47433 z m 0,-32.6887 H 139.185 c 1.36133,0 2.52933,-0.495867 3.504,-1.4876 0.97467,-0.991867 1.462,-2.169133 1.462,-3.5318 0,-1.408733 -0.48733,-2.597567 -1.462,-3.5665 -0.97467,-0.968933 -2.14267,-1.4534 -3.504,-1.4534 H 21.0036 c -1.369933,0 -2.532333,0.486233 -3.4872,1.4587 -0.954933,0.9724 -1.4324,2.159467 -1.4324,3.5612 0,1.348667 0.477467,2.522433 1.4324,3.5213 0.954867,0.998733 2.117267,1.4981 3.4872,1.4981 z m 0,-32.7253 H 139.185 c 1.36133,0 2.52933,-0.488033 3.504,-1.4641 0.97467,-0.976067 1.462,-2.145433 1.462,-3.5081 0,-1.408533 -0.48733,-2.5973 -1.462,-3.5663 -0.97467,-0.969067 -2.14267,-1.4536 -3.504,-1.4536 H 21.0036 c -1.369933,0 -2.532333,0.486267 -3.4872,1.4588 -0.954933,0.972533 -1.4324,2.159567 -1.4324,3.5611 0,1.348667 0.477467,2.514533 1.4324,3.4976 0.954867,0.983067 2.117267,1.4746 3.4872,1.4746 z"
       id="path127"
       sodipodi:nodetypes="sssssssssssssssssssssssssssssssss" />
  </g>
  <g
     id="Regular-L"
     transform="translate(1370.48,1556)">
    <path
       d="M 20.1446,1.11474 H 138.523 c 1.114,0 2.078,-0.3936067 2.892,-1.18082 0.814,-0.78732 1.221,-1.76491 1.221,-2.93277 0,-1.1322267 -0.407,-2.1008267 -1.221,-2.9058 -0.814,-0.8049 -1.778,-1.20735 -2.892,-1.20735 H 20.1446 c -1.1326,0 -2.0925,0.40245 -2.8797,1.20735 -0.787267,0.8049733 -1.1809,1.7735733 -1.1809,2.9058 0,1.16786 0.393633,2.14545 1.1809,2.93277 0.7872,0.7872133 1.7471,1.18082 2.8797,1.18082 z m 0,-32.10744 H 138.523 c 1.114,0 2.078,-0.402433 2.892,-1.2073 0.814,-0.805 1.221,-1.7736 1.221,-2.9058 0,-1.167867 -0.407,-2.145433 -1.221,-2.9327 -0.814,-0.787267 -1.778,-1.1809 -2.892,-1.1809 H 20.1446 c -1.1326,0 -2.0925,0.393633 -2.8797,1.1809 -0.787267,0.787267 -1.1809,1.764833 -1.1809,2.9327 0,1.1322 0.393633,2.1008 1.1809,2.9058 0.7872,0.804867 1.7471,1.2073 2.8797,1.2073 z m 0,-32.1599 H 138.523 c 1.114,0 2.078,-0.3937 2.892,-1.1811 0.814,-0.787467 1.221,-1.747267 1.221,-2.8794 0,-1.1676 -0.407,-2.1451 -1.221,-2.9325 -0.814,-0.787467 -1.778,-1.1812 -2.892,-1.1812 H 20.1446 c -1.1326,0 -2.0925,0.393733 -2.8797,1.1812 -0.787267,0.7874 -1.1809,1.7649 -1.1809,2.9325 0,1.132133 0.393633,2.091933 1.1809,2.8794 0.7872,0.7874 1.7471,1.1811 2.8797,1.1811 z"
       id="path130"
       sodipodi:nodetypes="sssssssssssssssssssssssssssssssss" />
  </g>
  <g
     id="Light-L"
     transform="translate(1074.39,1556)">
    <path
       d="M 19.2285,1.1529 H 138.218 c 0.84667,0 1.588,-0.30452 2.224,-0.91356 0.636,-0.60914 0.954,-1.3641433 0.954,-2.26501 0,-0.8776133 -0.318,-1.62667 -0.954,-2.24717 -0.636,-0.6203867 -1.37733,-0.93058 -2.224,-0.93058 H 19.2285 c -0.8782,0 -1.6218,0.3101933 -2.2308,0.93058 -0.609133,0.6205 -0.9137,1.3695567 -0.9137,2.24717 0,0.9008667 0.304567,1.65587 0.9137,2.26501 0.609,0.60904 1.3526,0.91356 2.2308,0.91356 z m 0,-33.0235 H 138.218 c 0.84667,0 1.588,-0.3102 2.224,-0.9306 0.636,-0.620533 0.954,-1.3696 0.954,-2.2472 0,-0.900867 -0.318,-1.655833 -0.954,-2.2649 -0.636,-0.609133 -1.37733,-0.9137 -2.224,-0.9137 H 19.2285 c -0.8782,0 -1.6218,0.304567 -2.2308,0.9137 -0.609133,0.609067 -0.9137,1.364033 -0.9137,2.2649 0,0.8776 0.304567,1.626667 0.9137,2.2472 0.609,0.6204 1.3526,0.9306 2.2308,0.9306 z m 0,-33.0568 H 138.218 c 0.84667,0 1.588,-0.304667 2.224,-0.914 0.636,-0.6094 0.954,-1.3529 0.954,-2.2305 0,-0.900333 -0.318,-1.6552 -0.954,-2.2646 -0.636,-0.609333 -1.37733,-0.914 -2.224,-0.914 H 19.2285 c -0.8782,0 -1.6218,0.304667 -2.2308,0.914 -0.609133,0.6094 -0.9137,1.364267 -0.9137,2.2646 0,0.8776 0.304567,1.6211 0.9137,2.2305 0.609,0.609333 1.3526,0.914 2.2308,0.914 z"
       id="path133"
       sodipodi:nodetypes="sssssssssssssssssssssssssssssssss" />
  </g>
  <g
     id="Thin-L"
     transform="translate(778.502,1556)">
    <path
       d="M 18.0168,1.20337 H 137.814 c 0.49333,0 0.94033,-0.1866933 1.341,-0.56008 0.4,-0.3734933 0.6,-0.83411 0.6,-1.38185 0,-0.5408667 -0.2,-0.9995567 -0.6,-1.37607 -0.40067,-0.3763933 -0.84767,-0.56459 -1.341,-0.56459 H 18.0168 c -0.541667,0 -0.9992,0.1881967 -1.3726,0.56459 -0.373467,0.3765133 -0.5602,0.8352033 -0.5602,1.37607 0,0.54774 0.186733,1.0083567 0.5602,1.38185 0.3734,0.3733867 0.830933,0.56008 1.3726,0.56008 z m 0,-34.23517 H 137.814 c 0.49333,0 0.94033,-0.1882 1.341,-0.5646 0.4,-0.376467 0.6,-0.835167 0.6,-1.3761 0,-0.547733 -0.2,-1.008333 -0.6,-1.3818 -0.40067,-0.3734 -0.84767,-0.5601 -1.341,-0.5601 H 18.0168 c -0.541667,0 -0.9992,0.1867 -1.3726,0.5601 -0.373467,0.373467 -0.5602,0.834067 -0.5602,1.3818 0,0.540933 0.186733,0.999633 0.5602,1.3761 0.3734,0.3764 0.830933,0.5646 1.3726,0.5646 z m 0,-34.2429 H 137.814 c 0.49333,0 0.94033,-0.1869 1.341,-0.5607 0.4,-0.373933 0.6,-0.831333 0.6,-1.3722 0,-0.546933 -0.2,-1.007333 -0.6,-1.3812 -0.40067,-0.3738 -0.84767,-0.5607 -1.341,-0.5607 H 18.0168 c -0.541667,0 -0.9992,0.1869 -1.3726,0.5607 -0.373467,0.373867 -0.5602,0.834267 -0.5602,1.3812 0,0.540867 0.186733,0.998267 0.5602,1.3722 0.3734,0.3738 0.830933,0.5607 1.3726,0.5607 z"
       id="path136"
       sodipodi:nodetypes="sscscsssssssscscsssssssscscssssss" />
  </g>
  <g
     id="Ultralight-L"
     transform="translate(482.211,1556)">
    <path
       d="M 17.3962,1.22922 H 137.608 c 0.312,0 0.60767,-0.1263433 0.887,-0.37903 0.28,-0.2527933 0.42,-0.5626267 0.42,-0.9295 0,-0.3683867 -0.14,-0.67835 -0.42,-0.92989 -0.27933,-0.2514333 -0.575,-0.37715 -0.887,-0.37715 H 17.3962 c -0.369333,0 -0.680367,0.1257167 -0.9331,0.37715 -0.252733,0.25154 -0.3791,0.5615033 -0.3791,0.92989 0,0.3668733 0.126367,0.6767067 0.3791,0.9295 0.252733,0.2526867 0.563767,0.37903 0.9331,0.37903 z m 0,-34.85572 H 137.608 c 0.312,0 0.60767,-0.125733 0.887,-0.3772 0.28,-0.251533 0.42,-0.5615 0.42,-0.9299 0,-0.366867 -0.14,-0.6767 -0.42,-0.9295 -0.27933,-0.252667 -0.575,-0.379 -0.887,-0.379 H 17.3962 c -0.369333,0 -0.680367,0.126333 -0.9331,0.379 -0.252733,0.2528 -0.3791,0.562633 -0.3791,0.9295 0,0.3684 0.126367,0.678367 0.3791,0.9299 0.252733,0.251467 0.563767,0.3772 0.9331,0.3772 z m 0,-34.8505 H 137.608 c 0.312,0 0.60767,-0.1266 0.887,-0.3798 0.28,-0.253267 0.42,-0.5641 0.42,-0.9325 0,-0.365867 -0.14,-0.675467 -0.42,-0.9288 -0.27933,-0.253133 -0.575,-0.3797 -0.887,-0.3797 H 17.3962 c -0.369333,0 -0.680367,0.126567 -0.9331,0.3797 -0.252733,0.253333 -0.3791,0.562933 -0.3791,0.9288 0,0.3684 0.126367,0.679233 0.3791,0.9325 0.252733,0.2532 0.563767,0.3798 0.9331,0.3798 z"
       id="path139"
       sodipodi:nodetypes="sscscsssssssscscsssssssscssssssss" />
  </g>
  <g
     id="Black-M"
     transform="translate(2868.02,1126)">
    <path
       d="m 19.9605,1.77891 h 90.8465 c 2.11867,0 3.89933,-0.7869533 5.342,-2.36086 1.442,-1.5738867 2.163,-3.38377 2.163,-5.42965 0,-2.118467 -0.721,-3.946533 -2.163,-5.4842 -1.44267,-1.5376 -3.22333,-2.3064 -5.342,-2.3064 H 19.9605 c -2.080333,0 -3.850333,0.778333 -5.31,2.335 -1.459733,1.556667 -2.1896,3.3752 -2.1896,5.4556 0,1.9697933 0.729867,3.7606533 2.1896,5.37258 1.459667,1.6119533 3.229667,2.41793 5.31,2.41793 z m 0,-29.24441 h 90.8465 c 2.11867,0 3.89933,-0.7879 5.342,-2.3637 1.442,-1.575733 2.163,-3.3847 2.163,-5.4269 0,-2.122067 -0.721,-3.951033 -2.163,-5.4869 -1.44267,-1.535867 -3.22333,-2.3038 -5.342,-2.3038 H 19.9605 c -2.080333,0 -3.850333,0.777433 -5.31,2.3323 -1.459733,1.554867 -2.1896,3.374333 -2.1896,5.4584 0,1.966133 0.729867,3.756067 2.1896,5.3698 1.459667,1.613867 3.229667,2.4208 5.31,2.4208 z m 0,-29.193 h 90.8465 c 2.11867,0 3.89933,-0.786933 5.342,-2.3608 1.442,-1.573867 2.163,-3.381967 2.163,-5.4243 0,-2.122067 -0.721,-3.950967 -2.163,-5.4867 -1.44267,-1.535867 -3.22333,-2.3038 -5.342,-2.3038 H 19.9605 c -2.080333,0 -3.850333,0.777433 -5.31,2.3323 -1.459733,1.554867 -2.1896,3.374267 -2.1896,5.4582 0,1.9662 0.729867,3.7553 2.1896,5.3673 1.459667,1.611867 3.229667,2.4178 5.31,2.4178 z"
       id="path142"
       sodipodi:nodetypes="sssssssssssssssssssssssssssssssss" />
  </g>
  <g
     id="Heavy-M"
     transform="translate(2572.14,1126)">
    <path
       d="m 19.0562,-0.10245 h 90.9688 c 1.85867,0 3.42533,-0.68518 4.7,-2.05554 1.27467,-1.37036 1.912,-2.9617967 1.912,-4.77431 0,-1.859733 -0.63733,-3.462967 -1.912,-4.8097 -1.27467,-1.346733 -2.84133,-2.0201 -4.7,-2.0201 H 19.0562 c -1.8306,0 -3.387433,0.680633 -4.6705,2.0419 -1.2832,1.361267 -1.9248,2.957233 -1.9248,4.7879 0,1.7543867 0.6416,3.3312933 1.9248,4.73072 1.283067,1.39942 2.8399,2.09913 4.6705,2.09913 z m 0,-28.30265 h 90.9688 c 1.85867,0 3.42533,-0.687933 4.7,-2.0638 1.27467,-1.375867 1.912,-2.964567 1.912,-4.7661 0,-1.870667 -0.63733,-3.476633 -1.912,-4.8179 -1.27467,-1.341333 -2.84133,-2.012 -4.7,-2.012 H 19.0562 c -1.8306,0 -3.387433,0.677933 -4.6705,2.0338 -1.2832,1.3558 -1.9248,2.9545 -1.9248,4.7961 0,1.7434 0.6416,3.317567 1.9248,4.7225 1.283067,1.404933 2.8399,2.1074 4.6705,2.1074 z m 0,-28.2755 h 90.9688 c 1.85867,0 3.42533,-0.6852 4.7,-2.0556 1.27467,-1.370333 1.912,-2.9563 1.912,-4.7579 0,-1.870667 -0.63733,-3.476633 -1.912,-4.8179 -1.27467,-1.341267 -2.84133,-2.0119 -4.7,-2.0119 H 19.0562 c -1.8306,0 -3.387433,0.6779 -4.6705,2.0337 -1.2832,1.355867 -1.9248,2.954567 -1.9248,4.7961 0,1.7434 0.6416,3.314833 1.9248,4.7143 1.283067,1.399467 2.8399,2.0992 4.6705,2.0992 z"
       id="path145"
       sodipodi:nodetypes="sssssssssssssssssssssssssssssssss" />
  </g>
  <g
     id="Bold-M"
     transform="translate(2276.37,1126)">
    <path
       d="m 18.0447,-2.20701 h 91.1063 c 1.56667,0 2.89367,-0.57133 3.981,-1.71399 1.08733,-1.1426933 1.631,-2.48976 1.631,-4.0412 0,-1.570333 -0.54367,-2.9221 -1.631,-4.0553 -1.08733,-1.1332 -2.41433,-1.6998 -3.981,-1.6998 H 18.0447 c -1.551333,0 -2.869767,0.571333 -3.9553,1.714 -1.085667,1.142733 -1.6285,2.489767 -1.6285,4.0411 0,1.513393 0.542833,2.85095 1.6285,4.01267 1.085533,1.16168 2.403967,1.74252 3.9553,1.74252 z m 0,-27.24919 h 91.1063 c 1.56667,0 2.89367,-0.576133 3.981,-1.7284 1.08733,-1.1522 1.631,-2.494433 1.631,-4.0267 0,-1.589533 -0.54367,-2.9461 -1.631,-4.0697 -1.08733,-1.123667 -2.41433,-1.6855 -3.981,-1.6855 H 18.0447 c -1.551333,0 -2.869767,0.566567 -3.9553,1.6997 -1.085667,1.1332 -1.6285,2.485033 -1.6285,4.0555 0,1.4942 0.542833,2.826933 1.6285,3.9982 1.085533,1.171267 2.403967,1.7569 3.9553,1.7569 z m 0,-27.2493 h 91.1063 c 1.56667,0 2.89367,-0.571333 3.981,-1.714 1.08733,-1.142733 1.631,-2.480233 1.631,-4.0125 0,-1.589467 -0.54367,-2.946 -1.631,-4.0696 -1.08733,-1.123733 -2.41433,-1.6856 -3.981,-1.6856 H 18.0447 c -1.551333,0 -2.869767,0.5666 -3.9553,1.6998 -1.085667,1.1332 -1.6285,2.485 -1.6285,4.0554 0,1.4942 0.542833,2.8222 1.6285,3.984 1.085533,1.161667 2.403967,1.7425 3.9553,1.7425 z"
       id="path148"
       sodipodi:nodetypes="sssssssssssssssssssssssssssssssss" />
  </g>
  <g
     id="Semibold-M"
     transform="translate(1980.3,1126)">
    <path
       d="m 17.3473,-3.65788 h 91.1997 c 1.36667,0 2.529,-0.4928467 3.487,-1.47854 0.958,-0.98572 1.437,-2.164313 1.437,-3.53578 0,-1.3708 -0.479,-2.5492 -1.437,-3.5352 -0.958,-0.986 -2.12033,-1.479 -3.487,-1.479 H 17.3473 c -1.3588,0 -2.512867,0.496 -3.4622,1.488 -0.949467,0.992067 -1.4242,2.167467 -1.4242,3.5262 0,1.347267 0.474733,2.519813 1.4242,3.51764 0.949333,0.9977867 2.1034,1.49668 3.4622,1.49668 z m 0,-26.52292 h 91.1997 c 1.36667,0 2.529,-0.499033 3.487,-1.4971 0.958,-0.998133 1.437,-2.1705 1.437,-3.5171 0,-1.395667 -0.479,-2.5803 -1.437,-3.5539 -0.958,-0.9736 -2.12033,-1.4604 -3.487,-1.4604 H 17.3473 c -1.3588,0 -2.512867,0.489833 -3.4622,1.4695 -0.949467,0.979667 -1.4242,2.161267 -1.4242,3.5448 0,1.3224 0.474733,2.4887 1.4242,3.4989 0.949333,1.0102 2.1034,1.5153 3.4622,1.5153 z m 0,-26.5418 h 91.1997 c 1.36667,0 2.529,-0.492867 3.487,-1.4786 0.958,-0.985733 1.437,-2.1519 1.437,-3.4985 0,-1.395667 -0.479,-2.5803 -1.437,-3.5539 -0.958,-0.973667 -2.12033,-1.4605 -3.487,-1.4605 H 17.3473 c -1.3588,0 -2.512867,0.489867 -3.4622,1.4696 -0.949467,0.979667 -1.4242,2.161267 -1.4242,3.5448 0,1.322333 0.474733,2.482467 1.4242,3.4804 0.949333,0.9978 2.1034,1.4967 3.4622,1.4967 z"
       id="path151"
       sodipodi:nodetypes="sssssssssssssssssssssssssssssssss" />
  </g>
  <g
     id="Medium-M"
     transform="translate(1684.08,1126)">
    <path
       d="M 16.8186,-4.75799 H 108.09 c 1.214,0 2.251,-0.4333367 3.111,-1.30001 0.86,-0.866733 1.29,-1.917567 1.29,-3.1525 0,-1.2196 -0.43,-2.266567 -1.29,-3.1409 -0.86,-0.874333 -1.897,-1.3115 -3.111,-1.3115 H 16.8186 c -1.212867,0 -2.242333,0.438867 -3.0884,1.3166 -0.8462,0.8778 -1.2693,1.923067 -1.2693,3.1358 0,1.221267 0.4231,2.268667 1.2693,3.1422 0.846067,0.87354 1.875533,1.31031 3.0884,1.31031 z m 0,-25.97221 H 108.09 c 1.214,0 2.251,-0.4406 3.111,-1.3218 0.86,-0.8812 1.29,-1.924733 1.29,-3.1306 0,-1.248667 -0.43,-2.302933 -1.29,-3.1628 -0.86,-0.859867 -1.897,-1.2898 -3.111,-1.2898 H 16.8186 c -1.212867,0 -2.242333,0.431667 -3.0884,1.295 -0.8462,0.863267 -1.2693,1.9158 -1.2693,3.1576 0,1.192133 0.4231,2.232233 1.2693,3.1203 0.846067,0.888067 1.875533,1.3321 3.0884,1.3321 z m 0,-26.0054 H 108.09 c 1.214,0 2.251,-0.433333 3.111,-1.3 0.86,-0.8668 1.29,-1.9031 1.29,-3.1089 0,-1.248667 -0.43,-2.3029 -1.29,-3.1627 -0.86,-0.859933 -1.897,-1.2899 -3.111,-1.2899 H 16.8186 c -1.212867,0 -2.242333,0.431667 -3.0884,1.295 -0.8462,0.863267 -1.2693,1.9158 -1.2693,3.1576 0,1.192067 0.4231,2.224933 1.2693,3.0986 0.846067,0.873533 1.875533,1.3103 3.0884,1.3103 z"
       id="path154"
       sodipodi:nodetypes="sssssssssssssssssssssssssssssssss" />
  </g>
  <g
     id="Regular-M"
     transform="translate(1388.01,1126)">
    <path
       d="m 16.1289,-6.1929 h 91.3651 c 1.01533,0 1.889,-0.3557 2.621,-1.0671 0.732,-0.711533 1.098,-1.595767 1.098,-2.6527 0,-1.022267 -0.366,-1.8978 -1.098,-2.6266 -0.732,-0.728667 -1.60567,-1.093 -2.621,-1.093 H 16.1289 c -1.0224,0 -1.8893,0.364333 -2.6007,1.093 -0.711533,0.7288 -1.0673,1.604333 -1.0673,2.6266 0,1.056933 0.355767,1.941167 1.0673,2.6527 0.7114,0.7114 1.5783,1.0671 2.6007,1.0671 z m 0,-25.254 h 91.3651 c 1.01533,0 1.889,-0.364333 2.621,-1.093 0.732,-0.7288 1.098,-1.604333 1.098,-2.6266 0,-1.056933 -0.366,-1.9411 -1.098,-2.6525 -0.732,-0.711533 -1.60567,-1.0673 -2.621,-1.0673 H 16.1289 c -1.0224,0 -1.8893,0.355767 -2.6007,1.0673 -0.711533,0.7114 -1.0673,1.595567 -1.0673,2.6525 0,1.022267 0.355767,1.8978 1.0673,2.6266 0.7114,0.728667 1.5783,1.093 2.6007,1.093 z m 0,-25.3056 h 91.3651 c 1.01533,0 1.889,-0.355733 2.621,-1.0672 0.732,-0.711533 1.098,-1.5784 1.098,-2.6006 0,-1.056933 -0.366,-1.941133 -1.098,-2.6526 -0.732,-0.711533 -1.60567,-1.0673 -2.621,-1.0673 H 16.1289 c -1.0224,0 -1.8893,0.355767 -2.6007,1.0673 -0.711533,0.711467 -1.0673,1.595667 -1.0673,2.6526 0,1.0222 0.355767,1.889067 1.0673,2.6006 0.7114,0.711467 1.5783,1.0672 2.6007,1.0672 z"
       id="path157"
       sodipodi:nodetypes="sssssssssssssssssssssssssssssssss" />
  </g>
  <g
     id="Light-M"
     transform="translate(1091.85,1126)">
    <path
       d="M 15.3075,-6.1587 H 107.22 c 0.776,0 1.45,-0.275833 2.022,-0.8275 0.57267,-0.5518 0.859,-1.236467 0.859,-2.054 0,-0.794 -0.28633,-1.4727 -0.859,-2.0361 -0.572,-0.563267 -1.246,-0.8449 -2.022,-0.8449 H 15.3075 c -0.794267,0 -1.467267,0.281633 -2.019,0.8449 -0.551733,0.5634 -0.8276,1.2421 -0.8276,2.0361 0,0.817533 0.275867,1.5022 0.8276,2.054 0.551733,0.551667 1.224733,0.8275 2.019,0.8275 z m 0,-26.0753 H 107.22 c 0.776,0 1.45,-0.281633 2.022,-0.8449 0.57267,-0.5634 0.859,-1.2421 0.859,-2.0361 0,-0.8176 -0.28633,-1.502233 -0.859,-2.0539 -0.572,-0.551733 -1.246,-0.8276 -2.022,-0.8276 H 15.3075 c -0.794267,0 -1.467267,0.275867 -2.019,0.8276 -0.551733,0.551667 -0.8276,1.2363 -0.8276,2.0539 0,0.794 0.275867,1.4727 0.8276,2.0361 0.551733,0.563267 1.224733,0.8449 2.019,0.8449 z m 0,-26.1097 H 107.22 c 0.776,0 1.45,-0.2759 2.022,-0.8277 0.57267,-0.551933 0.859,-1.224867 0.859,-2.0188 0,-0.817333 -0.28633,-1.501933 -0.859,-2.0538 -0.572,-0.551867 -1.246,-0.8278 -2.022,-0.8278 H 15.3075 c -0.794267,0 -1.467267,0.275933 -2.019,0.8278 -0.551733,0.551867 -0.8276,1.236467 -0.8276,2.0538 0,0.793933 0.275867,1.466867 0.8276,2.0188 0.551733,0.5518 1.224733,0.8277 2.019,0.8277 z"
       id="path160"
       sodipodi:nodetypes="sscscsssssssscscsssssssscscssssss" />
  </g>
  <g
     id="Thin-M"
     transform="translate(795.876,1126)">
    <path
       d="m 14.2213,-6.1135 h 92.6367 c 0.45867,0 0.86867,-0.1702 1.23,-0.5106 0.36133,-0.340467 0.542,-0.761167 0.542,-1.2621 0,-0.492133 -0.18067,-0.9105 -0.542,-1.2551 -0.36133,-0.344533 -0.77133,-0.5168 -1.23,-0.5168 H 14.2213 c -0.492733,0 -0.9093,0.172267 -1.2497,0.5168 -0.340467,0.3446 -0.5107,0.762967 -0.5107,1.2551 0,0.500933 0.170233,0.921633 0.5107,1.2621 0.3404,0.3404 0.756967,0.5106 1.2497,0.5106 z m 0,-27.1615 h 92.6367 c 0.45867,0 0.86867,-0.1723 1.23,-0.5169 0.36133,-0.3446 0.542,-0.762933 0.542,-1.255 0,-0.501 -0.18067,-0.921733 -0.542,-1.2622 -0.36133,-0.3404 -0.77133,-0.5106 -1.23,-0.5106 H 14.2213 c -0.492733,0 -0.9093,0.1702 -1.2497,0.5106 -0.340467,0.340467 -0.5107,0.7612 -0.5107,1.2622 0,0.492067 0.170233,0.9104 0.5107,1.255 0.3404,0.3446 0.756967,0.5169 1.2497,0.5169 z m 0,-27.1732 h 92.6367 c 0.45867,0 0.86867,-0.170333 1.23,-0.511 0.36133,-0.3408 0.542,-0.757233 0.542,-1.2493 0,-0.5004 -0.18067,-0.920967 -0.542,-1.2617 -0.36133,-0.340733 -0.77133,-0.5111 -1.23,-0.5111 H 14.2213 c -0.492733,0 -0.9093,0.170367 -1.2497,0.5111 -0.340467,0.340733 -0.5107,0.7613 -0.5107,1.2617 0,0.492067 0.170233,0.9085 0.5107,1.2493 0.3404,0.340667 0.756967,0.511 1.2497,0.511 z"
       id="path163"
       sodipodi:nodetypes="sssssssssssssssssssssssssssssssss" />
  </g>
  <g
     id="Ultralight-M"
     transform="translate(499.542,1126)">
    <path
       d="m 13.6649,-6.0903 h 93.0081 c 0.29667,0 0.57133,-0.1161 0.824,-0.3483 0.25333,-0.232267 0.38,-0.5178 0.38,-0.8566 0,-0.337467 -0.12667,-0.6225 -0.38,-0.8551 -0.25267,-0.232467 -0.52733,-0.3487 -0.824,-0.3487 H 13.6649 c -0.3382,0 -0.6234,0.116233 -0.8556,0.3487 -0.232267,0.2326 -0.3484,0.517633 -0.3484,0.8551 0,0.3388 0.116133,0.624333 0.3484,0.8566 0.2322,0.2322 0.5174,0.3483 0.8556,0.3483 z m 0,-27.7179 h 93.0081 c 0.29667,0 0.57133,-0.116267 0.824,-0.3488 0.25333,-0.2326 0.38,-0.517633 0.38,-0.8551 0,-0.3388 -0.12667,-0.624333 -0.38,-0.8566 -0.25267,-0.2322 -0.52733,-0.3483 -0.824,-0.3483 H 13.6649 c -0.3382,0 -0.6234,0.1161 -0.8556,0.3483 -0.232267,0.232267 -0.3484,0.5178 -0.3484,0.8566 0,0.337467 0.116133,0.6225 0.3484,0.8551 0.2322,0.232533 0.5174,0.3488 0.8556,0.3488 z m 0,-27.7179 h 93.0081 c 0.29667,0 0.57133,-0.116267 0.824,-0.3488 0.25333,-0.232667 0.38,-0.5177 0.38,-0.8551 0,-0.338133 -0.12667,-0.6235 -0.38,-0.8561 -0.25267,-0.2326 -0.52733,-0.3489 -0.824,-0.3489 H 13.6649 c -0.3382,0 -0.6234,0.1163 -0.8556,0.3489 -0.232267,0.2326 -0.3484,0.517967 -0.3484,0.8561 0,0.3374 0.116133,0.622433 0.3484,0.8551 0.2322,0.232533 0.5174,0.3488 0.8556,0.3488 z"
       id="path166"
       sodipodi:nodetypes="sscscsssssssscscsssssssscscssssss" />
  </g>
  <g
     id="Black-S"
     transform="translate(2881.94,696)">
    <path
       d="m 15.8691,-0.78906 h 71.1914 c 1.725267,0 3.173833,-0.6429133 4.3457,-1.92874 1.171933,-1.2858 1.7579,-2.758767 1.7579,-4.4189 0,-1.725267 -0.585967,-3.214533 -1.7579,-4.4678 -1.171867,-1.253267 -2.620433,-1.8799 -4.3457,-1.8799 H 15.8691 c -1.692667,0 -3.133067,0.634767 -4.3212,1.9043 -1.188187,1.269533 -1.78228,2.750667 -1.78228,4.4434 0,1.595067 0.594093,3.051767 1.78228,4.3701 1.188133,1.31836 2.628533,1.97754 4.3212,1.97754 z m 0,-28.11714 h 71.1914 c 1.725267,0 3.173833,-0.642933 4.3457,-1.9288 1.171933,-1.2858 1.7579,-2.758767 1.7579,-4.4189 0,-1.725267 -0.585967,-3.214533 -1.7579,-4.4678 -1.171867,-1.253267 -2.620433,-1.8799 -4.3457,-1.8799 H 15.8691 c -1.692667,0 -3.133067,0.634767 -4.3212,1.9043 -1.188187,1.269533 -1.78228,2.750667 -1.78228,4.4434 0,1.595067 0.594093,3.051767 1.78228,4.3701 1.188133,1.3184 2.628533,1.9776 4.3212,1.9776 z m 0,-28.0684 h 71.1914 c 1.725267,0 3.173833,-0.6429 4.3457,-1.9287 1.171933,-1.2858 1.7579,-2.7588 1.7579,-4.419 0,-1.725267 -0.585967,-3.2145 -1.7579,-4.4677 -1.171867,-1.253267 -2.620433,-1.8799 -4.3457,-1.8799 H 15.8691 c -1.692667,0 -3.133067,0.634767 -4.3212,1.9043 -1.188187,1.269533 -1.78228,2.750633 -1.78228,4.4433 0,1.595067 0.594093,3.0518 1.78228,4.3702 1.188133,1.318333 2.628533,1.9775 4.3212,1.9775 z"
       id="path169"
       sodipodi:nodetypes="sssssssssssssssssssssssssssssssss" />
  </g>
  <g
     id="Heavy-S"
     transform="translate(2585.87,696)">
    <path
       d="m 15.2007,-2.4025 h 71.226 c 1.5332,0 2.824267,-0.566067 3.8732,-1.6982 1.048933,-1.132133 1.5734,-2.443767 1.5734,-3.9349 0,-1.5332 -0.524467,-2.855367 -1.5734,-3.9665 -1.048933,-1.111133 -2.34,-1.6667 -3.8732,-1.6667 h -71.226 c -1.508267,0 -2.791167,0.561767 -3.8487,1.6853 -1.057587,1.1236 -1.58638,2.439567 -1.58638,3.9479 0,1.4414 0.528793,2.7406 1.58638,3.8976 1.057533,1.157 2.340433,1.7355 3.8487,1.7355 z m 0,-27.2067 h 71.226 c 1.5332,0 2.824267,-0.568 3.8732,-1.704 1.048933,-1.136 1.5734,-2.445733 1.5734,-3.9292 0,-1.540867 -0.524467,-2.864933 -1.5734,-3.9722 -1.048933,-1.107333 -2.34,-1.661 -3.8732,-1.661 h -71.226 c -1.508267,0 -2.791167,0.559867 -3.8487,1.6796 -1.057587,1.119733 -1.58638,2.4376 -1.58638,3.9536 0,1.433733 0.528793,2.731033 1.58638,3.8919 1.057533,1.160867 2.340433,1.7413 3.8487,1.7413 z m 0,-27.181 h 71.226 c 1.5332,0 2.824267,-0.566067 3.8732,-1.6982 1.048933,-1.132133 1.5734,-2.439933 1.5734,-3.9234 0,-1.540933 -0.524467,-2.865 -1.5734,-3.9722 -1.048933,-1.107333 -2.34,-1.661 -3.8732,-1.661 h -71.226 c -1.508267,0 -2.791167,0.559867 -3.8487,1.6796 -1.057587,1.119733 -1.58638,2.4376 -1.58638,3.9536 0,1.433667 0.528793,2.729033 1.58638,3.8861 1.057533,1.157 2.340433,1.7355 3.8487,1.7355 z"
       id="path172"
       sodipodi:nodetypes="sssssssssssssssssssssssssssssssss" />
  </g>
  <g
     id="Bold-S"
     transform="translate(2289.88,696)">
    <path
       d="m 14.4531,-4.207 h 71.2647 c 1.318333,0 2.433233,-0.480133 3.3447,-1.4404 0.911467,-0.960333 1.3672,-2.091533 1.3672,-3.3936 0,-1.3184 -0.455733,-2.453667 -1.3672,-3.4058 -0.911467,-0.952133 -2.026367,-1.4282 -3.3447,-1.4282 H 14.4531 c -1.302067,0 -2.408833,0.480133 -3.3203,1.4404 -0.911453,0.960333 -1.36718,2.091533 -1.36718,3.3936 0,1.269533 0.455727,2.392567 1.36718,3.3691 0.911467,0.9766 2.018233,1.4649 3.3203,1.4649 z m 0,-26.1885 h 71.2647 c 1.318333,0 2.433233,-0.484233 3.3447,-1.4527 0.911467,-0.9684 1.3672,-2.0955 1.3672,-3.3813 0,-1.3346 -0.455733,-2.473933 -1.3672,-3.418 -0.911467,-0.944 -2.026367,-1.416 -3.3447,-1.416 H 14.4531 c -1.302067,0 -2.408833,0.476067 -3.3203,1.4282 -0.911453,0.9522 -1.36718,2.087467 -1.36718,3.4058 0,1.253267 0.455727,2.372267 1.36718,3.357 0.911467,0.984667 2.018233,1.477 3.3203,1.477 z m 0,-26.1885 h 71.2647 c 1.318333,0 2.433233,-0.480133 3.3447,-1.4404 0.911467,-0.960333 1.3672,-2.0834 1.3672,-3.3692 0,-1.334667 -0.455733,-2.473967 -1.3672,-3.4179 -0.911467,-0.944067 -2.026367,-1.4161 -3.3447,-1.4161 H 14.4531 c -1.302067,0 -2.408833,0.4761 -3.3203,1.4283 -0.911453,0.952133 -1.36718,2.087367 -1.36718,3.4057 0,1.253267 0.455727,2.3682 1.36718,3.3448 0.911467,0.976533 2.018233,1.4648 3.3203,1.4648 z"
       id="path175"
       sodipodi:nodetypes="sssssssssssssssssssssssssssssssss" />
  </g>
  <g
     id="Semibold-S"
     transform="translate(1993.67,696)">
    <path
       d="M 13.9377,-5.4512 H 85.229 c 1.170267,0 2.163733,-0.420867 2.9804,-1.2626 0.816667,-0.841867 1.225,-1.848667 1.225,-3.0204 0,-1.1702 -0.408333,-2.1766 -1.225,-3.0192 -0.816667,-0.842533 -1.810133,-1.2638 -2.9804,-1.2638 H 13.9377 c -1.159933,0 -2.145233,0.423867 -2.9559,1.2716 -0.810787,0.847733 -1.21618,1.851533 -1.21618,3.0114 0,1.151067 0.405393,2.152667 1.21618,3.0048 0.810667,0.852133 1.795967,1.2782 2.9559,1.2782 z m 0,-25.4864 H 85.229 c 1.170267,0 2.163733,-0.426433 2.9804,-1.2793 0.816667,-0.852933 1.225,-1.854167 1.225,-3.0037 0,-1.192467 -0.408333,-2.2044 -1.225,-3.0358 -0.816667,-0.831467 -1.810133,-1.2472 -2.9804,-1.2472 H 13.9377 c -1.159933,0 -2.145233,0.4183 -2.9559,1.2549 -0.810787,0.8366 -1.21618,1.845967 -1.21618,3.0281 0,1.128867 0.405393,2.1249 1.21618,2.9881 0.810667,0.863267 1.795967,1.2949 2.9559,1.2949 z m 0,-25.5042 H 85.229 c 1.170267,0 2.163733,-0.4209 2.9804,-1.2627 0.816667,-0.8418 1.225,-1.837467 1.225,-2.987 0,-1.192467 -0.408333,-2.2044 -1.225,-3.0358 -0.816667,-0.831467 -1.810133,-1.2472 -2.9804,-1.2472 H 13.9377 c -1.159933,0 -2.145233,0.4183 -2.9559,1.2549 -0.810787,0.8366 -1.21618,1.845967 -1.21618,3.0281 0,1.1288 0.405393,2.1193 1.21618,2.9715 0.810667,0.852133 1.795967,1.2782 2.9559,1.2782 z"
       id="path178"
       sodipodi:nodetypes="sssssssssssssssssssssssssssssssss" />
  </g>
  <g
     id="Medium-S"
     transform="translate(1697.33,696)">
    <path
       d="m 13.5469,-6.3945 h 71.3115 c 1.057933,0 1.9593,-0.375967 2.7041,-1.1279 0.7448,-0.752 1.1172,-1.664467 1.1172,-2.7374 0,-1.057933 -0.3724,-1.966633 -1.1172,-2.7261 -0.7448,-0.7594 -1.646167,-1.1391 -2.7041,-1.1391 H 13.5469 c -1.052133,0 -1.945367,0.381167 -2.6797,1.1435 -0.734387,0.7624 -1.10158,1.669633 -1.10158,2.7217 0,1.0612 0.367193,1.970733 1.10158,2.7286 0.734333,0.7578 1.627567,1.1367 2.6797,1.1367 z m 0,-24.9542 h 71.3115 c 1.057933,0 1.9593,-0.382633 2.7041,-1.1479 0.7448,-0.765267 1.1172,-1.671033 1.1172,-2.7173 0,-1.0846 -0.3724,-1.999933 -1.1172,-2.746 -0.7448,-0.746133 -1.646167,-1.1192 -2.7041,-1.1192 H 13.5469 c -1.052133,0 -1.945367,0.374533 -2.6797,1.1236 -0.734387,0.749 -1.10158,1.662867 -1.10158,2.7416 0,1.034533 0.367193,1.937367 1.10158,2.7085 0.734333,0.771133 1.627567,1.1567 2.6797,1.1567 z m 0,-24.9853 h 71.3115 c 1.057933,0 1.9593,-0.375967 2.7041,-1.1279 0.7448,-0.752 1.1172,-1.651067 1.1172,-2.6972 0,-1.084733 -0.3724,-2.000133 -1.1172,-2.7462 -0.7448,-0.746067 -1.646167,-1.1191 -2.7041,-1.1191 H 13.5469 c -1.052133,0 -1.945367,0.3745 -2.6797,1.1235 -0.734387,0.749 -1.10158,1.662933 -1.10158,2.7418 0,1.0344 0.367193,1.930533 1.10158,2.6884 0.734333,0.7578 1.627567,1.1367 2.6797,1.1367 z"
       id="path181"
       sodipodi:nodetypes="sssssssssssssssssssssssssssssssss" />
  </g>
  <g
     id="Regular-S"
     transform="translate(1401.11,696)">
    <path
       d="M 13.0371,-7.625 H 84.375 c 0.911467,0 1.692733,-0.317367 2.3438,-0.9521 0.651,-0.6348 0.9765,-1.4242 0.9765,-2.3682 0,-0.911467 -0.3255,-1.692733 -0.9765,-2.3438 -0.651067,-0.651 -1.432333,-0.9765 -2.3438,-0.9765 H 13.0371 c -0.911467,0 -1.684567,0.3255 -2.3193,0.9765 -0.634787,0.651067 -0.95218,1.432333 -0.95218,2.3438 0,0.944 0.317393,1.7334 0.95218,2.3682 0.634733,0.634733 1.407833,0.9521 2.3193,0.9521 z m 0,-24.2598 H 84.375 c 0.911467,0 1.692733,-0.3255 2.3438,-0.9765 0.651,-0.651067 0.9765,-1.432333 0.9765,-2.3438 0,-0.944 -0.3255,-1.733367 -0.9765,-2.3681 -0.651067,-0.6348 -1.432333,-0.9522 -2.3438,-0.9522 H 13.0371 c -0.911467,0 -1.684567,0.3174 -2.3193,0.9522 -0.634787,0.634733 -0.95218,1.4241 -0.95218,2.3681 0,0.911467 0.317393,1.692733 0.95218,2.3438 0.634733,0.651 1.407833,0.9765 2.3193,0.9765 z m 0,-24.3086 H 84.375 c 0.911467,0 1.692733,-0.317367 2.3438,-0.9521 0.651,-0.6348 0.9765,-1.4079 0.9765,-2.3193 0,-0.944067 -0.3255,-1.733467 -0.9765,-2.3682 -0.651067,-0.6348 -1.432333,-0.9522 -2.3438,-0.9522 H 13.0371 c -0.911467,0 -1.684567,0.3174 -2.3193,0.9522 -0.634787,0.634733 -0.95218,1.424133 -0.95218,2.3682 0,0.9114 0.317393,1.6845 0.95218,2.3193 0.634733,0.634733 1.407833,0.9521 2.3193,0.9521 z"
       id="path184"
       sodipodi:nodetypes="sssssssssssssssssssssssssssssssss" />
  </g>
  <g
     id="Light-S"
     transform="translate(1104.89,696)">
    <path
       d="m 12.3105,-7.5947 h 71.8224 c 0.699533,0 1.304167,-0.246733 1.8139,-0.7402 0.509733,-0.493467 0.7646,-1.106333 0.7646,-1.8386 0,-0.709533 -0.254867,-1.316667 -0.7646,-1.8214 -0.509733,-0.504667 -1.114367,-0.757 -1.8139,-0.757 H 12.3105 c -0.709667,0 -1.311233,0.252333 -1.8047,0.757 -0.493453,0.504733 -0.74018,1.111867 -0.74018,1.8214 0,0.732267 0.246727,1.345133 0.74018,1.8386 0.493467,0.493467 1.095033,0.7402 1.8047,0.7402 z m 0,-24.9864 h 71.8224 c 0.699533,0 1.304167,-0.252333 1.8139,-0.757 0.509733,-0.5048 0.7646,-1.111967 0.7646,-1.8215 0,-0.7322 -0.254867,-1.345033 -0.7646,-1.8385 -0.509733,-0.493467 -1.114367,-0.7402 -1.8139,-0.7402 H 12.3105 c -0.709667,0 -1.311233,0.246733 -1.8047,0.7402 -0.493453,0.493467 -0.74018,1.1063 -0.74018,1.8385 0,0.709533 0.246727,1.3167 0.74018,1.8215 0.493467,0.504667 1.095033,0.757 1.8047,0.757 z m 0,-25.0199 h 71.8224 c 0.699533,0 1.304167,-0.246767 1.8139,-0.7403 0.509733,-0.493533 0.7646,-1.095067 0.7646,-1.8046 0,-0.732067 -0.254867,-1.344867 -0.7646,-1.8384 -0.509733,-0.4936 -1.114367,-0.7404 -1.8139,-0.7404 H 12.3105 c -0.709667,0 -1.311233,0.2468 -1.8047,0.7404 -0.493453,0.493533 -0.74018,1.106333 -0.74018,1.8384 0,0.709533 0.246727,1.311067 0.74018,1.8046 0.493467,0.493533 1.095033,0.7403 1.8047,0.7403 z"
       id="path187"
       sodipodi:nodetypes="sssssssssssssssssssssssssssssssss" />
  </g>
  <g
     id="Thin-S"
     transform="translate(808.834,696)">
    <path
       d="m 11.3496,-11.5547 h 72.4631 c 0.419267,0 0.7903,-0.153267 1.1131,-0.4598 0.3228,-0.3066 0.4842,-0.686 0.4842,-1.1382 0,-0.4424 -0.1614,-0.819233 -0.4842,-1.1305 C 84.603,-14.5944 84.231967,-14.75 83.8127,-14.75 H 11.3496 c -0.442867,0 -0.817567,0.1556 -1.1241,0.4668 -0.3065867,0.311267 -0.45988,0.6881 -0.45988,1.1305 0,0.4522 0.1532933,0.8316 0.45988,1.1382 0.306533,0.306533 0.681233,0.4598 1.1241,0.4598 z m 0,-21.9473 h 72.4631 c 0.419267,0 0.7903,-0.1556 1.1131,-0.4668 0.3228,-0.311267 0.4842,-0.6881 0.4842,-1.1305 0,-0.4522 -0.1614,-0.8316 -0.4842,-1.1382 -0.3228,-0.306533 -0.693833,-0.4598 -1.1131,-0.4598 H 11.3496 c -0.442867,0 -0.817567,0.153267 -1.1241,0.4598 -0.3065867,0.3066 -0.45988,0.686 -0.45988,1.1382 0,0.4424 0.1532933,0.819233 0.45988,1.1305 0.306533,0.3112 0.681233,0.4668 1.1241,0.4668 z m 0,-21.9607 h 72.4631 c 0.419267,0 0.7903,-0.153367 1.1131,-0.4601 0.3228,-0.3068 0.4842,-0.6814 0.4842,-1.1238 0,-0.4518 -0.1614,-0.8311 -0.4842,-1.1379 -0.3228,-0.306733 -0.693833,-0.4601 -1.1131,-0.4601 H 11.3496 c -0.442867,0 -0.817567,0.153367 -1.1241,0.4601 -0.3065867,0.3068 -0.45988,0.6861 -0.45988,1.1379 0,0.4424 0.1532933,0.817 0.45988,1.1238 0.306533,0.306733 0.681233,0.4601 1.1241,0.4601 z"
       id="path190"
       sodipodi:nodetypes="sssssssssssssssssssssssssssssssss" />
  </g>
  <g
     id="Ultralight-S"
     transform="translate(512.456,696)">
    <path
       d="m 10.8574,-11.5342 h 72.7913 c 0.275667,0 0.527033,-0.1054 0.7541,-0.3162 0.227133,-0.210867 0.3407,-0.470667 0.3407,-0.7794 0,-0.305667 -0.113567,-0.564567 -0.3407,-0.7767 -0.227067,-0.212067 -0.478433,-0.3181 -0.7541,-0.3181 H 10.8574 c -0.3062,0 -0.5647,0.106033 -0.7755,0.3181 -0.2108533,0.212133 -0.31628,0.471033 -0.31628,0.7767 0,0.308733 0.1054267,0.568533 0.31628,0.7794 0.2108,0.2108 0.4693,0.3162 0.7755,0.3162 z m 0,-22.4395 h 72.7913 c 0.275667,0 0.527033,-0.106033 0.7541,-0.3181 0.227133,-0.212133 0.3407,-0.471033 0.3407,-0.7767 0,-0.308733 -0.113567,-0.568533 -0.3407,-0.7794 -0.227067,-0.2108 -0.478433,-0.3162 -0.7541,-0.3162 H 10.8574 c -0.3062,0 -0.5647,0.1054 -0.7755,0.3162 -0.2108533,0.210867 -0.31628,0.470667 -0.31628,0.7794 0,0.305667 0.1054267,0.564567 0.31628,0.7767 0.2108,0.212067 0.4693,0.3181 0.7755,0.3181 z m 0,-22.4425 h 72.7913 c 0.275667,0 0.527033,-0.105533 0.7541,-0.3166 0.227133,-0.211133 0.3407,-0.469533 0.3407,-0.7752 0,-0.3082 -0.113567,-0.567867 -0.3407,-0.779 -0.227067,-0.211067 -0.478433,-0.3166 -0.7541,-0.3166 H 10.8574 c -0.3062,0 -0.5647,0.105533 -0.7755,0.3166 -0.2108533,0.211133 -0.31628,0.4708 -0.31628,0.779 0,0.305667 0.1054267,0.564067 0.31628,0.7752 0.2108,0.211067 0.4693,0.3166 0.7755,0.3166 z"
       id="path193"
       sodipodi:nodetypes="sssssssssssssssssssssssssssssssss" />
  </g>
</svg>
