<?xml version="1.0" encoding="UTF-8"?>
<!--Generator: Apple Native CoreSVG 175-->
<!DOCTYPE svg
PUBLIC "-//W3C//DTD SVG 1.1//EN"
       "http://www.w3.org/Graphics/SVG/1.1/DTD/svg11.dtd">
<svg version="1.1" xmlns="http://www.w3.org/2000/svg" xmlns:xlink="http://www.w3.org/1999/xlink" width="3300" height="2200">
 <!--glyph: "", point size: 100.0, font version: "17.0d12e1", template writer version: "65.1"-->
 <g id="Notes">
  <rect height="2200" id="artboard" style="fill:white;opacity:1" width="3300" x="0" y="0"/>
  <line style="fill:none;stroke:black;opacity:1;stroke-width:0.5;" x1="263" x2="3036" y1="292" y2="292"/>
  <text style="stroke:none;fill:black;font-family:sans-serif;font-size:13;font-weight:bold;" transform="matrix(1 0 0 1 263 322)">Weight/Scale Variations</text>
  <text style="stroke:none;fill:black;font-family:sans-serif;font-size:13;text-anchor:middle;" transform="matrix(1 0 0 1 559.711 322)">Ultralight</text>
  <text style="stroke:none;fill:black;font-family:sans-serif;font-size:13;text-anchor:middle;" transform="matrix(1 0 0 1 856.422 322)">Thin</text>
  <text style="stroke:none;fill:black;font-family:sans-serif;font-size:13;text-anchor:middle;" transform="matrix(1 0 0 1 1153.13 322)">Light</text>
  <text style="stroke:none;fill:black;font-family:sans-serif;font-size:13;text-anchor:middle;" transform="matrix(1 0 0 1 1449.84 322)">Regular</text>
  <text style="stroke:none;fill:black;font-family:sans-serif;font-size:13;text-anchor:middle;" transform="matrix(1 0 0 1 1746.56 322)">Medium</text>
  <text style="stroke:none;fill:black;font-family:sans-serif;font-size:13;text-anchor:middle;" transform="matrix(1 0 0 1 2043.27 322)">Semibold</text>
  <text style="stroke:none;fill:black;font-family:sans-serif;font-size:13;text-anchor:middle;" transform="matrix(1 0 0 1 2339.98 322)">Bold</text>
  <text style="stroke:none;fill:black;font-family:sans-serif;font-size:13;text-anchor:middle;" transform="matrix(1 0 0 1 2636.69 322)">Heavy</text>
  <text style="stroke:none;fill:black;font-family:sans-serif;font-size:13;text-anchor:middle;" transform="matrix(1 0 0 1 2933.4 322)">Black</text>
  <line style="fill:none;stroke:black;opacity:1;stroke-width:0.5;" x1="263" x2="3036" y1="1903" y2="1903"/>
  <g transform="matrix(1 0 0 1 263 1933)">
   <path d="M9.24805 0.830078Q10.8691 0.830078 12.2949 0.214844Q13.7207-0.400391 14.8096-1.49414Q15.8984-2.58789 16.5186-4.01367Q17.1387-5.43945 17.1387-7.05078Q17.1387-8.66211 16.5186-10.0879Q15.8984-11.5137 14.8047-12.6074Q13.7109-13.7012 12.2852-14.3164Q10.8594-14.9316 9.23828-14.9316Q7.62695-14.9316 6.20117-14.3164Q4.77539-13.7012 3.69141-12.6074Q2.60742-11.5137 1.9873-10.0879Q1.36719-8.66211 1.36719-7.05078Q1.36719-5.43945 1.9873-4.01367Q2.60742-2.58789 3.69629-1.49414Q4.78516-0.400391 6.21094 0.214844Q7.63672 0.830078 9.24805 0.830078ZM9.24805-0.654297Q7.91992-0.654297 6.7627-1.14746Q5.60547-1.64062 4.73145-2.51953Q3.85742-3.39844 3.36426-4.56055Q2.87109-5.72266 2.87109-7.05078Q2.87109-8.37891 3.35938-9.54102Q3.84766-10.7031 4.72168-11.582Q5.5957-12.4609 6.75293-12.9541Q7.91016-13.4473 9.23828-13.4473Q10.5762-13.4473 11.7334-12.9541Q12.8906-12.4609 13.7695-11.582Q14.6484-10.7031 15.1465-9.54102Q15.6445-8.37891 15.6445-7.05078Q15.6445-5.72266 15.1514-4.56055Q14.6582-3.39844 13.7842-2.51953Q12.9102-1.64062 11.748-1.14746Q10.5859-0.654297 9.24805-0.654297ZM5.6543-7.05078Q5.6543-6.72852 5.85938-6.52832Q6.06445-6.32812 6.40625-6.32812L8.51562-6.32812L8.51562-4.20898Q8.51562-3.88672 8.71094-3.67676Q8.90625-3.4668 9.23828-3.4668Q9.56055-3.4668 9.77051-3.67676Q9.98047-3.88672 9.98047-4.20898L9.98047-6.32812L12.0898-6.32812Q12.4219-6.32812 12.627-6.52832Q12.832-6.72852 12.832-7.05078Q12.832-7.38281 12.627-7.58789Q12.4219-7.79297 12.0898-7.79297L9.98047-7.79297L9.98047-9.90234Q9.98047-10.2344 9.77051-10.4443Q9.56055-10.6543 9.23828-10.6543Q8.90625-10.6543 8.71094-10.4443Q8.51562-10.2344 8.51562-9.90234L8.51562-7.79297L6.40625-7.79297Q6.06445-7.79297 5.85938-7.58789Q5.6543-7.38281 5.6543-7.05078Z"/>
  </g>
  <g transform="matrix(1 0 0 1 281.867 1933)">
   <path d="M11.709 2.91016Q13.75 2.91016 15.5518 2.12891Q17.3535 1.34766 18.7305-0.0292969Q20.1074-1.40625 20.8887-3.20801Q21.6699-5.00977 21.6699-7.05078Q21.6699-9.0918 20.8887-10.8936Q20.1074-12.6953 18.7305-14.0723Q17.3535-15.4492 15.5469-16.2305Q13.7402-17.0117 11.6992-17.0117Q9.6582-17.0117 7.85645-16.2305Q6.05469-15.4492 4.68262-14.0723Q3.31055-12.6953 2.5293-10.8936Q1.74805-9.0918 1.74805-7.05078Q1.74805-5.00977 2.5293-3.20801Q3.31055-1.40625 4.6875-0.0292969Q6.06445 1.34766 7.86621 2.12891Q9.66797 2.91016 11.709 2.91016ZM11.709 1.25Q9.98047 1.25 8.47656 0.605469Q6.97266-0.0390625 5.83496-1.17676Q4.69727-2.31445 4.05762-3.81836Q3.41797-5.32227 3.41797-7.05078Q3.41797-8.7793 4.05762-10.2832Q4.69727-11.7871 5.83008-12.9297Q6.96289-14.0723 8.4668-14.7119Q9.9707-15.3516 11.6992-15.3516Q13.4277-15.3516 14.9316-14.7119Q16.4355-14.0723 17.5781-12.9297Q18.7207-11.7871 19.3652-10.2832Q20.0098-8.7793 20.0098-7.05078Q20.0098-5.32227 19.3701-3.81836Q18.7305-2.31445 17.5928-1.17676Q16.4551-0.0390625 14.9463 0.605469Q13.4375 1.25 11.709 1.25ZM7.17773-7.05078Q7.17773-6.69922 7.41211-6.47461Q7.64648-6.25 8.01758-6.25L10.8887-6.25L10.8887-3.36914Q10.8887-2.99805 11.1133-2.76855Q11.3379-2.53906 11.6895-2.53906Q12.0605-2.53906 12.29-2.76855Q12.5195-2.99805 12.5195-3.36914L12.5195-6.25L15.4004-6.25Q15.7715-6.25 16.001-6.47461Q16.2305-6.69922 16.2305-7.05078Q16.2305-7.42188 16.001-7.65137Q15.7715-7.88086 15.4004-7.88086L12.5195-7.88086L12.5195-10.752Q12.5195-11.1328 12.29-11.3623Q12.0605-11.5918 11.6895-11.5918Q11.3379-11.5918 11.1133-11.3574Q10.8887-11.123 10.8887-10.752L10.8887-7.88086L8.01758-7.88086Q7.63672-7.88086 7.40723-7.65137Q7.17773-7.42188 7.17773-7.05078Z"/>
  </g>
  <g transform="matrix(1 0 0 1 305.646 1933)">
   <path d="M14.9707 5.66406Q17.0605 5.66406 18.96 5.01465Q20.8594 4.36523 22.4512 3.19336Q24.043 2.02148 25.2197 0.429688Q26.3965-1.16211 27.0459-3.06641Q27.6953-4.9707 27.6953-7.05078Q27.6953-9.14062 27.0459-11.04Q26.3965-12.9395 25.2197-14.5312Q24.043-16.123 22.4512-17.2998Q20.8594-18.4766 18.9551-19.126Q17.0508-19.7754 14.9609-19.7754Q12.8711-19.7754 10.9717-19.126Q9.07227-18.4766 7.48535-17.2998Q5.89844-16.123 4.72168-14.5312Q3.54492-12.9395 2.90039-11.04Q2.25586-9.14062 2.25586-7.05078Q2.25586-4.9707 2.90527-3.06641Q3.55469-1.16211 4.72656 0.429688Q5.89844 2.02148 7.49023 3.19336Q9.08203 4.36523 10.9814 5.01465Q12.8809 5.66406 14.9707 5.66406ZM14.9707 3.84766Q13.1641 3.84766 11.5283 3.2959Q9.89258 2.74414 8.53516 1.74805Q7.17773 0.751953 6.17676-0.610352Q5.17578-1.97266 4.62891-3.6084Q4.08203-5.24414 4.08203-7.05078Q4.08203-8.86719 4.62891-10.5029Q5.17578-12.1387 6.17188-13.501Q7.16797-14.8633 8.52539-15.8594Q9.88281-16.8555 11.5186-17.4023Q13.1543-17.9492 14.9609-17.9492Q16.7773-17.9492 18.4131-17.4023Q20.0488-16.8555 21.4111-15.8594Q22.7734-14.8633 23.7695-13.501Q24.7656-12.1387 25.3174-10.5029Q25.8691-8.86719 25.8691-7.05078Q25.8789-5.24414 25.332-3.6084Q24.7852-1.97266 23.7842-0.610352Q22.7832 0.751953 21.4209 1.74805Q20.0586 2.74414 18.4229 3.2959Q16.7871 3.84766 14.9707 3.84766ZM9.19922-7.05078Q9.19922-6.66992 9.45801-6.4209Q9.7168-6.17188 10.1172-6.17188L14.0625-6.17188L14.0625-2.2168Q14.0625-1.81641 14.3115-1.55762Q14.5605-1.29883 14.9512-1.29883Q15.3516-1.29883 15.6104-1.55273Q15.8691-1.80664 15.8691-2.2168L15.8691-6.17188L19.8242-6.17188Q20.2246-6.17188 20.4785-6.4209Q20.7324-6.66992 20.7324-7.05078Q20.7324-7.46094 20.4785-7.71484Q20.2246-7.96875 19.8242-7.96875L15.8691-7.96875L15.8691-11.9141Q15.8691-12.3242 15.6104-12.583Q15.3516-12.8418 14.9512-12.8418Q14.5605-12.8418 14.3115-12.583Q14.0625-12.3242 14.0625-11.9141L14.0625-7.96875L10.1172-7.96875Q9.70703-7.96875 9.45312-7.71484Q9.19922-7.46094 9.19922-7.05078Z"/>
  </g>
  <text style="stroke:none;fill:black;font-family:sans-serif;font-size:13;font-weight:bold;" transform="matrix(1 0 0 1 263 1953)">Design Variations</text>
  <text style="stroke:none;fill:black;font-family:sans-serif;font-size:13;" transform="matrix(1 0 0 1 263 1971)">Symbols are supported in up to nine weights and three scales.</text>
  <text style="stroke:none;fill:black;font-family:sans-serif;font-size:13;" transform="matrix(1 0 0 1 263 1989)">For optimal layout with text and other symbols, vertically align</text>
  <text style="stroke:none;fill:black;font-family:sans-serif;font-size:13;" transform="matrix(1 0 0 1 263 2007)">symbols with the adjacent text.</text>
  <line style="fill:none;stroke:#00AEEF;stroke-width:0.5;opacity:1.0;" x1="776" x2="776" y1="1919" y2="1933"/>
  <g transform="matrix(1 0 0 1 776 1933)">
   <path d="M3.31055 0.15625Q3.70117 0.15625 3.91602-0.00976562Q4.13086-0.175781 4.26758-0.585938L5.52734-4.0332L11.2891-4.0332L12.5488-0.585938Q12.6855-0.175781 12.9004-0.00976562Q13.1152 0.15625 13.4961 0.15625Q13.8867 0.15625 14.1162-0.0585938Q14.3457-0.273438 14.3457-0.644531Q14.3457-0.869141 14.2383-1.17188L9.6582-13.3691Q9.48242-13.8184 9.17969-14.043Q8.87695-14.2676 8.4082-14.2676Q7.5-14.2676 7.17773-13.3789L2.59766-1.16211Q2.49023-0.859375 2.49023-0.634766Q2.49023-0.263672 2.70996-0.0537109Q2.92969 0.15625 3.31055 0.15625ZM6.00586-5.51758L8.37891-12.0898L8.42773-12.0898L10.8008-5.51758Z"/>
  </g>
  <line style="fill:none;stroke:#00AEEF;stroke-width:0.5;opacity:1.0;" x1="793.197" x2="793.197" y1="1919" y2="1933"/>
  <text style="stroke:none;fill:black;font-family:sans-serif;font-size:13;font-weight:bold;" transform="matrix(1 0 0 1 776 1953)">Margins</text>
  <text style="stroke:none;fill:black;font-family:sans-serif;font-size:13;" transform="matrix(1 0 0 1 776 1971)">Leading and trailing margins on the left and right side of each symbol</text>
  <text style="stroke:none;fill:black;font-family:sans-serif;font-size:13;" transform="matrix(1 0 0 1 776 1989)">can be adjusted by modifying the x-location of the margin guidelines.</text>
  <text style="stroke:none;fill:black;font-family:sans-serif;font-size:13;" transform="matrix(1 0 0 1 776 2007)">Modifications are automatically applied proportionally to all</text>
  <text style="stroke:none;fill:black;font-family:sans-serif;font-size:13;" transform="matrix(1 0 0 1 776 2025)">scales and weights.</text>
  <g transform="matrix(1 0 0 1 1289 1933)">
   <path d="M2.8418 1.86523L4.54102 3.57422Q5.18555 4.22852 5.90332 4.17969Q6.62109 4.13086 7.31445 3.35938L18.0078-8.42773L17.041-9.4043L6.42578 2.27539Q6.16211 2.57812 5.89355 2.61719Q5.625 2.65625 5.27344 2.30469L4.10156 1.14258Q3.75 0.791016 3.79395 0.522461Q3.83789 0.253906 4.14062-0.0195312L15.6152-10.8203L14.6387-11.7871L3.04688-0.898438Q2.30469-0.214844 2.25098 0.498047Q2.19727 1.21094 2.8418 1.86523ZM9.25781-16.3281Q8.94531-16.0254 8.90625-15.6348Q8.86719-15.2441 9.04297-14.9512Q9.21875-14.6777 9.55566-14.541Q9.89258-14.4043 10.3809-14.5215Q11.4746-14.7754 12.5977-14.7314Q13.7207-14.6875 14.7949-13.9844L14.209-12.5293Q13.9551-11.9043 14.0674-11.4404Q14.1797-10.9766 14.5801-10.5664L16.875-8.25195Q17.2363-7.88086 17.5781-7.82227Q17.9199-7.76367 18.3398-7.8418L19.4043-8.03711L20.0684-7.36328L20.0293-6.80664Q20-6.43555 20.1221-6.12305Q20.2441-5.81055 20.6055-5.44922L21.3672-4.70703Q21.7285-4.3457 22.1533-4.33105Q22.5781-4.31641 22.9297-4.66797L25.8398-7.58789Q26.1914-7.93945 26.1816-8.35449Q26.1719-8.76953 25.8105-9.13086L25.0391-9.89258Q24.6875-10.2539 24.3799-10.3857Q24.0723-10.5176 23.7109-10.4883L23.1348-10.4395L22.4902-11.0742L22.7344-12.1973Q22.832-12.6172 22.6953-12.9834Q22.5586-13.3496 22.1191-13.7891L19.9219-15.9766Q18.6719-17.2168 17.2607-17.8369Q15.8496-18.457 14.4189-18.4814Q12.9883-18.5059 11.665-17.959Q10.3418-17.4121 9.25781-16.3281ZM10.752-15.957Q11.6602-16.6211 12.7002-16.9043Q13.7402-17.1875 14.8047-17.085Q15.8691-16.9824 16.8701-16.5137Q17.8711-16.0449 18.7012-15.2051L21.1328-12.793Q21.3086-12.6172 21.3525-12.4512Q21.3965-12.2852 21.3379-12.0312L21.0156-10.5469L22.5195-9.0625L23.5059-9.12109Q23.6914-9.13086 23.7891-9.09668Q23.8867-9.0625 24.0332-8.91602L24.6094-8.33984L22.168-5.89844L21.5918-6.47461Q21.4453-6.62109 21.4062-6.71875Q21.3672-6.81641 21.377-7.01172L21.4453-7.98828L19.9512-9.47266L18.4277-9.21875Q18.1836-9.16992 18.042-9.2041Q17.9004-9.23828 17.7148-9.41406L15.7129-11.416Q15.5176-11.5918 15.4932-11.7529Q15.4688-11.9141 15.5859-12.1875L16.4648-14.2773Q15.293-15.3711 13.8281-15.791Q12.3633-16.2109 10.8398-15.7617Q10.7227-15.7324 10.6885-15.8057Q10.6543-15.8789 10.752-15.957Z"/>
  </g>
  <text style="stroke:none;fill:black;font-family:sans-serif;font-size:13;font-weight:bold;" transform="matrix(1 0 0 1 1289 1953)">Exporting</text>
  <text style="stroke:none;fill:black;font-family:sans-serif;font-size:13;" transform="matrix(1 0 0 1 1289 1971)">Symbols should be outlined when exporting to ensure the</text>
  <text style="stroke:none;fill:black;font-family:sans-serif;font-size:13;" transform="matrix(1 0 0 1 1289 1989)">design is preserved when submitting to Xcode.</text>
  <text id="template-version" style="stroke:none;fill:black;font-family:sans-serif;font-size:13;text-anchor:end;" transform="matrix(1 0 0 1 3036 1933)">Template v.3.0</text>
  <text style="stroke:none;fill:black;font-family:sans-serif;font-size:13;text-anchor:end;" transform="matrix(1 0 0 1 3036 1951)">Requires Xcode 13 or greater</text>
  <text id="descriptive-name" style="stroke:none;fill:black;font-family:sans-serif;font-size:13;text-anchor:end;" transform="matrix(1 0 0 1 3036 1969)">Generated from rss</text>
  <text style="stroke:none;fill:black;font-family:sans-serif;font-size:13;text-anchor:end;" transform="matrix(1 0 0 1 3036 1987)">Typeset at 100 points</text>
  <text style="stroke:none;fill:black;font-family:sans-serif;font-size:13;" transform="matrix(1 0 0 1 263 726)">Small</text>
  <text style="stroke:none;fill:black;font-family:sans-serif;font-size:13;" transform="matrix(1 0 0 1 263 1156)">Medium</text>
  <text style="stroke:none;fill:black;font-family:sans-serif;font-size:13;" transform="matrix(1 0 0 1 263 1586)">Large</text>
 </g>
 <g id="Guides">
  <g id="H-reference" style="fill:#27AAE1;stroke:none;" transform="matrix(1 0 0 1 339 696)">
   <path d="M0.993347 0L3.6377 0L29.3282-67.1326L30.0301-67.1326L30.0301-70.459L28.1227-70.459ZM11.6882-24.4797L46.9818-24.4797L46.2311-26.7288L12.4382-26.7288ZM55.1193 0L57.7637 0L30.6381-70.459L29.4327-70.459L29.4327-67.1326Z"/>
  </g>
  <line id="Baseline-S" style="fill:none;stroke:#27AAE1;opacity:1;stroke-width:0.5;" x1="263" x2="3036" y1="696" y2="696"/>
  <line id="Capline-S" style="fill:none;stroke:#27AAE1;opacity:1;stroke-width:0.5;" x1="263" x2="3036" y1="625.541" y2="625.541"/>
  <g id="H-reference" style="fill:#27AAE1;stroke:none;" transform="matrix(1 0 0 1 339 1126)">
   <path d="M0.993347 0L3.6377 0L29.3282-67.1326L30.0301-67.1326L30.0301-70.459L28.1227-70.459ZM11.6882-24.4797L46.9818-24.4797L46.2311-26.7288L12.4382-26.7288ZM55.1193 0L57.7637 0L30.6381-70.459L29.4327-70.459L29.4327-67.1326Z"/>
  </g>
  <line id="Baseline-M" style="fill:none;stroke:#27AAE1;opacity:1;stroke-width:0.5;" x1="263" x2="3036" y1="1126" y2="1126"/>
  <line id="Capline-M" style="fill:none;stroke:#27AAE1;opacity:1;stroke-width:0.5;" x1="263" x2="3036" y1="1055.54" y2="1055.54"/>
  <g id="H-reference" style="fill:#27AAE1;stroke:none;" transform="matrix(1 0 0 1 339 1556)">
   <path d="M0.993347 0L3.6377 0L29.3282-67.1326L30.0301-67.1326L30.0301-70.459L28.1227-70.459ZM11.6882-24.4797L46.9818-24.4797L46.2311-26.7288L12.4382-26.7288ZM55.1193 0L57.7637 0L30.6381-70.459L29.4327-70.459L29.4327-67.1326Z"/>
  </g>
  <line id="Baseline-L" style="fill:none;stroke:#27AAE1;opacity:1;stroke-width:0.5;" x1="263" x2="3036" y1="1556" y2="1556"/>
  <line id="Capline-L" style="fill:none;stroke:#27AAE1;opacity:1;stroke-width:0.5;" x1="263" x2="3036" y1="1485.54" y2="1485.54"/>
  <line id="left-margin-Regular-M" style="fill:none;stroke:#00AEEF;stroke-width:0.5;opacity:1.0;" x1="1392.45" x2="1392.45" y1="1030.78" y2="1150.12"/>
  <line id="right-margin-Regular-M" style="fill:none;stroke:#00AEEF;stroke-width:0.5;opacity:1.0;" x1="1507.24" x2="1507.24" y1="1030.78" y2="1150.12"/>
 </g>
 <g id="Symbols">
  <g id="Black-L" transform="matrix(1 0 0 1 2859.23 1556)">
   <path d="M29.4355-96.875C23.7142-96.875 18.1036-96.4297 12.6263-95.5589L12.6263-72.6884C18.0705-73.799 23.6655-74.4428 29.4355-74.4428C75.8263-74.4428 113.478-36.7517 113.478 9.6875C113.478 15.462 112.836 21.064 111.728 26.5137L134.577 26.5137C135.447 21.0295 135.889 15.4161 135.889 9.6875C135.889-49.1339 88.1988-96.875 29.4355-96.875ZM29.4355-52.0075C23.5434-52.0075 17.8494-51.19 12.4512-49.6411C12.5362-48.973 12.6263-48.3135 12.6263-47.6253L12.6263-25.716C17.739-28.1613 23.3941-29.5736 29.4355-29.5736C51.0829-29.5736 68.654-11.9847 68.654 9.6875C68.654 15.7322 67.246 21.3974 64.8017 26.5137L88.7026 26.5137C90.2197 21.1588 91.0651 15.5267 91.0651 9.6875C91.0651-24.3682 63.4553-52.0075 29.4355-52.0075ZM29.4355-7.1385C20.1561-7.1385 12.6263 0.3975 12.6263 9.6875C12.6263 18.9735 20.1561 26.5137 29.4355 26.5137C38.7133 26.5137 46.243 18.9735 46.243 9.6875C46.243 0.3975 38.7133-7.1385 29.4355-7.1385Z"/>
  </g>
  <g id="Heavy-L" transform="matrix(1 0 0 1 2563.54 1556)">
   <path d="M29.1548-95.8496C23.5281-95.8496 18.0102-95.4117 12.6234-94.5553L12.6234-72.0628C17.9776-73.155 23.4801-73.7882 29.1548-73.7882C74.7789-73.7882 111.808-36.7201 111.808 8.9516C111.808 14.6307 111.177 20.14 110.087 25.4997L132.559 25.4997C133.414 20.1061 133.849 14.5854 133.849 8.9516C133.849-48.8976 86.9469-95.8496 29.1548-95.8496ZM29.1548-51.7237C23.3601-51.7237 17.7602-50.9197 12.4512-49.3964C12.5352-48.7394 12.6234-48.0908 12.6234-47.4139L12.6234-25.8668C17.6516-28.2717 23.2133-29.6606 29.1548-29.6606C50.4444-29.6606 67.7251-12.3624 67.7251 8.9516C67.7251 14.8963 66.3404 20.4679 63.9365 25.4997L87.4424 25.4997C88.9344 20.2333 89.7659 14.6942 89.7659 8.9516C89.7659-24.5413 62.6124-51.7237 29.1548-51.7237ZM29.1548-7.5963C20.0287-7.5963 12.6234-0.1849 12.6234 8.9516C12.6234 18.0841 20.0287 25.4997 29.1548 25.4997C38.2792 25.4997 45.6845 18.0841 45.6845 8.9516C45.6845-0.1849 38.2792-7.5963 29.1548-7.5963Z"/>
  </g>
  <g id="Bold-L" transform="matrix(1 0 0 1 2267.97 1556)">
   <path d="M28.841-94.7021C23.3199-94.7021 17.9057-94.2724 12.6202-93.4321L12.6202-71.3626C17.8738-72.4343 23.2729-73.0555 28.841-73.0555C73.6078-73.0555 109.941-36.6845 109.941 8.1283C109.941 13.7006 109.322 19.1063 108.253 24.3652L130.302 24.3652C131.141 19.0731 131.568 13.6562 131.568 8.1283C131.568-48.633 85.5472-94.7021 28.841-94.7021ZM28.841-51.406C23.1551-51.406 17.6605-50.6171 12.4512-49.1224C12.5332-48.4778 12.6202-47.8413 12.6202-47.1772L12.6202-26.0353C17.5539-28.395 23.0111-29.7578 28.841-29.7578C49.7305-29.7578 66.6866-12.7849 66.6866 8.1283C66.6866 13.9613 65.3278 19.4281 62.9692 24.3652L86.0334 24.3652C87.4973 19.1979 88.3132 13.763 88.3132 8.1283C88.3132-24.7347 61.6699-51.406 28.841-51.406ZM28.841-8.1084C19.8864-8.1084 12.6202-0.8364 12.6202 8.1283C12.6202 17.0891 19.8864 24.3652 28.841 24.3652C37.794 24.3652 45.0601 17.0891 45.0601 8.1283C45.0601-0.8364 37.794-8.1084 28.841-8.1084Z"/>
  </g>
  <g id="Semibold-L" transform="matrix(1 0 0 1 1972.05 1556)">
   <path d="M28.6244-93.911C23.1763-93.911 17.8336-93.487 12.618-92.6578L12.618-70.8799C17.8021-71.9374 23.1299-72.5504 28.6244-72.5504C72.7997-72.5504 108.653-36.66 108.653 7.5608C108.653 13.0594 108.042 18.3938 106.987 23.5832L128.745 23.5832C129.573 18.361 129.994 13.0157 129.994 7.5608C129.994-48.4506 84.5813-93.911 28.6244-93.911ZM28.6244-51.1869C23.0136-51.1869 17.5916-50.4085 12.4512-48.9336C12.5322-48.2975 12.618-47.6694 12.618-47.0141L12.618-26.1514C17.4865-28.4799 22.8715-29.8248 28.6244-29.8248C49.2379-29.8248 65.9699-13.0761 65.9699 7.5608C65.9699 13.3167 64.6291 18.7113 62.3016 23.5832L85.0611 23.5832C86.5057 18.4841 87.3108 13.121 87.3108 7.5608C87.3108-24.868 61.0195-51.1869 28.6244-51.1869ZM28.6244-8.4614C19.7881-8.4614 12.618-1.2854 12.618 7.5608C12.618 16.4031 19.7881 23.5832 28.6244 23.5832C37.4591 23.5832 44.6292 16.4031 44.6292 7.5608C44.6292-1.2854 37.4591-8.4614 28.6244-8.4614Z"/>
  </g>
  <g id="Medium-L" transform="matrix(1 0 0 1 1675.93 1556)">
   <path d="M28.4603-93.3356C23.0675-93.3356 17.7791-92.9158 12.6162-92.0946L12.6162-70.5287C17.7479-71.576 23.0216-72.183 28.4603-72.183C72.1877-72.183 107.677-36.642 107.677 7.1483C107.677 12.5933 107.073 17.8758 106.028 23.0147L127.565 23.0147C128.385 17.8433 128.802 12.5501 128.802 7.1483C128.802-48.3179 83.8498-93.3355 28.4603-93.3356ZM28.4603-51.0275C22.9065-51.0275 17.5395-50.2566 12.4512-48.7961C12.5312-48.1662 12.6162-47.5442 12.6162-46.8953L12.6162-26.2358C17.4354-28.5416 22.7658-29.8733 28.4603-29.8733C48.8649-29.8733 65.4272-13.2877 65.4272 7.1482C65.4272 12.8481 64.1 18.1901 61.7961 23.0146L84.3247 23.0146C85.7547 17.9652 86.5516 12.6543 86.5516 7.1482C86.5516-24.9649 60.527-51.0275 28.4603-51.0275ZM28.4603-8.718C19.7137-8.718 12.6162-1.6119 12.6162 7.1482C12.6162 15.9045 19.7137 23.0146 28.4603 23.0146C37.2054 23.0146 44.3029 15.9045 44.3029 7.1482C44.3029-1.6119 37.2054-8.718 28.4603-8.718Z"/>
  </g>
  <g id="Regular-L" transform="matrix(1 0 0 1 1380 1556)">
   <path d="M28.2463-92.5293C22.9256-92.5293 17.7078-92.1152 12.6141-91.3054L12.6141-70.0368C17.677-71.0696 22.8802-71.6683 28.2463-71.6683C71.3888-71.6683 106.404-36.6173 106.404 6.5692C106.404 11.9392 105.807 17.1488 104.777 22.2168L126.026 22.2168C126.834 17.1168 127.246 11.8965 127.246 6.5692C127.246-48.1322 82.895-92.5293 28.2463-92.5293ZM28.2463-50.8045C22.7667-50.8045 17.4714-50.0442 12.4512-48.6038C12.5302-47.9826 12.6141-47.3692 12.6141-46.7292L12.6141-26.3545C17.3688-28.6286 22.6279-29.942 28.2463-29.942C48.3779-29.942 64.7187-13.585 64.7187 6.5692C64.7187 12.1904 63.4093 17.4589 61.1362 22.2168L83.3635 22.2168C84.7744 17.237 85.5606 11.9993 85.5606 6.5692C85.5606-25.1012 59.8841-50.8045 28.2463-50.8045ZM28.2463-9.0783C19.6166-9.0783 12.6141-2.0701 12.6141 6.5692C12.6141 15.2047 19.6166 22.2168 28.2463 22.2168C36.8744 22.2168 43.8769 15.2047 43.8769 6.5692C43.8769-2.0701 36.8744-9.0783 28.2463-9.0783Z"/>
  </g>
  <g id="Light-L" transform="matrix(1 0 0 1 1084.12 1556)">
   <path d="M28.0172-91.6817C22.7737-91.6817 17.6316-91.2736 12.6116-90.4754L12.6116-69.5127C17.6012-70.5307 22.729-71.1207 28.0172-71.1207C70.5344-71.1207 105.042-36.5738 105.042 5.9916C105.042 11.2844 104.454 16.4191 103.438 21.4142L124.379 21.4142C125.176 16.3875 125.582 11.2423 125.582 5.9916C125.582-47.9231 81.8738-91.6817 28.0172-91.6817ZM28.0172-50.557C22.6171-50.557 17.3986-49.8076 12.4512-48.388C12.5292-47.7756 12.6116-47.1711 12.6116-46.5403L12.6116-26.4586C17.2974-28.7 22.4803-29.9945 28.0172-29.9945C47.8571-29.9945 63.961-13.8727 63.961 5.9916C63.961 11.532 62.6705 16.7247 60.4304 21.4142L82.3356 21.4142C83.726 16.506 84.5008 11.3437 84.5008 5.9916C84.5008-25.2233 59.1964-50.557 28.0172-50.557ZM28.0172-9.4308C19.5126-9.4308 12.6116-2.5235 12.6116 5.9916C12.6116 14.5029 19.5126 21.4142 28.0172 21.4142C36.5203 21.4142 43.4213 14.5029 43.4213 5.9916C43.4213-2.5235 36.5203-9.4308 28.0172-9.4308Z"/>
  </g>
  <g id="Thin-L" transform="matrix(1 0 0 1 788.51 1556)">
   <path d="M27.7142-90.5609C22.5727-90.5609 17.5307-90.1606 12.6085-89.3778L12.6085-68.8194C17.501-69.8177 22.5289-70.3964 27.7142-70.3964C69.4034-70.3964 103.239-36.5158 103.239 5.2286C103.239 10.4193 102.662 15.455 101.667 20.3537L122.2 20.3537C122.981 15.424 123.379 10.378 123.379 5.2286C123.379-47.6462 80.522-90.5609 27.7142-90.5609ZM27.7142-50.2293C22.4192-50.2293 17.3023-49.4944 12.4512-48.1021C12.5277-47.5016 12.6085-46.9087 12.6085-46.2901L12.6085-26.5957C17.2031-28.7939 22.285-30.0634 27.7141-30.0634C47.1676-30.0634 62.958-14.2526 62.958 5.2286C62.958 10.6622 61.6926 15.7547 59.4961 20.3537L80.9747 20.3537C82.338 15.5402 83.0978 10.4775 83.0978 5.2286C83.0978-25.3842 58.2862-50.2293 27.7142-50.2293ZM27.7142-9.8964C19.3752-9.8964 12.6085-3.1222 12.6085 5.2286C12.6085 13.5758 19.3752 20.3537 27.7142 20.3537C36.0516 20.3537 42.8183 13.5758 42.8183 5.2286C42.8183-3.1222 36.0517-9.8964 27.7142-9.8964Z"/>
  </g>
  <g id="Ultralight-L" transform="matrix(1 0 0 1 492.363 1556)">
   <path d="M27.5589-89.988C22.4698-89.988 17.479-89.5917 12.6069-88.8168L12.6069-68.4652C17.4496-69.4534 22.4264-70.0263 27.5589-70.0263C68.8243-70.0263 102.316-36.4864 102.316 4.8383C102.316 9.9768 101.745 14.9618 100.759 19.8113L121.084 19.8113C121.857 14.9311 122.251 9.9359 122.251 4.8383C122.251-47.5049 79.8298-89.988 27.5589-89.988ZM27.5589-50.062C22.3178-50.062 17.253-49.3345 12.4512-47.9562C12.5269-47.3617 12.6069-46.7748 12.6069-46.1624L12.6069-26.6661C17.1548-28.8421 22.185-30.0988 27.5589-30.0988C46.8146-30.0988 62.4444-14.4471 62.4444 4.8383C62.4444 10.2172 61.1919 15.2585 59.0177 19.8113L80.2779 19.8113C81.6274 15.0462 82.3794 10.0343 82.3794 4.8383C82.3794-25.4667 57.8201-50.062 27.5589-50.062ZM27.5589-10.1346C19.3047-10.1346 12.6069-3.4286 12.6069 4.8383C12.6069 13.1015 19.3047 19.8113 27.5589 19.8113C35.8117 19.8113 42.5095 13.1015 42.5095 4.8383C42.5095-3.4286 35.8117-10.1346 27.5589-10.1346Z"/>
  </g>
  <g id="Black-M" transform="matrix(1 0 0 1 2872.54 1126)">
   <path d="M25.7738-83.5938C21.286-83.5938 16.885-83.2443 12.5885-82.561L12.5885-64.6139C16.859-65.4855 21.2478-65.9905 25.7738-65.9905C62.1633-65.9905 91.6976-36.4136 91.6976 0.0286C91.6976 4.5599 91.1942 8.956 90.325 13.2324L108.248 13.2324C108.93 8.9288 109.277 4.5238 109.277 0.0286C109.277-46.1302 71.8684-83.5938 25.7738-83.5938ZM25.7738-48.385C21.152-48.385 16.6856-47.7435 12.4512-46.5282C12.5182-46.0038 12.5885-45.4864 12.5885-44.9463L12.5885-27.7534C16.599-29.6725 21.0349-30.7807 25.7738-30.7807C42.7543-30.7807 56.5373-16.9783 56.5373 0.0286C56.5373 4.7718 55.4328 9.2175 53.5155 13.2324L72.2636 13.2324C73.4537 9.0303 74.1168 4.6106 74.1168 0.0286C74.1168-26.6959 52.4594-48.385 25.7738-48.385ZM25.7738-13.1752C18.495-13.1752 12.5885-7.2616 12.5885 0.0286C12.5885 7.3155 18.495 13.2324 25.7738 13.2324C33.0514 13.2324 38.9579 7.3155 38.9579 0.0286C38.9579-7.2616 33.0514-13.1752 25.7738-13.1752Z"/>
  </g>
  <g id="Heavy-M" transform="matrix(1 0 0 1 2576.65 1126)">
   <path d="M25.5487-82.7759C21.1367-82.7759 16.81-82.4323 12.5862-81.7606L12.5862-64.1166C16.7845-64.9735 21.0991-65.47 25.5487-65.47C61.3234-65.47 90.3586-36.3927 90.3586-0.5662C90.3586 3.8886 89.8637 8.2104 89.0092 12.4146L106.629 12.4146C107.3 8.1837 107.641 3.8531 107.641-0.5661C107.641-45.9451 70.8645-82.7759 25.5487-82.7759ZM25.5487-48.1619C21.005-48.1619 16.614-47.5312 12.4512-46.3364C12.5172-45.8209 12.5862-45.3122 12.5862-44.7813L12.5862-27.8789C16.5289-29.7655 20.8899-30.855 25.5487-30.855C42.2423-30.855 55.7924-17.2857 55.7924-0.5661C55.7924 4.097 54.7066 8.4675 52.8217 12.4146L71.253 12.4146C72.4229 8.2835 73.0749 3.9385 73.0749-0.5661C73.0749-26.8392 51.7834-48.1619 25.5487-48.1619ZM25.5487-13.5469C18.3928-13.5469 12.5862-7.7332 12.5862-0.5661C12.5862 6.5977 18.3928 12.4146 25.5487 12.4146C32.7034 12.4146 38.51 6.5977 38.51-0.5661C38.51-7.7332 32.7034-13.5469 25.5487-13.5469Z"/>
  </g>
  <g id="Bold-M" transform="matrix(1 0 0 1 2282.58 1126)">
   <path d="M24.8199-80.127C20.6534-80.127 16.5675-79.8025 12.5787-79.1682L12.5787-62.5062C16.5434-63.3154 20.6179-63.7843 24.8199-63.7843C58.6038-63.7843 86.0233-36.3253 86.0233-2.4927C86.0233 1.7141 85.556 5.7954 84.749 9.7656L101.389 9.7656C102.022 5.7702 102.344 1.6806 102.344-2.4927C102.344-45.3461 67.614-80.127 24.8199-80.127ZM24.8199-47.4395C20.529-47.4395 16.3824-46.8439 12.4512-45.7156C12.5132-45.2288 12.5787-44.7484 12.5787-44.247L12.5787-28.2853C16.302-30.0669 20.4203-31.0958 24.8199-31.0958C40.5845-31.0958 53.3806-18.2817 53.3806-2.4927C53.3806 1.9109 52.3552 6.0382 50.5752 9.7656L67.9809 9.7656C69.0857 5.8644 69.7014 1.7612 69.7014-2.4927C69.7014-27.3035 49.5947-47.4395 24.8199-47.4395ZM24.8199-14.751C18.0622-14.751 12.5787-9.2609 12.5787-2.4927C12.5787 4.2724 18.0622 9.7656 24.8199 9.7656C31.5764 9.7656 37.0599 4.2724 37.0599-2.4927C37.0599-9.2609 31.5764-14.751 24.8199-14.751Z"/>
  </g>
  <g id="Semibold-M" transform="matrix(1 0 0 1 1985.87 1126)">
   <path d="M24.8199-80.1269C20.6534-80.1269 16.5675-79.8025 12.5787-79.1681L12.5787-62.5061C16.5434-63.3153 20.6179-63.7842 24.8199-63.7842C58.6038-63.7842 86.0233-36.3252 86.0233-2.4926C86.0233 1.7142 85.556 5.7955 84.749 9.7657L101.389 9.7657C102.022 5.7703 102.344 1.6807 102.344-2.4926C102.344-45.346 67.614-80.1269 24.8199-80.1269ZM24.8199-47.4394C20.529-47.4394 16.3824-46.8438 12.4512-45.7155C12.5132-45.2287 12.5787-44.7483 12.5787-44.2469L12.5787-28.2852C16.302-30.0669 20.4203-31.0957 24.8199-31.0957C40.5845-31.0957 53.3806-18.2816 53.3806-2.4927C53.3806 1.911 52.3552 6.0383 50.5752 9.7656L67.9809 9.7656C69.0857 5.8645 69.7014 1.7613 69.7014-2.4927C69.7014-27.3034 49.5947-47.4394 24.8199-47.4394ZM24.8199-14.751C18.0622-14.751 12.5787-9.2609 12.5787-2.4927C12.5787 4.2725 18.0622 9.7656 24.8199 9.7656C31.5764 9.7656 37.0599 4.2725 37.0599-2.4927C37.0599-9.2609 31.5764-14.751 24.8199-14.751Z"/>
  </g>
  <g id="Medium-M" transform="matrix(1 0 0 1 1688.54 1126)">
   <path d="M24.9916-80.751C20.7673-80.751 16.6246-80.422 12.5805-79.7789L12.5805-62.8855C16.6002-63.706 20.7313-64.1814 24.9916-64.1814C59.2445-64.1814 87.0447-36.3411 87.0447-2.0388C87.0447 2.2264 86.5709 6.3644 85.7527 10.3897L102.623 10.3897C103.266 6.3388 103.592 2.1924 103.592-2.0388C103.592-45.4872 68.3798-80.751 24.9916-80.751ZM24.9916-47.6097C20.6411-47.6097 16.437-47.0058 12.4512-45.8618C12.5142-45.3683 12.5805-44.8812 12.5805-44.3728L12.5805-28.1895C16.3555-29.9958 20.5309-31.039 24.9916-31.039C40.9751-31.039 53.9488-18.047 53.9488-2.0388C53.9488 2.4259 52.9092 6.6105 51.1045 10.3897L68.7518 10.3897C69.872 6.4343 70.4962 2.2742 70.4962-2.0388C70.4962-27.1941 50.1104-47.6097 24.9916-47.6097ZM24.9916-14.4673C18.1401-14.4673 12.5805-8.901 12.5805-2.0388C12.5805 4.8202 18.1401 10.3897 24.9916 10.3897C31.8419 10.3897 37.4015 4.8202 37.4015-2.0388C37.4015-8.901 31.8419-14.4673 24.9916-14.4673Z"/>
  </g>
  <g id="Regular-M" transform="matrix(1 0 0 1 1392.45 1126)">
   <path d="M24.8199-80.127C20.6534-80.127 16.5675-79.8025 12.5787-79.1682L12.5787-62.5062C16.5434-63.3154 20.6179-63.7843 24.8199-63.7843C58.6038-63.7843 86.0233-36.3253 86.0233-2.4927C86.0233 1.7141 85.556 5.7954 84.749 9.7656L101.389 9.7656C102.022 5.7702 102.344 1.6806 102.344-2.4927C102.344-45.3461 67.614-80.127 24.8199-80.127ZM24.8199-47.4395C20.529-47.4395 16.3824-46.8439 12.4512-45.7156C12.5132-45.2288 12.5787-44.7484 12.5787-44.247L12.5787-28.2853C16.302-30.0669 20.4203-31.0958 24.8199-31.0958C40.5845-31.0958 53.3806-18.2817 53.3806-2.4927C53.3806 1.9109 52.3552 6.0382 50.5752 9.7656L67.9809 9.7656C69.0857 5.8644 69.7014 1.7612 69.7014-2.4927C69.7014-27.3035 49.5947-47.4395 24.8199-47.4395ZM24.8199-14.751C18.0622-14.751 12.5787-9.2609 12.5787-2.4927C12.5787 4.2724 18.0622 9.7656 24.8199 9.7656C31.5764 9.7656 37.0599 4.2724 37.0599-2.4927C37.0599-9.2609 31.5764-14.751 24.8199-14.751Z"/>
  </g>
  <g id="Light-M" transform="matrix(1 0 0 1 1096.48 1126)">
   <path d="M24.6158-79.3701C20.5181-79.3701 16.4996-79.0509 12.5766-78.4271L12.5766-62.04C16.4759-62.8359 20.4832-63.297 24.6158-63.297C57.8424-63.297 84.8095-36.2911 84.8095-3.0167C84.8095 1.1207 84.35 5.1346 83.5563 9.0393L99.9214 9.0393C100.544 5.1098 100.861 1.0877 100.861-3.0167C100.861-45.1631 66.704-79.3701 24.6158-79.3701ZM24.6158-47.2219C20.3957-47.2219 16.3175-46.6362 12.4512-45.5265C12.5122-45.0477 12.5766-44.5752 12.5766-44.0821L12.5766-28.3838C16.2385-30.136 20.2888-31.1479 24.6158-31.1479C40.1204-31.1479 52.7054-18.5452 52.7054-3.0167C52.7054 1.3142 51.6969 5.3734 49.9462 9.0393L67.0648 9.0393C68.1514 5.2025 68.7569 1.167 68.7569-3.0167C68.7569-27.4182 48.9819-47.2219 24.6158-47.2219ZM24.6158-15.0728C17.9696-15.0728 12.5766-9.6733 12.5766-3.0167C12.5766 3.6367 17.9696 9.0393 24.6158 9.0393C31.2609 9.0393 36.6539 3.6367 36.6539-3.0167C36.6539-9.6733 31.2609-15.0728 24.6158-15.0728Z"/>
  </g>
  <g id="Thin-M" transform="matrix(1 0 0 1 800.75 1126)">
   <path d="M24.3458-78.3691C20.339-78.3691 16.4097-78.057 12.5738-77.447L12.5738-61.4237C16.3865-62.2019 20.3049-62.6528 24.3458-62.6528C56.8347-62.6528 83.2032-36.2463 83.2032-3.7104C83.2032 0.3351 82.7538 4.26 81.9777 8.078L97.9795 8.078C98.5886 4.2357 98.8983 0.3029 98.8983-3.7104C98.8983-44.9213 65.4995-78.3691 24.3458-78.3691ZM24.3458-46.9345C20.2194-46.9345 16.2317-46.3617 12.4512-45.2766C12.5108-44.8085 12.5738-44.3465 12.5738-43.8643L12.5738-28.5144C16.1544-30.2277 20.1148-31.2172 24.3458-31.2172C39.5061-31.2172 51.8117-18.8943 51.8117-3.7104C51.8117 0.5244 50.8256 4.4935 49.1139 8.078L65.8524 8.078C66.9148 4.3263 67.5069 0.3804 67.5069-3.7104C67.5069-27.5703 48.171-46.9345 24.3458-46.9345ZM24.3458-15.4989C17.8471-15.4989 12.5738-10.2192 12.5738-3.7104C12.5738 2.7953 17.8471 8.078 24.3458 8.078C30.8433 8.078 36.1166 2.7953 36.1166-3.7104C36.1166-10.2192 30.8433-15.4989 24.3458-15.4989Z"/>
  </g>
  <g id="Ultralight-M" transform="matrix(1 0 0 1 504.541 1126)">
   <path d="M24.2075-77.8564C20.2473-77.8564 16.3637-77.548 12.5724-76.9451L12.5724-61.1079C16.3408-61.8771 20.2136-62.3228 24.2075-62.3228C56.3188-62.3228 82.3808-36.2232 82.3808-4.0655C82.3808-0.067 81.9367 3.8123 81.1696 7.5859L96.9854 7.5859C97.5874 3.7883 97.8935-0.0988 97.8935-4.0655C97.8935-44.7974 64.8829-77.8564 24.2075-77.8564ZM24.2075-46.7872C20.1291-46.7872 16.1878-46.221 12.4512-45.1486C12.5101-44.6859 12.5724-44.2293 12.5724-43.7527L12.5724-28.5812C16.1113-30.2746 20.0258-31.2526 24.2075-31.2526C39.1916-31.2526 51.3542-19.0729 51.3542-4.0655C51.3542 0.1201 50.3796 4.043 48.6877 7.5859L65.2317 7.5859C66.2818 3.8778 66.867-0.0222 66.867-4.0655C66.867-27.648 47.7558-46.7872 24.2075-46.7872ZM24.2075-15.717C17.7844-15.717 12.5724-10.4987 12.5724-4.0655C12.5724 2.3647 17.7844 7.5859 24.2075 7.5859C30.6295 7.5859 35.8415 2.3647 35.8415-4.0655C35.8415-10.4987 30.6295-15.717 24.2075-15.717Z"/>
  </g>
  <g id="Black-S" transform="matrix(1 0 0 1 2882.82 696)">
   <path d="M22.9454-73.3398C19.4104-73.3398 15.9437-73.0645 12.5594-72.5263L12.5594-58.3895C15.9232-59.076 19.3802-59.4738 22.9454-59.4738C51.6094-59.4738 74.8735-36.1762 74.8735-7.47089C74.8735-3.9016 74.477-0.43888 73.7923 2.92969L87.9102 2.92969C88.4476-0.4602 88.7208-3.93002 88.7208-7.47089C88.7208-43.8299 59.2541-73.3398 22.9454-73.3398ZM22.9454-45.6061C19.3048-45.6061 15.7866-45.1008 12.4512-44.1434C12.5042-43.7304 12.5594-43.3228 12.5594-42.8974L12.5594-29.3547C15.7184-30.8662 19.2126-31.7392 22.9454-31.7392C36.3209-31.7392 47.1778-20.8671 47.1778-7.47089C47.1778-3.73464 46.3078-0.23283 44.7975 2.92969L59.5654 2.92969C60.5028-0.38026 61.0252-3.86164 61.0252-7.47089C61.0252-28.5216 43.9656-45.6061 22.9454-45.6061ZM22.9454-17.8715C17.2119-17.8715 12.5594-13.2134 12.5594-7.47089C12.5594-1.73107 17.2119 2.92969 22.9454 2.92969C28.678 2.92969 33.3305-1.73107 33.3305-7.47089C33.3305-13.2134 28.678-17.8715 22.9454-17.8715Z"/>
  </g>
  <g id="Heavy-S" transform="matrix(1 0 0 1 2586.71 696)">
   <path d="M22.7789-72.7409C19.2999-72.7409 15.8882-72.4699 12.5576-71.9402L12.5576-58.0254C15.8681-58.7011 19.2703-59.0927 22.7789-59.0927C50.9881-59.0927 73.8831-36.161 73.8831-7.90646C73.8831-4.39322 73.4929-0.98489 72.819 2.33078L86.7129 2.33078C87.2418-1.00587 87.5107-4.4212 87.5107-7.90646C87.5107-43.6944 58.5115-72.7409 22.7789-72.7409ZM22.7789-45.4427C19.196-45.4427 15.7337-44.9453 12.4512-44.003C12.5032-43.5965 12.5576-43.1953 12.5576-42.7766L12.5576-29.4465C15.6665-30.9344 19.1053-31.7937 22.7789-31.7937C35.9422-31.7937 46.6268-21.0922 46.6268-7.90646C46.6268-4.22889 45.7706-0.78208 44.2843 2.33078L58.8178 2.33078C59.7403-0.92719 60.2544-4.35389 60.2544-7.90646C60.2544-28.6266 43.4656-45.4427 22.7789-45.4427ZM22.7789-18.1437C17.1363-18.1437 12.5576-13.5587 12.5576-7.90646C12.5576-2.25678 17.1363 2.33078 22.7789 2.33078C28.4205 2.33078 32.9992-2.25678 32.9992-7.90646C32.9992-13.5587 28.4205-18.1437 22.7789-18.1437Z"/>
  </g>
  <g id="Bold-S" transform="matrix(1 0 0 1 2290.68 696)">
   <path d="M22.5927-72.0703C19.1764-72.0703 15.8262-71.8042 12.5557-71.2839L12.5557-57.6177C15.8065-58.2813 19.1473-58.6659 22.5927-58.6659C50.2932-58.6659 72.7754-36.1439 72.7754-8.39418C72.7754-4.94371 72.3922-1.59627 71.7305 1.66016L85.3739 1.66016C85.8932-1.61688 86.1573-4.97119 86.1573-8.39418C86.1573-43.5428 57.681-72.0703 22.5927-72.0703ZM22.5927-45.2599C19.0744-45.2599 15.6745-44.7713 12.4512-43.8458C12.5022-43.4466 12.5557-43.0525 12.5557-42.6413L12.5557-29.5494C15.6086-31.0107 18.9853-31.8546 22.5927-31.8546C35.5186-31.8546 46.0105-21.3444 46.0105-8.39418C46.0105-4.78231 45.1698-1.39708 43.7103 1.66016L57.9818 1.66016C58.8877-1.5396 59.3925-4.90508 59.3925-8.39418C59.3925-28.7441 42.9063-45.2599 22.5927-45.2599ZM22.5927-18.4485C17.0518-18.4485 12.5557-13.9455 12.5557-8.39418C12.5557-2.84544 17.0518 1.66016 22.5927 1.66016C28.1325 1.66016 32.6286-2.84544 32.6286-8.39418C32.6286-13.9455 28.1325-18.4485 22.5927-18.4485Z"/>
  </g>
  <g id="Semibold-S" transform="matrix(1 0 0 1 1994.43 696)">
   <path d="M22.4643-71.608C19.0913-71.608 15.7836-71.3452 12.5544-70.8314L12.5544-57.3366C15.7641-57.9919 19.0626-58.3717 22.4643-58.3717C49.8142-58.3717 72.0117-36.1321 72.0117-8.73044C72.0117-5.32324 71.6334-2.01778 70.9801 1.19781L84.4508 1.19781C84.9635-2.03813 85.2242-5.35037 85.2242-8.73044C85.2242-43.4382 57.1084-71.608 22.4643-71.608ZM22.4643-45.1338C18.9906-45.1338 15.6337-44.6514 12.4512-43.7375C12.5012-43.3433 12.5544-42.9541 12.5544-42.5481L12.5544-29.6204C15.5686-31.0633 18.9026-31.8967 22.4643-31.8967C35.2266-31.8967 45.5857-21.5182 45.5857-8.73044C45.5857-5.16386 44.7556-1.82109 43.3146 1.19781L57.4055 1.19781C58.2998-1.96182 58.7983-5.28509 58.7983-8.73044C58.7983-28.8252 42.5208-45.1338 22.4643-45.1338ZM22.4643-18.6587C16.9936-18.6587 12.5544-14.2121 12.5544-8.73044C12.5544-3.25129 16.9936 1.19781 22.4643 1.19781C27.9341 1.19781 32.3733-3.25129 32.3733-8.73044C32.3733-14.2121 27.9341-18.6587 22.4643-18.6587Z"/>
  </g>
  <g id="Medium-S" transform="matrix(1 0 0 1 1698.07 696)">
   <path d="M22.367-71.2578C19.0268-71.2578 15.7512-70.9975 12.5534-70.4887L12.5534-57.1237C15.7319-57.7727 18.9983-58.1489 22.367-58.1489C49.4511-58.1489 71.4329-36.1232 71.4329-8.98512C71.4329-5.6107 71.0583-2.33703 70.4113 0.84763L83.7511 0.84763C84.2589-2.35719 84.517-5.63757 84.517-8.98512C84.517-43.359 56.6744-71.2578 22.367-71.2578ZM22.367-45.0383C18.9271-45.0383 15.6028-44.5605 12.4512-43.6554C12.5012-43.265 12.5534-42.8796 12.5534-42.4774L12.5534-29.6741C15.5383-31.1031 18.8399-31.9285 22.367-31.9285C35.0053-31.9285 45.2637-21.6499 45.2637-8.98512C45.2637-5.45285 44.4417-2.14224 43.0147 0.84763L56.9686 0.84763C57.8543-2.28161 58.3479-5.57292 58.3479-8.98512C58.3479-28.8865 42.2286-45.0383 22.367-45.0383ZM22.367-18.8179C16.9495-18.8179 12.5534-14.4141 12.5534-8.98512C12.5534-3.55868 16.9495 0.84763 22.367 0.84763C27.7836 0.84763 32.1797-3.55868 32.1797-8.98512C32.1797-14.4141 27.7836-18.8179 22.367-18.8179Z"/>
  </g>
  <g id="Regular-S" transform="matrix(1 0 0 1 1401.82 696)">
   <path d="M22.24-70.8008C18.9426-70.8008 15.7089-70.5438 12.5521-70.0415L12.5521-56.8459C15.6898-57.4867 18.9145-57.858 22.24-57.858C48.9771-57.858 70.6773-36.1116 70.6773-9.31748C70.6773-5.98583 70.3075-2.75367 69.6688 0.39062L82.8377 0.39062C83.339-2.77357 83.5938-6.01236 83.5938-9.31748C83.5938-43.2557 56.1079-70.8008 22.24-70.8008ZM22.24-44.9136C18.8441-44.9136 15.5624-44.4419 12.4512-43.5483C12.5002-43.1628 12.5521-42.7823 12.5521-42.3852L12.5521-29.7442C15.4988-31.1551 18.7581-31.97 22.24-31.97C34.7163-31.97 44.8434-21.8217 44.8434-9.31748C44.8434-5.82999 44.0319-2.56134 42.6231 0.39062L56.3983 0.39062C57.2726-2.69895 57.7599-5.94853 57.7599-9.31748C57.7599-28.9666 41.8472-44.9136 22.24-44.9136ZM22.24-19.0256C16.8918-19.0256 12.5521-14.6776 12.5521-9.31748C12.5521-3.95982 16.8918 0.39062 22.24 0.39062C27.5872 0.39062 31.9269-3.95982 31.9269-9.31748C31.9269-14.6776 27.5872-19.0256 22.24-19.0256Z"/>
  </g>
  <g id="Light-S" transform="matrix(1 0 0 1 1105.77 696)">
   <path d="M22.0588-70.1195C18.8224-70.1195 15.6486-69.8673 12.5502-69.3744L12.5502-56.4257C15.6299-57.0545 18.7948-57.4189 22.0588-57.4189C48.301-57.4189 69.5996-36.0793 69.5996-9.78661C69.5996-6.51731 69.2366-3.34562 68.6098-0.26016L81.5349-0.26016C82.0269-3.36515 82.277-6.54334 82.277-9.78661C82.277-43.0898 55.2999-70.1195 22.0588-70.1195ZM22.0588-44.7167C18.7258-44.7167 15.5048-44.2538 12.4512-43.3769C12.4992-42.9987 12.5502-42.6253 12.5502-42.2356L12.5502-29.8311C15.4424-31.2157 18.6413-32.0153 22.0588-32.0153C34.3042-32.0153 44.2438-22.0569 44.2438-9.78661C44.2438-6.36438 43.4473-3.15689 42.0647-0.26016L55.5849-0.26016C56.443-3.29193 56.9213-6.48071 56.9213-9.78661C56.9213-29.0681 41.3031-44.7167 22.0588-44.7167ZM22.0588-19.3131C16.8096-19.3131 12.5502-15.0465 12.5502-9.78661C12.5502-4.52921 16.8096-0.26016 22.0588-0.26016C27.307-0.26016 31.5664-4.52921 31.5664-9.78661C31.5664-15.0465 27.307-19.3131 22.0588-19.3131Z"/>
  </g>
  <g id="Thin-S" transform="matrix(1 0 0 1 809.932 696)">
   <path d="M21.8191-69.2184C18.6635-69.2184 15.5688-68.9726 12.5478-68.4921L12.5478-55.8699C15.5506-56.4828 18.6366-56.8381 21.8191-56.8381C47.4067-56.8381 68.174-36.0367 68.174-10.407C68.174-7.22011 67.8201-4.12841 67.2089-1.12076L79.8116-1.12076C80.2913-4.14744 80.5352-7.24549 80.5352-10.407C80.5352-42.8703 54.231-69.2184 21.8191-69.2184ZM21.8191-44.4562C18.5692-44.4562 15.4286-44.005 12.4512-43.1502C12.4982-42.7815 12.5478-42.4175 12.5478-42.0377L12.5478-29.946C15.3678-31.2956 18.4869-32.0751 21.8192-32.0751C33.7591-32.0751 43.4508-22.3678 43.4508-10.407C43.4508-7.07104 42.6742-3.94444 41.326-1.12076L54.5089-1.12076C55.3457-4.07607 55.812-7.18443 55.812-10.407C55.812-29.2022 40.5834-44.4562 21.8192-44.4562ZM21.8191-19.6932C16.7009-19.6932 12.5478-15.5342 12.5478-10.407C12.5478-5.28215 16.7009-1.12076 21.8191-1.12076C26.9364-1.12076 31.0896-5.28215 31.0896-10.407C31.0896-15.5342 26.9364-19.6932 21.8191-19.6932Z"/>
  </g>
  <g id="Ultralight-S" transform="matrix(1 0 0 1 513.666 696)">
   <path d="M21.6964-68.7576C18.5821-68.7576 15.528-68.515 12.5465-68.0409L12.5465-55.5859C15.51-56.1907 18.5556-56.5412 21.6964-56.5412C46.9488-56.5412 67.4441-36.0153 67.4441-10.725C67.4441-7.58032 67.0948-4.52956 66.4916-1.56174L78.9292-1.56174C79.4026-4.54834 79.6433-7.60537 79.6433-10.725C79.6433-42.7584 53.6837-68.7576 21.6964-68.7576ZM21.6964-44.3233C18.4891-44.3233 15.3896-43.8781 12.4512-43.0346C12.4975-42.6708 12.5465-42.3116 12.5465-41.9368L12.5465-30.0053C15.3295-31.337 18.4079-32.1062 21.6964-32.1062C33.48-32.1062 43.0446-22.5274 43.0446-10.725C43.0446-7.43323 42.2782-4.34803 40.9477-1.56174L53.9579-1.56174C54.7837-4.47791 55.2439-7.54512 55.2439-10.725C55.2439-29.2714 40.2148-44.3233 21.6964-44.3233ZM21.6964-19.8882C16.6453-19.8882 12.5465-15.7843 12.5465-10.725C12.5465-5.66802 16.6453-1.56174 21.6964-1.56174C26.7467-1.56174 30.8454-5.66802 30.8454-10.725C30.8454-15.7843 26.7467-19.8882 21.6964-19.8882Z"/>
  </g>
 </g>
</svg>
